{
.appVersion = "3133";
.formatVersion = 3;
DisplayStrings = (
"/yeh_reh-ar.fina"
);
axes = (
{
name = Weight;
tag = wght;
}
);
classes = (
{
code = "kaf-ar.init kaf-ar.medi
";
name = kaf_init;
},
{
code = "kaf-ar.init.calt kaf-ar.medi.calt";
name = kaf_calt;
},
{
code = "alef-ar.fina alefHamzaabove-ar.fina alefHamzabelow-ar.fina alefMadda-ar.fina alefWasla-ar.fina";
name = alef_fina;
},
{
code = "behDotless-ar.init beh-ar.init alefMaksura-ar.init peh-ar.init teh-ar.init theh-ar.init tteh-ar.init noon-ar.init noonThreedotsabove-ar.init yeh-ar.init yehFarsi-ar.init yehThreedotsbelow-ar.init
";
name = beh_init;
},
{
code = "behDotless-ar.medi beh-ar.medi alefMaksura-ar.medi peh-ar.medi teh-ar.medi theh-ar.medi tteh-ar.medi noon-ar.medi noonThreedotsabove-ar.medi yeh-ar.medi yehFarsi-ar.medi yehThreedotsbelow-ar.medi
";
name = beh_medi;
},
{
code = "behDotless-ar.medi.calt beh-ar.medi.calt alefMaksura-ar.medi.calt peh-ar.medi.calt teh-ar.medi.calt theh-ar.medi.calt tteh-ar.medi.calt noon-ar.medi.calt noonThreedotsabove-ar.medi.calt yeh-ar.medi.calt yehFarsi-ar.medi.calt yehThreedotsbelow-ar.medi.calt
";
name = beh_calt;
}
);
customParameters = (
{
name = "Use Typo Metrics";
value = 1;
},
{
name = "gasp Table";
value = {
};
},
{
name = fsType;
value = (
);
},
{
name = "Use Line Breaks";
value = 1;
}
);
date = "2022-06-21 02:34:04 +0000";
familyName = Marhey;
featurePrefixes = (
{
automatic = 1;
code = "languagesystem DFLT dflt;

languagesystem arab dflt;

languagesystem latn dflt;
languagesystem latn AZE;
languagesystem latn CRT;
languagesystem latn KAZ;
languagesystem latn TAT;
languagesystem latn TRK;
languagesystem latn ROM;
languagesystem latn MOL;
languagesystem latn NLD;
";
name = Languagesystems;
}
);
features = (
{
automatic = 1;
code = "feature locl;
feature subs;
feature sinf;
feature sups;
feature numr;
feature dnom;
feature frac;
feature ordn;
feature init;
feature medi;
feature fina;
feature salt;
feature calt;
";
tag = aalt;
},
{
automatic = 1;

glyphs = (
{
color = 0;
glyphname = A;
kernLeft = Aupper_1;
kernRight = Aupper_2;
lastChange = "2022-08-23 06:37:50 +0000";
layers = (
{
anchors = (
{
name = bottom;
pos = (384,0);
},
{
name = ogonek;
pos = (615,16);
},
{
name = top;
pos = (408,800);
}
);
guides = (
{
pos = (247,-11);
}
);
layerId = m002;
name = Black;
shapes = (
{
closed = 1;
nodes = (
(647,14,l),
(698,435,o),
(637,766,o),
(406,766,cs),
(153,766,o),
(75,442,o),
(99,-7,c),
(210,2,l),
(175,249,o),
(174,706,o),
(405,706,cs),
(654,706,o),
(563,167,o),
(540,1,c)
);
},
{
closed = 1;
nodes = (
(309,184,o),
(457,187,o),
(605,215,c),
(596,278,l),
(473,255,o),
(330,244,o),
(171,274,c),
(139,199,l)
);
}
);
width = 759;
},
{
anchors = (
{
name = bottom;
pos = (387,0);
},
{
name = ogonek;
pos = (659,16);
},
{
name = top;
pos = (415,800);
}
);
guides = (
{
pos = (249,-11);
}
);
layerId = m003;
name = Black;
shapes = (
{
closed = 1;
nodes = (
(696,14,l),
(756,435,o),
(685,766,o),
(413,766,cs),
(115,766,o),
(23,442,o),
(52,-7,c),
(324,20,l),
(299,255,o),
(296,670,o),
(417,670,cs),
(548,670,o),
(480,105,o),
(455,-7,c)
);
},
{
closed = 1;
nodes = (
(317,135,o),
(520,133,o),
(647,193,c),
(637,274,l),
(518,259,o),
(334,227,o),
(169,293,c),
(129,162,l)
);
}
);
width = 763;
},
{
anchors = (
{
name = bottom;
pos = (385,0);
},
{
name = ogonek;
pos = (626,16);
},
{
name = top;
pos = (410,800);
}
);
layerId = "68C5B637-35C1-4638-A7C2-DD6A34998814";
name = Black;
shapes = (
{
closed = 1;
nodes = (
(659,14,l),
(713,435,o),
(649,766,o),
(408,766,cs),
(144,766,o),
(62,442,o),
(87,-7,c),
(239,7,l),
(206,251,o),
(205,697,o),
(408,697,cs),
(628,697,o),
(542,152,o),
(519,-1,c)
);
},
{
closed = 1;
nodes = (
(311,172,o),
(473,174,o),
(616,210,c),
(606,277,l),
(484,256,o),
(331,240,o),
(171,279,c),
(137,190,l)
);
}
);
width = 760;
},
{
anchors = (
{
name = bottom;
pos = (386,0);
},
{
name = ogonek;
pos = (637,16);
},
{
name = top;
pos = (412,800);
}
);
layerId = "267D1DB6-4F39-4280-86D9-F184EF0BD2F7";
name = Black;
shapes = (
{
closed = 1;
nodes = (
(671,14,l),
(727,435,o),
(661,766,o),
(410,766,cs),
(134,766,o),
(49,442,o),
(75,-7,c),
(267,11,l),
(237,252,o),
(235,688,o),
(411,688,cs),
(601,688,o),
(521,136,o),
(498,-3,c)
);
},
{
closed = 1;
nodes = (
(313,160,o),
(489,160,o),
(626,204,c),
(616,276,l),
(495,257,o),
(332,236,o),
(170,284,c),
(134,181,l)
);
}
);
width = 762;
},
{
anchors = (
{
name = bottom;
pos = (387,0);
},
{
name = ogonek;
pos = (648,16);
},
{
name = top;
pos = (414,800);
}
);
layerId = "34FE6C3C-97E7-412D-B228-A13225540168";
name = Black;
shapes = (
{
closed = 1;
nodes = (
(684,14,l),
(742,435,o),
(673,766,o),
(412,766,cs),
(125,766,o),
(36,442,o),
(64,-7,c),
(296,16,l),
(268,254,o),
(266,679,o),
(414,679,cs),
(575,679,o),
(501,121,o),
(477,-5,c)
);
},
{
closed = 1;
nodes = (
(315,148,o),
(505,147,o),
(637,199,c),
(627,275,l),
(507,258,o),
(333,232,o),
(170,289,c),
(132,172,l)
);
}
);
width = 762;
}
);
metricLeft = I;
metricRight = I;
unicode = 65;
},
{
glyphname = AE;
kernLeft = A_1;
kernRight = E_2;
lastChange = "2022-08-23 06:38:07 +0000";
layers = (
{
anchors = (
{
name = bottom;
pos = (384,0);
},
{
name = ogonek;
pos = (615,16);
},
{
name = top;
pos = (408,800);
}
);
layerId = m002;
name = Black;
shapes = (
{
closed = 1;
nodes = (
(647,14,l),
(698,435,o),
(637,766,o),
(406,766,cs),
(153,766,o),
(75,452,o),
(99,3,c),
(210,12,l),
(175,259,o),
(174,706,o),
(405,706,cs),
(654,706,o),
(573,167,o),
(550,1,c)
);
},
{
closed = 1;
nodes = (
(309,293,o),
(457,296,o),
(605,324,c),
(596,390,l),
(473,367,o),
(330,356,o),
(171,386,c),
(139,308,l)
);
},
{
closed = 1;
nodes = (
(996,83,l),
(853,69,o),
(700,44,o),
(594,59,c),
(550,1,l),
(681,-11,o),
(893,-5,o),
(996,-5,c)
);
},
{
closed = 1;
nodes = (
(882,409,l),
(801,407,o),
(695,404,o),
(589,390,c),
(589,331,l),
(709,340,o),
(794,338,o),
(885,329,c)
);
},
{
closed = 1;
nodes = (
(979,770,l),
(880,767,o),
(568,766,o),
(406,766,c),
(487,705,l),
(578,708,o),
(836,705,o),
(979,684,c)
);
}
);
width = 1041;
},
{
anchors = (
{
name = bottom;
pos = (387,0);
},
{
name = ogonek;
pos = (659,16);
},
{
name = top;
pos = (415,800);
}
);
layerId = m003;
name = Black;
shapes = (
{
closed = 1;
nodes = (
(696,14,l),
(756,435,o),
(685,766,o),
(413,766,cs),
(115,766,o),
(23,452,o),
(52,3,c),
(324,20,l),
(299,255,o),
(296,670,o),
(417,670,cs),
(548,670,o),
(477,112,o),
(452,0,c)
);
},
{
closed = 1;
nodes = (
(317,246,o),
(520,244,o),
(647,304,c),
(637,385,l),
(518,370,o),
(334,338,o),
(169,404,c),
(129,273,l)
);
},
{
closed = 1;
nodes = (
(1084,161,l),
(916,137,o),
(628,118,o),
(503,118,c),
(452,0,l),
(566,-12,o),
(963,-5,o),
(1084,-5,c)
);
},
{
closed = 1;
nodes = (
(950,424,l),
(869,422,o),
(760,415,o),
(653,401,c),
(654,289,l),
(775,301,o),
(877,304,o),
(953,288,c)
);
},
{
closed = 1;
nodes = (
(1064,770,l),
(947,767,o),
(645,766,o),
(413,766,c),
(530,637,l),
(616,637,o),
(855,626,o),
(1064,584,c)
);
}
);
width = 1111;
},
{
anchors = (
{
name = bottom;
pos = (385,0);
},
{
name = ogonek;
pos = (626,16);
},
{
name = top;
pos = (410,800);
}
);
layerId = "68C5B637-35C1-4638-A7C2-DD6A34998814";
name = Black;
shapes = (
{
closed = 1;
nodes = (
(659,14,l),
(713,435,o),
(649,766,o),
(408,766,cs),
(144,766,o),
(62,452,o),
(87,3,c),
(239,14,l),
(206,258,o),
(205,697,o),
(408,697,cs),
(628,697,o),
(549,153,o),
(526,1,c)
);
},
{
closed = 1;
nodes = (
(311,281,o),
(473,283,o),
(616,319,c),
(606,389,l),
(484,368,o),
(331,352,o),
(171,391,c),
(137,299,l)
);
},
{
closed = 1;
nodes = (
(1018,103,l),
(869,86,o),
(682,63,o),
(571,74,c),
(526,1,l),
(652,-11,o),
(911,-5,o),
(1018,-5,c)
);
},
{
closed = 1;
nodes = (
(899,413,l),
(818,411,o),
(711,407,o),
(605,393,c),
(605,321,l),
(726,330,o),
(815,330,o),
(902,319,c)
);
},
{
closed = 1;
nodes = (
(1000,770,l),
(897,767,o),
(587,766,o),
(408,766,c),
(498,688,l),
(588,690,o),
(841,685,o),
(1000,659,c)
);
}
);
width = 1058;
},
{
anchors = (
{
name = bottom;
pos = (386,0);
},
{
name = ogonek;
pos = (637,16);
},
{
name = top;
pos = (412,800);
}
);
layerId = "267D1DB6-4F39-4280-86D9-F184EF0BD2F7";
name = Black;
shapes = (
{
closed = 1;
nodes = (
(671,14,l),
(727,435,o),
(661,766,o),
(410,766,cs),
(134,766,o),
(49,452,o),
(75,3,c),
(267,16,l),
(237,257,o),
(235,688,o),
(411,688,cs),
(601,688,o),
(525,139,o),
(501,1,c)
);
},
{
closed = 1;
nodes = (
(313,269,o),
(489,270,o),
(626,314,c),
(616,388,l),
(495,369,o),
(332,347,o),
(170,395,c),
(134,290,l)
);
},
{
closed = 1;
nodes = (
(1040,122,l),
(885,103,o),
(664,81,o),
(548,89,c),
(501,1,l),
(623,-11,o),
(928,-5,o),
(1040,-5,c)
);
},
{
closed = 1;
nodes = (
(916,417,l),
(835,415,o),
(727,410,o),
(621,396,c),
(621,310,l),
(742,320,o),
(836,321,o),
(919,309,c)
);
},
{
closed = 1;
nodes = (
(1021,770,l),
(914,767,o),
(606,766,o),
(410,766,c),
(509,671,l),
(597,672,o),
(846,665,o),
(1021,634,c)
);
}
);
width = 1076;
},
{
anchors = (
{
name = bottom;
pos = (387,0);
},
{
name = ogonek;
pos = (648,16);
},
{
name = top;
pos = (414,800);
}
);
layerId = "34FE6C3C-97E7-412D-B228-A13225540168";
name = Black;
shapes = (
{
closed = 1;
nodes = (
(684,14,l),
(742,435,o),
(673,766,o),
(412,766,cs),
(125,766,o),
(36,452,o),
(64,3,c),
(296,18,l),
(268,256,o),
(266,679,o),
(414,679,cs),
(575,679,o),
(501,126,o),
(477,1,c)
);
},
{
closed = 1;
nodes = (
(315,258,o),
(505,257,o),
(637,309,c),
(627,387,l),
(507,370,o),
(333,343,o),
(170,400,c),
(132,282,l)
);
},
{
closed = 1;
nodes = (
(1062,142,l),
(901,120,o),
(646,100,o),
(526,104,c),
(477,1,l),
(595,-11,o),
(946,-5,o),
(1062,-5,c)
);
},
{
closed = 1;
nodes = (
(933,421,l),
(852,419,o),
(744,413,o),
(637,399,c),
(638,300,l),
(759,311,o),
(857,313,o),
(936,299,c)
);
},
{
closed = 1;
nodes = (
(1043,770,l),
(931,767,o),
(626,766,o),
(412,766,c),
(520,654,l),
(607,655,o),
(851,646,o),
(1043,609,c)
);
}
);
width = 1093;
}
);
metricLeft = A;
metricRight = E;
unicode = 198;
},
{
color = 3;
glyphname = B;
kernLeft = I_1;
kernRight = B_2;
lastChange = "2022-08-23 06:31:59 +0000";
layers = (
{
guides = (
{
pos = (-57,485);
},
{
pos = (-57,165);
}
);
layerId = m002;
name = Black;
shapes = (
{
closed = 1;
nodes = (
(506,378,o),
(621,483,o),
(621,632,cs),
(621,726,o),
(570,798,o),
(460,798,cs),
(370,798,o),
(222,735,o),
(168,582,c),
(193,523,l),
(230,651,o),
(349,698,o),
(429,698,cs),
(492,698,o),
(531,659,o),
(531,612,cs),
(531,520,o),
(445,433,o),
(160,357,c),
(193,305,l)
);
},
{
closed = 1;
nodes = (
(212,0,l),
(219,255,o),
(220,461,o),
(205,748,c),
(95,730,l),
(119,536,o),
(127,259,o),
(118,-4,c)
);
},
{
closed = 1;
nodes = (
(542,0,o),
(689,111,o),
(689,259,cs),
(689,465,o),
(404,449,o),
(193,329,c),
(189,291,l),
(327,342,o),
(587,410,o),
(587,244,cs),
(587,163,o),
(485,58,o),
(156,58,c),
(212,0,l)
);
}
);
width = 754;
},
{
guides = (
{
pos = (-53,485);
},
{
pos = (-53,165);
}
);
layerId = m003;
name = Black;
shapes = (
{
closed = 1;
nodes = (
(583,377,o),
(685,499,o),
(685,620,cs),
(685,719,o),
(617,771,o),
(519,771,cs),
(386,771,o),
(299,685,o),
(254,584,c),
(274,509,l),
(317,568,o),
(372,594,o),
(414,594,cs),
(449,594,o),
(474,576,o),
(474,543,cs),
(474,500,o),
(465,453,o),
(276,388,c),
(305,308,l)
);
},
{
closed = 1;
nodes = (
(278,0,l),
(320,316,o),
(324,437,o),
(324,767,c),
(47,725,l),
(80,435,o),
(84,277,o),
(74,-8,c)
);
},
{
closed = 1;
nodes = (
(623,32,o),
(745,147,o),
(745,294,cs),
(745,477,o),
(470,475,o),
(310,378,c),
(305,305,l),
(367,319,o),
(496,307,o),
(496,230,cs),
(496,147,o),
(370,124,o),
(254,124,c),
(278,0,l)
);
}
);
width = 777;
},
{
layerId = "68C5B637-35C1-4638-A7C2-DD6A34998814";
name = Black;
shapes = (
{
closed = 1;
nodes = (
(525,378,o),
(637,487,o),
(637,629,cs),
(637,724,o),
(582,791,o),
(475,791,cs),
(374,791,o),
(241,723,o),
(190,583,c),
(213,520,l),
(252,630,o),
(355,672,o),
(425,672,cs),
(481,672,o),
(517,638,o),
(517,595,cs),
(517,515,o),
(450,438,o),
(189,365,c),
(221,306,l)
);
},
{
closed = 1;
nodes = (
(229,0,l),
(244,270,o),
(246,455,o),
(235,753,c),
(83,729,l),
(109,511,o),
(116,264,o),
(107,-5,c)
);
},
{
closed = 1;
nodes = (
(562,8,o),
(703,120,o),
(703,268,cs),
(703,468,o),
(421,456,o),
(222,341,c),
(218,295,l),
(337,336,o),
(564,384,o),
(564,241,cs),
(564,159,o),
(456,75,o),
(181,75,c),
(229,0,l)
);
}
);
width = 759.75;
},
{
layerId = "267D1DB6-4F39-4280-86D9-F184EF0BD2F7";
name = Black;
shapes = (
{
closed = 1;
nodes = (
(544,378,o),
(653,491,o),
(653,626,cs),
(653,722,o),
(594,784,o),
(490,784,cs),
(378,784,o),
(260,710,o),
(211,583,c),
(233,516,l),
(274,609,o),
(361,646,o),
(421,646,cs),
(470,646,o),
(503,617,o),
(503,578,cs),
(503,510,o),
(455,443,o),
(218,373,c),
(249,307,l)
);
},
{
closed = 1;
nodes = (
(245,0,l),
(269,285,o),
(272,449,o),
(265,758,c),
(71,728,l),
(99,486,o),
(105,268,o),
(96,-6,c)
);
},
{
closed = 1;
nodes = (
(582,16,o),
(717,129,o),
(717,277,cs),
(717,471,o),
(437,462,o),
(251,353,c),
(247,298,l),
(347,330,o),
(541,358,o),
(541,237,cs),
(541,155,o),
(427,91,o),
(205,91,c),
(245,0,l)
);
}
);
width = 765.5;
},
{
layerId = "34FE6C3C-97E7-412D-B228-A13225540168";
name = Black;
shapes = (
{
closed = 1;
nodes = (
(564,378,o),
(669,495,o),
(669,623,cs),
(669,721,o),
(606,778,o),
(505,778,cs),
(382,778,o),
(280,698,o),
(233,584,c),
(254,513,l),
(296,589,o),
(367,620,o),
(418,620,cs),
(460,620,o),
(489,597,o),
(489,561,cs),
(489,505,o),
(460,448,o),
(247,381,c),
(277,308,l)
);
},
{
closed = 1;
nodes = (
(262,0,l),
(295,301,o),
(298,443,o),
(295,763,c),
(59,727,l),
(90,461,o),
(95,273,o),
(85,-7,c)
);
},
{
closed = 1;
nodes = (
(603,24,o),
(731,138,o),
(731,286,cs),
(731,474,o),
(454,469,o),
(281,366,c),
(276,302,l),
(357,325,o),
(519,333,o),
(519,234,cs),
(519,151,o),
(399,108,o),
(230,108,c),
(262,0,l)
);
}
);
width = 771.25;
}
);
metricLeft = I;
unicode = 66;
},
{
color = 3;
glyphname = C;
kernLeft = O_1;
kernRight = C_2;
lastChange = "2022-08-23 06:31:59 +0000";
layers = (
{
anchors = (
{
name = bottom;
pos = (434,-2);
},
{
name = cedilla;
pos = (454,28);
},
{
name = top;
pos = (460,800);
}
);
guides = (
{
pos = (19,497);
},
{
pos = (19,165);
}
);
layerId = m002;
name = Black;
shapes = (
{
closed = 1;
nodes = (
(477,-2,o),
(543,9,o),
(604,46,c),
(603,109,l),
(543,78,o),
(490,64,o),
(409,64,cs),
(287,64,o),
(165,164,o),
(165,353,cs),
(165,539,o),
(292,661,o),
(446,661,cs),
(501,661,o),
(560,650,o),
(617,622,c),
(628,700,l),
(579,731,o),
(512,748,o),
(441,748,cs),
(264,748,o),
(65,638,o),
(65,356,cs),
(65,138,o),
(231,-2,o),
(412,-2,cs)
);
}
);
width = 673;
},
{
anchors = (
{
name = bottom;
pos = (451,-2);
},
{
name = cedilla;
pos = (471,28);
},
{
name = top;
pos = (477,800);
}
);
guides = (
{
pos = (36,497);
},
{
pos = (36,165);
}
);
layerId = m003;
name = Black;
shapes = (
{
closed = 1;
nodes = (
(517,-2,o),
(595,16,o),
(667,54,c),
(667,152,l),
(616,130,o),
(558,117,o),
(503,117,cs),
(400,117,o),
(299,161,o),
(299,345,cs),
(299,460,o),
(385,557,o),
(517,557,cs),
(567,557,o),
(620,549,o),
(671,531,c),
(695,700,l),
(637,731,o),
(558,748,o),
(475,748,cs),
(267,748,o),
(32,638,o),
(32,356,cs),
(32,138,o),
(228,-2,o),
(441,-2,cs)
);
}
);
width = 722;
},
{
anchors = (
{
name = bottom;
pos = (438,-2);
},
{
name = cedilla;
pos = (458,28);
},
{
name = top;
pos = (464,800);
}
);
layerId = "68C5B637-35C1-4638-A7C2-DD6A34998814";
name = Black;
shapes = (
{
closed = 1;
nodes = (
(487,-2,o),
(556,11,o),
(620,48,c),
(619,120,l),
(561,91,o),
(507,77,o),
(433,77,cs),
(315,77,o),
(199,163,o),
(199,351,cs),
(199,519,o),
(315,635,o),
(464,635,cs),
(518,635,o),
(575,625,o),
(631,599,c),
(645,700,l),
(594,731,o),
(524,748,o),
(450,748,cs),
(265,748,o),
(57,638,o),
(57,356,cs),
(57,138,o),
(230,-2,o),
(419,-2,cs)
);
}
);
width = 685.25;
},
{
anchors = (
{
name = bottom;
pos = (442,-2);
},
{
name = cedilla;
pos = (462,28);
},
{
name = top;
pos = (468,800);
}
);
layerId = "267D1DB6-4F39-4280-86D9-F184EF0BD2F7";
name = Black;
shapes = (
{
closed = 1;
nodes = (
(497,-2,o),
(569,13,o),
(636,50,c),
(635,131,l),
(579,104,o),
(524,90,o),
(456,90,cs),
(343,90,o),
(232,162,o),
(232,349,cs),
(232,499,o),
(338,609,o),
(482,609,cs),
(534,609,o),
(590,600,o),
(644,576,c),
(662,700,l),
(608,731,o),
(535,748,o),
(458,748,cs),
(266,748,o),
(49,638,o),
(49,356,cs),
(49,138,o),
(229,-2,o),
(426,-2,cs)
);
}
);
width = 697.5;
},
{
anchors = (
{
name = bottom;
pos = (447,-2);
},
{
name = cedilla;
pos = (467,28);
},
{
name = top;
pos = (473,800);
}
);
layerId = "34FE6C3C-97E7-412D-B228-A13225540168";
name = Black;
shapes = (
{
closed = 1;
nodes = (
(507,-2,o),
(582,15,o),
(652,52,c),
(651,142,l),
(598,117,o),
(541,104,o),
(480,104,cs),
(372,104,o),
(266,162,o),
(266,347,cs),
(266,480,o),
(362,583,o),
(500,583,cs),
(551,583,o),
(605,575,o),
(658,554,c),
(679,700,l),
(623,731,o),
(547,748,o),
(467,748,cs),
(267,748,o),
(41,638,o),
(41,356,cs),
(41,138,o),
(229,-2,o),
(434,-2,cs)
);
}
);
width = 709.75;
}
);
metricLeft = O;
unicode = 67;
},
{
color = 3;
glyphname = D;
kernLeft = I_1;
kernRight = D_2;
lastChange = "2022-08-23 06:38:16 +0000";
layers = (
{
anchors = (
{
name = bottom;
pos = (240,0);
},
{
name = center;
pos = (240,325);
},
{
name = top;
pos = (395,800);
}
);
layerId = m002;
name = Black;
shapes = (
{
closed = 1;
nodes = (
(161,493,l),
(248,644,o),
(390,675,o),
(459,675,cs),
(562,675,o),
(596,580,o),
(596,506,cs),
(596,351,o),
(425,117,o),
(195,51,c),
(212,0,l),
(494,85,o),
(699,336,o),
(699,522,cs),
(699,668,o),
(619,758,o),
(488,758,cs),
(351,758,o),
(197,679,o),
(120,559,c)
);
},
{
closed = 1;
nodes = (
(212,0,l),
(219,255,o),
(220,461,o),
(205,748,c),
(95,730,l),
(119,536,o),
(127,259,o),
(118,-4,c)
);
}
);
width = 764;
},
{
anchors = (
{
name = bottom;
pos = (244,0);
},
{
name = center;
pos = (244,325);
},
{
name = top;
pos = (399,800);
}
);
layerId = m003;
name = Black;
shapes = (
{
closed = 1;
nodes = (
(179,446,l),
(267,591,o),
(347,626,o),
(426,626,cs),
(493,626,o),
(533,565,o),
(533,491,cs),
(533,379,o),
(458,227,o),
(273,125,c),
(278,0,l),
(596,117,o),
(756,325,o),
(756,497,cs),
(756,643,o),
(662,758,o),
(508,758,cs),
(395,758,o),
(259,728,o),
(114,542,c)
);
},
{
closed = 1;
nodes = (
(278,0,l),
(320,316,o),
(324,437,o),
(324,767,c),
(47,725,l),
(79,445,o),
(84,284,o),
(74,-8,c)
);
}
);
width = 788;
},
{
anchors = (
{
name = bottom;
pos = (241,0);
},
{
name = center;
pos = (241,325);
},
{
name = top;
pos = (396,800);
}
);
layerId = "68C5B637-35C1-4638-A7C2-DD6A34998814";
name = Black;
shapes = (
{
closed = 1;
nodes = (
(166,481,l),
(253,631,o),
(379,663,o),
(451,663,cs),
(545,663,o),
(580,576,o),
(580,502,cs),
(580,358,o),
(433,145,o),
(215,70,c),
(229,0,l),
(520,93,o),
(713,333,o),
(713,516,cs),
(713,662,o),
(630,758,o),
(493,758,cs),
(362,758,o),
(213,691,o),
(119,555,c)
);
},
{
closed = 1;
nodes = (
(229,0,l),
(244,270,o),
(246,455,o),
(235,753,c),
(83,729,l),
(109,513,o),
(116,265,o),
(107,-5,c)
);
}
);
width = 769;
},
{
anchors = (
{
name = bottom;
pos = (242,0);
},
{
name = center;
pos = (242,325);
},
{
name = top;
pos = (397,800);
}
);
layerId = "267D1DB6-4F39-4280-86D9-F184EF0BD2F7";
name = Black;
shapes = (
{
closed = 1;
nodes = (
(170,469,l),
(258,618,o),
(368,651,o),
(443,651,cs),
(528,651,o),
(564,572,o),
(564,498,cs),
(564,365,o),
(441,172,o),
(234,88,c),
(245,0,l),
(545,101,o),
(727,330,o),
(727,510,cs),
(727,656,o),
(641,758,o),
(498,758,cs),
(373,758,o),
(228,703,o),
(117,551,c)
);
},
{
closed = 1;
nodes = (
(245,0,l),
(269,285,o),
(272,449,o),
(265,758,c),
(71,728,l),
(99,490,o),
(105,271,o),
(96,-6,c)
);
}
);
width = 776;
},
{
anchors = (
{
name = bottom;
pos = (243,0);
},
{
name = center;
pos = (243,325);
},
{
name = top;
pos = (398,800);
}
);
layerId = "34FE6C3C-97E7-412D-B228-A13225540168";
name = Black;
shapes = (
{
closed = 1;
nodes = (
(175,458,l),
(263,605,o),
(358,639,o),
(435,639,cs),
(511,639,o),
(549,569,o),
(549,495,cs),
(549,372,o),
(450,200,o),
(254,107,c),
(262,0,l),
(571,109,o),
(742,328,o),
(742,504,cs),
(742,650,o),
(652,758,o),
(503,758,cs),
(384,758,o),
(244,716,o),
(116,547,c)
);
},
{
closed = 1;
nodes = (
(262,0,l),
(295,301,o),
(298,443,o),
(295,763,c),
(59,727,l),
(89,468,o),
(95,278,o),
(85,-7,c)
);
}
);
width = 782;
}
);
metricLeft = I;
metricRight = O;
unicode = 68;
},
{
glyphname = Eth;
kernLeft = Eth;
kernRight = D_2;
lastChange = "2022-08-23 06:38:27 +0000";
layers = (
{
layerId = m002;
name = Black;
shapes = (
{
ref = D;
},
{
closed = 1;
nodes = (
(398,310,l),
(398,373,l),
(20,384,l),
(19,298,l)
);
}
);
width = 764;
},
{
layerId = m003;
name = Black;
shapes = (
{
ref = D;
},
{
closed = 1;
nodes = (
(432,295,l),
(432,388,l),
(-13,404,l),
(-15,278,l)
);
}
);
width = 788;
},
{
layerId = "68C5B637-35C1-4638-A7C2-DD6A34998814";
name = Black;
shapes = (
{
alignment = -1;
ref = D;
},
{
closed = 1;
nodes = (
(407,306,l),
(407,377,l),
(12,389,l),
(11,293,l)
);
}
);
width = 769;
},
{
layerId = "267D1DB6-4F39-4280-86D9-F184EF0BD2F7";
name = Black;
shapes = (
{
alignment = -1;
ref = D;
},
{
closed = 1;
nodes = (
(415,302,l),
(415,381,l),
(4,394,l),
(2,288,l)
);
}
);
width = 776;
},
{
layerId = "34FE6C3C-97E7-412D-B228-A13225540168";
name = Black;
shapes = (
{
alignment = -1;
ref = D;
},
{
closed = 1;
nodes = (
(424,299,l),
(424,385,l),
(-4,399,l),
(-6,283,l)
);
}
);
width = 782;
}
);
metricRight = O;
unicode = 208;
},
{
color = 3;
glyphname = E;
kernLeft = I_1;
kernRight = E_2;
lastChange = "2022-08-23 06:31:59 +0000";
layers = (
{
anchors = (
{
name = bottom;
pos = (352,-30);
},
{
name = ogonek;
pos = (567,7);
},
{
name = top;
pos = (352,800);
}
);
layerId = m002;
name = Black;
shapes = (
{
closed = 1;
nodes = (
(201,28,l),
(208,283,o),
(220,452,o),
(205,739,c),
(95,736,l),
(119,542,o),
(124,235,o),
(111,15,c)
);
},
{
closed = 1;
nodes = (
(583,83,l),
(440,69,o),
(261,58,o),
(155,73,c),
(111,15,l),
(242,3,o),
(480,-5,o),
(583,-5,c)
);
},
{
closed = 1;
nodes = (
(469,404,l),
(388,402,o),
(282,399,o),
(176,385,c),
(176,326,l),
(296,335,o),
(381,333,o),
(472,324,c)
);
},
{
closed = 1;
nodes = (
(566,770,l),
(467,767,o),
(203,749,o),
(95,736,c),
(176,681,l),
(242,690,o),
(423,705,o),
(566,684,c)
);
}
);
width = 628;
},
{
anchors = (
{
name = bottom;
pos = (347,-30);
},
{
name = ogonek;
pos = (562,7);
},
{
name = top;
pos = (347,800);
}
);
layerId = m003;
name = Black;
shapes = (
{
closed = 1;
nodes = (
(269,47,l),
(313,343,o),
(314,443,o),
(314,714,c),
(47,736,l),
(78,437,o),
(78,325,o),
(66,13,c)
);
},
{
closed = 1;
nodes = (
(621,161,l),
(453,137,o),
(242,131,o),
(117,131,c),
(66,13,l),
(239,1,o),
(500,-5,o),
(621,-5,c)
);
},
{
closed = 1;
nodes = (
(487,424,l),
(406,422,o),
(297,415,o),
(190,401,c),
(191,289,l),
(312,301,o),
(414,304,o),
(490,288,c)
);
},
{
closed = 1;
nodes = (
(601,770,l),
(484,767,o),
(174,749,o),
(47,736,c),
(142,607,l),
(228,607,o),
(433,618,o),
(601,584,c)
);
}
);
width = 648;
},
{
anchors = (
{
name = bottom;
pos = (351,-30);
},
{
name = ogonek;
pos = (566,7);
},
{
name = top;
pos = (351,800);
}
);
layerId = "68C5B637-35C1-4638-A7C2-DD6A34998814";
name = Black;
shapes = (
{
closed = 1;
nodes = (
(218,33,l),
(234,298,o),
(244,450,o),
(232,733,c),
(83,736,l),
(109,516,o),
(113,258,o),
(100,15,c)
);
},
{
closed = 1;
nodes = (
(593,103,l),
(443,86,o),
(256,76,o),
(146,88,c),
(100,15,l),
(241,3,o),
(485,-5,o),
(593,-5,c)
);
},
{
closed = 1;
nodes = (
(474,409,l),
(393,407,o),
(286,403,o),
(180,389,c),
(180,317,l),
(300,327,o),
(389,326,o),
(477,315,c)
);
},
{
closed = 1;
nodes = (
(575,770,l),
(471,767,o),
(196,749,o),
(83,736,c),
(168,663,l),
(239,669,o),
(426,683,o),
(575,659,c)
);
}
);
width = 633;
},
{
anchors = (
{
name = bottom;
pos = (350,-30);
},
{
name = ogonek;
pos = (565,7);
},
{
name = top;
pos = (350,800);
}
);
layerId = "267D1DB6-4F39-4280-86D9-F184EF0BD2F7";
name = Black;
shapes = (
{
closed = 1;
nodes = (
(235,38,l),
(260,313,o),
(267,448,o),
(259,727,c),
(71,736,l),
(99,490,o),
(101,280,o),
(89,14,c)
);
},
{
closed = 1;
nodes = (
(602,122,l),
(446,103,o),
(251,94,o),
(136,102,c),
(89,14,l),
(240,2,o),
(490,-5,o),
(602,-5,c)
);
},
{
closed = 1;
nodes = (
(478,414,l),
(397,412,o),
(290,407,o),
(183,393,c),
(184,308,l),
(304,318,o),
(397,319,o),
(481,306,c)
);
},
{
closed = 1;
nodes = (
(584,770,l),
(475,767,o),
(189,749,o),
(71,736,c),
(159,644,l),
(235,648,o),
(428,661,o),
(584,634,c)
);
}
);
width = 638;
},
{
anchors = (
{
name = bottom;
pos = (349,-30);
},
{
name = ogonek;
pos = (564,7);
},
{
name = top;
pos = (349,800);
}
);
layerId = "34FE6C3C-97E7-412D-B228-A13225540168";
name = Black;
shapes = (
{
closed = 1;
nodes = (
(252,43,l),
(287,328,o),
(291,446,o),
(287,721,c),
(59,736,l),
(89,464,o),
(90,303,o),
(78,14,c)
);
},
{
closed = 1;
nodes = (
(612,142,l),
(450,120,o),
(247,113,o),
(127,117,c),
(78,14,l),
(240,2,o),
(495,-5,o),
(612,-5,c)
);
},
{
closed = 1;
nodes = (
(483,419,l),
(402,417,o),
(294,411,o),
(187,397,c),
(188,299,l),
(308,310,o),
(406,312,o),
(486,297,c)
);
},
{
closed = 1;
nodes = (
(593,770,l),
(480,767,o),
(182,749,o),
(59,736,c),
(151,626,l),
(232,628,o),
(431,640,o),
(593,609,c)
);
}
);
width = 643;
}
);
metricLeft = I;
unicode = 69;
},
{
color = 3;
glyphname = F;
kernLeft = I_1;
kernRight = F_2;
lastChange = "2022-08-23 06:31:59 +0000";
layers = (
{
layerId = m002;
name = Black;
shapes = (
{
closed = 1;
nodes = (
(201,17,l),
(208,272,o),
(220,452,o),
(205,739,c),
(95,736,l),
(119,542,o),
(124,224,o),
(111,4,c)
);
},
{
closed = 1;
nodes = (
(452,404,l),
(374,402,o),
(273,399,o),
(172,385,c),
(172,326,l),
(287,335,o),
(368,333,o),
(454,324,c)
);
},
{
closed = 1;
nodes = (
(545,770,l),
(451,767,o),
(198,749,o),
(95,736,c),
(172,681,l),
(235,690,o),
(409,705,o),
(545,684,c)
);
}
);
width = 590;
},
{
layerId = m003;
name = Black;
shapes = (
{
closed = 1;
nodes = (
(269,39,l),
(313,335,o),
(324,443,o),
(324,714,c),
(47,736,l),
(78,437,o),
(78,317,o),
(66,5,c)
);
},
{
closed = 1;
nodes = (
(480,424,l),
(404,408,o),
(312,411,o),
(191,423,c),
(190,311,l),
(297,297,o),
(396,290,o),
(477,288,c)
);
},
{
closed = 1;
nodes = (
(591,770,l),
(474,767,o),
(174,749,o),
(47,736,c),
(142,607,l),
(228,607,o),
(403,628,o),
(571,584,c)
);
}
);
width = 618;
},
{
layerId = "68C5B637-35C1-4638-A7C2-DD6A34998814";
name = Black;
shapes = (
{
closed = 1;
nodes = (
(218,23,l),
(234,288,o),
(246,450,o),
(235,733,c),
(83,736,l),
(109,516,o),
(113,247,o),
(100,4,c)
);
},
{
closed = 1;
nodes = (
(459,409,l),
(382,404,o),
(283,402,o),
(177,395,c),
(177,322,l),
(290,326,o),
(375,322,o),
(460,315,c)
);
},
{
closed = 1;
nodes = (
(557,770,l),
(457,767,o),
(192,749,o),
(83,736,c),
(165,663,l),
(233,669,o),
(408,686,o),
(552,659,c)
);
}
);
width = 597;
},
{
layerId = "267D1DB6-4F39-4280-86D9-F184EF0BD2F7";
name = Black;
shapes = (
{
closed = 1;
nodes = (
(235,28,l),
(260,304,o),
(272,448,o),
(265,727,c),
(71,736,l),
(99,490,o),
(101,270,o),
(89,4,c)
);
},
{
closed = 1;
nodes = (
(466,414,l),
(389,405,o),
(293,405,o),
(182,404,c),
(181,318,l),
(292,316,o),
(382,311,o),
(466,306,c)
);
},
{
closed = 1;
nodes = (
(568,770,l),
(463,767,o),
(186,749,o),
(71,736,c),
(157,644,l),
(231,648,o),
(406,667,o),
(558,634,c)
);
}
);
width = 604;
},
{
layerId = "34FE6C3C-97E7-412D-B228-A13225540168";
name = Black;
shapes = (
{
closed = 1;
nodes = (
(252,34,l),
(287,320,o),
(298,446,o),
(295,721,c),
(59,736,l),
(89,464,o),
(90,294,o),
(78,5,c)
);
},
{
closed = 1;
nodes = (
(473,419,l),
(397,407,o),
(303,408,o),
(187,414,c),
(186,315,l),
(295,307,o),
(389,301,o),
(472,297,c)
);
},
{
closed = 1;
nodes = (
(580,770,l),
(469,767,o),
(180,749,o),
(59,736,c),
(150,626,l),
(230,628,o),
(405,648,o),
(565,609,c)
);
}
);
width = 611;
}
);
metricLeft = I;
unicode = 70;
},
{
color = 3;
glyphname = G;
kernLeft = O_1;
kernRight = G_2;
lastChange = "2022-08-23 06:31:59 +0000";
layers = (
{
anchors = (
{
name = bottom;
pos = (368,-30);
},
{
name = top;
pos = (491,800);
}
);
layerId = m002;
name = Black;
shapes = (
{
closed = 1;
nodes = (
(543,0,o),
(720,144,o),
(720,286,cs),
(720,400,o),
(663,444,o),
(572,444,cs),
(519,444,o),
(455,426,o),
(387,384,c),
(415,278,l),
(462,316,o),
(532,351,o),
(588,351,cs),
(637,351,o),
(666,326,o),
(666,270,cs),
(666,196,o),
(559,80,o),
(380,80,cs),
(265,80,o),
(164,159,o),
(164,309,cs),
(164,551,o),
(329,695,o),
(468,695,cs),
(532,695,o),
(577,689,o),
(626,668,c),
(626,729,l),
(576,746,o),
(527,754,o),
(481,754,cs),
(230,754,o),
(65,518,o),
(65,312,cs),
(65,147,o),
(155,0,o),
(370,0,cs)
);
}
);
width = 785;
},
{
anchors = (
{
name = bottom;
pos = (371,-30);
},
{
name = top;
pos = (494,800);
}
);
layerId = m003;
name = Black;
shapes = (
{
closed = 1;
nodes = (
(528,0,o),
(759,144,o),
(759,345,cs),
(759,450,o),
(677,513,o),
(576,513,cs),
(517,513,o),
(446,495,o),
(370,453,c),
(427,254,l),
(480,292,o),
(563,333,o),
(610,333,cs),
(631,333,o),
(644,325,o),
(644,305,cs),
(644,231,o),
(535,192,o),
(439,192,cs),
(311,192,o),
(272,275,o),
(272,368,cs),
(272,481,o),
(342,607,o),
(506,607,cs),
(551,607,o),
(600,598,o),
(655,577,c),
(655,729,l),
(599,746,o),
(545,754,o),
(494,754,cs),
(215,754,o),
(32,518,o),
(32,312,cs),
(32,147,o),
(132,0,o),
(371,0,cs)
);
}
);
width = 791;
},
{
anchors = (
{
name = bottom;
pos = (369,-30);
},
{
name = top;
pos = (492,800);
}
);
layerId = "68C5B637-35C1-4638-A7C2-DD6A34998814";
name = Black;
shapes = (
{
closed = 1;
nodes = (
(539,0,o),
(730,144,o),
(730,301,cs),
(730,413,o),
(667,461,o),
(573,461,cs),
(519,461,o),
(453,443,o),
(383,401,c),
(418,272,l),
(467,310,o),
(540,347,o),
(594,347,cs),
(636,347,o),
(661,326,o),
(661,279,cs),
(661,205,o),
(553,108,o),
(395,108,cs),
(277,108,o),
(191,188,o),
(191,324,cs),
(191,534,o),
(332,673,o),
(478,673,cs),
(537,673,o),
(583,666,o),
(633,645,c),
(633,729,l),
(582,746,o),
(532,754,o),
(484,754,cs),
(226,754,o),
(57,518,o),
(57,312,cs),
(57,147,o),
(149,0,o),
(370,0,cs)
);
}
);
width = 786.5;
},
{
anchors = (
{
name = bottom;
pos = (370,-30);
},
{
name = top;
pos = (493,800);
}
);
layerId = "267D1DB6-4F39-4280-86D9-F184EF0BD2F7";
name = Black;
shapes = (
{
closed = 1;
nodes = (
(535,0,o),
(740,144,o),
(740,316,cs),
(740,425,o),
(670,478,o),
(574,478,cs),
(518,478,o),
(451,460,o),
(379,418,c),
(421,266,l),
(471,304,o),
(548,342,o),
(599,342,cs),
(634,342,o),
(655,326,o),
(655,288,cs),
(655,214,o),
(547,136,o),
(410,136,cs),
(288,136,o),
(218,217,o),
(218,339,cs),
(218,516,o),
(335,651,o),
(487,651,cs),
(542,651,o),
(589,643,o),
(640,622,c),
(640,729,l),
(588,746,o),
(536,754,o),
(487,754,cs),
(222,754,o),
(49,518,o),
(49,312,cs),
(49,147,o),
(143,0,o),
(370,0,cs)
);
}
);
width = 788;
},
{
anchors = (
{
name = bottom;
pos = (371,-30);
},
{
name = top;
pos = (494,800);
}
);
layerId = "34FE6C3C-97E7-412D-B228-A13225540168";
name = Black;
shapes = (
{
closed = 1;
nodes = (
(532,0,o),
(750,144,o),
(750,331,cs),
(750,438,o),
(674,496,o),
(575,496,cs),
(518,496,o),
(449,478,o),
(375,436,c),
(424,260,l),
(476,298,o),
(556,338,o),
(605,338,cs),
(633,338,o),
(650,326,o),
(650,297,cs),
(650,223,o),
(541,164,o),
(425,164,cs),
(300,164,o),
(245,246,o),
(245,354,cs),
(245,499,o),
(339,629,o),
(497,629,cs),
(547,629,o),
(595,621,o),
(648,600,c),
(648,729,l),
(594,746,o),
(541,754,o),
(491,754,cs),
(219,754,o),
(41,518,o),
(41,312,cs),
(41,147,o),
(138,0,o),
(371,0,cs)
);
}
);
width = 789.5;
}
);
metricLeft = O;
unicode = 71;
},
{
color = 0;
glyphname = H;
kernLeft = I_1;
kernRight = I_2;
lastChange = "2022-08-23 06:38:45 +0000";
layers = (
{
guides = (
{
angle = 0.8249;
pos = (-59,229);
showMeasurement = 1;
}
);
layerId = m002;
name = Black;
shapes = (
{
closed = 1;
nodes = (
(201,7,l),
(218,232,o),
(220,517,o),
(205,757,c),
(95,734,l),
(124,472,o),
(126,258,o),
(118,-9,c)
);
},
{
closed = 1;
nodes = (
(671,424,l),
(531,368,o),
(246,378,o),
(145,392,c),
(138,332,l),
(271,312,o),
(543,309,o),
(702,338,c)
);
},
{
closed = 1;
nodes = (
(706,7,l),
(723,232,o),
(725,517,o),
(710,757,c),
(600,734,l),
(630,472,o),
(631,258,o),
(623,-9,c)
);
}
);
width = 815;
},
{
guides = (
{
angle = 0.8249;
pos = (-51,229);
showMeasurement = 1;
}
);
layerId = m003;
name = Black;
shapes = (
{
closed = 1;
nodes = (
(278,18,l),
(318,318,o),
(328,492,o),
(324,767,c),
(47,725,l),
(77,463,o),
(84,249,o),
(74,-18,c)
);
},
{
closed = 1;
nodes = (
(722,456,l),
(557,391,o),
(225,398,o),
(106,412,c),
(96,341,l),
(223,299,o),
(574,306,o),
(762,335,c)
);
},
{
closed = 1;
nodes = (
(759,30,l),
(793,348,o),
(795,482,o),
(785,750,c),
(509,700,l),
(552,398,o),
(556,304,o),
(556,-12,c)
);
}
);
width = 837;
},
{
layerId = "68C5B637-35C1-4638-A7C2-DD6A34998814";
name = Black;
shapes = (
{
closed = 1;
nodes = (
(220,10,l),
(243,254,o),
(247,511,o),
(235,760,c),
(83,732,l),
(112,470,o),
(116,256,o),
(107,-11,c)
);
},
{
closed = 1;
nodes = (
(684,432,l),
(538,374,o),
(241,383,o),
(135,397,c),
(128,334,l),
(259,309,o),
(551,308,o),
(717,337,c)
);
},
{
closed = 1;
nodes = (
(719,13,l),
(741,261,o),
(743,508,o),
(729,755,c),
(577,726,l),
(611,454,o),
(612,270,o),
(606,-10,c)
);
}
);
width = 820.5;
},
{
layerId = "267D1DB6-4F39-4280-86D9-F184EF0BD2F7";
name = Black;
shapes = (
{
closed = 1;
nodes = (
(239,13,l),
(268,275,o),
(274,505,o),
(265,762,c),
(71,730,l),
(100,468,o),
(105,254,o),
(96,-13,c)
);
},
{
closed = 1;
nodes = (
(697,440,l),
(544,380,o),
(236,388,o),
(125,402,c),
(117,336,l),
(247,306,o),
(559,307,o),
(732,336,c)
);
},
{
closed = 1;
nodes = (
(732,19,l),
(758,290,o),
(760,499,o),
(748,753,c),
(554,717,l),
(591,435,o),
(593,281,o),
(589,-11,c)
);
}
);
width = 827;
},
{
layerId = "34FE6C3C-97E7-412D-B228-A13225540168";
name = Black;
shapes = (
{
closed = 1;
nodes = (
(259,16,l),
(293,297,o),
(301,499,o),
(295,765,c),
(59,728,l),
(89,466,o),
(95,252,o),
(85,-15,c)
);
},
{
closed = 1;
nodes = (
(710,448,l),
(551,386,o),
(231,393,o),
(116,407,c),
(107,339,l),
(235,303,o),
(567,307,o),
(747,336,c)
);
},
{
closed = 1;
nodes = (
(746,25,l),
(776,319,o),
(778,491,o),
(767,752,c),
(532,709,l),
(572,417,o),
(575,293,o),
(573,-11,c)
);
}
);
width = 832;
}
);
metricLeft = I;
metricRight = I;
unicode = 72;
},
{
glyphname = Hbar;
lastChange = "2022-08-23 06:31:59 +0000";
layers = (
{
layerId = m002;
name = Black;
shapes = (
{
closed = 1;
nodes = (
(814,593,l),
(806,659,l),
(-5,617,l),
(2,527,l)
);
},
{
ref = H;
}
);
width = 837;
},
{
layerId = m003;
name = Black;
shapes = (
{
closed = 1;
nodes = (
(814,592,l),
(806,685,l),
(-5,627,l),
(2,501,l)
);
},
{
ref = H;
}
);
width = 837;
},
{
layerId = "68C5B637-35C1-4638-A7C2-DD6A34998814";
name = Black;
shapes = (
{
closed = 1;
nodes = (
(814,593,l),
(806,666,l),
(-5,620,l),
(2,521,l)
);
},
{
alignment = -1;
ref = H;
}
);
width = 837;
},
{
layerId = "267D1DB6-4F39-4280-86D9-F184EF0BD2F7";
name = Black;
shapes = (
{
closed = 1;
nodes = (
(814,593,l),
(806,672,l),
(-5,622,l),
(2,514,l)
);
},
{
alignment = -1;
ref = H;
}
);
width = 837;
},
{
layerId = "34FE6C3C-97E7-412D-B228-A13225540168";
name = Black;
shapes = (
{
closed = 1;
nodes = (
(814,593,l),
(806,679,l),
(-5,625,l),
(2,508,l)
);
},
{
alignment = -1;
ref = H;
}
);
width = 837;
}
);
unicode = 294;
},
{
color = 0;
glyphname = I;
kernLeft = I_1;
kernRight = I_2;
lastChange = "2022-08-23 06:31:59 +0000";
layers = (
{
anchors = (
{
name = bottom;
pos = (167,-30);
},
{
name = ogonek;
pos = (198,7);
},
{
name = top;
pos = (140,800);
}
);
layerId = m002;
name = Black;
shapes = (
{
closed = 1;
nodes = (
(198,7,l),
(215,232,o),
(222,515,o),
(207,755,c),
(95,734,l),
(126,475,o),
(126,259,o),
(118,-8,c)
);
}
);
width = 310;
},
{
anchors = (
{
name = bottom;
pos = (195,-30);
},
{
name = ogonek;
pos = (261,15);
},
{
name = top;
pos = (168,800);
}
);
layerId = m003;
name = Black;
shapes = (
{
closed = 1;
nodes = (
(278,18,l),
(318,318,o),
(328,492,o),
(324,767,c),
(47,725,l),
(77,463,o),
(84,249,o),
(74,-18,c)
);
}
);
width = 372;
},
{
anchors = (
{
name = bottom;
pos = (174,-30);
},
{
name = ogonek;
pos = (214,9);
},
{
name = top;
pos = (147,800);
}
);
layerId = "68C5B637-35C1-4638-A7C2-DD6A34998814";
name = Black;
shapes = (
{
closed = 1;
nodes = (
(218,10,l),
(241,254,o),
(249,509,o),
(236,758,c),
(83,732,l),
(114,472,o),
(116,257,o),
(107,-10,c)
);
}
);
width = 325.5;
},
{
anchors = (
{
name = bottom;
pos = (181,-30);
},
{
name = ogonek;
pos = (230,11);
},
{
name = top;
pos = (154,800);
}
);
layerId = "267D1DB6-4F39-4280-86D9-F184EF0BD2F7";
name = Black;
shapes = (
{
closed = 1;
nodes = (
(238,13,l),
(267,275,o),
(275,503,o),
(265,761,c),
(71,730,l),
(102,469,o),
(105,254,o),
(96,-13,c)
);
}
);
width = 341;
},
{
anchors = (
{
name = bottom;
pos = (188,-30);
},
{
name = ogonek;
pos = (246,13);
},
{
name = top;
pos = (161,800);
}
);
layerId = "34FE6C3C-97E7-412D-B228-A13225540168";
name = Black;
shapes = (
{
closed = 1;
nodes = (
(258,16,l),
(293,297,o),
(302,498,o),
(295,764,c),
(59,728,l),
(90,466,o),
(95,252,o),
(85,-15,c)
);
}
);
width = 356.5;
}
);
unicode = 73;
},
{
color = 0;
glyphname = J;
kernLeft = J_1;
kernRight = J_2;
lastChange = "2022-08-23 06:38:56 +0000";
layers = (
{
anchors = (
{
name = bottom;
pos = (250,0);
},
{
name = top;
pos = (250,800);
}
);
layerId = m002;
name = Black;
shapes = (
{
closed = 1;
nodes = (
(351,88,o),
(364,305,cs),
(372,444,o),
(370,608,o),
(362,768,c),
(244,740,l),
(276,503,o),
(278,392,o),
(278,300,cs),
(278,178,o),
(267,94,o),
(128,94,cs),
(105,94,o),
(78,97,o),
(45,105,c),
(52,-3,l),
(241,-3,o)
);
}
);
width = 464;
},
{
anchors = (
{
name = bottom;
pos = (269,0);
},
{
name = top;
pos = (269,800);
}
);
layerId = m003;
name = Black;
shapes = (
{
closed = 1;
nodes = (
(415,194,o),
(415,511,cs),
(415,594,o),
(411,682,o),
(409,768,c),
(153,740,l),
(196,569,o),
(231,416,o),
(231,324,cs),
(231,240,o),
(202,205,o),
(125,205,cs),
(98,205,o),
(66,209,o),
(27,217,c),
(45,-3,l),
(361,-24,o)
);
}
);
width = 462;
},
{
anchors = (
{
name = bottom;
pos = (255,0);
},
{
name = top;
pos = (255,800);
}
);
layerId = "68C5B637-35C1-4638-A7C2-DD6A34998814";
name = Black;
shapes = (
{
closed = 1;
nodes = (
(367,115,o),
(377,357,cs),
(383,482,o),
(380,627,o),
(374,768,c),
(221,740,l),
(256,520,o),
(266,398,o),
(266,306,cs),
(266,194,o),
(251,122,o),
(127,122,cs),
(103,122,o),
(75,125,o),
(41,133,c),
(50,-3,l),
(271,-8,o)
);
}
);
width = 463.5;
},
{
anchors = (
{
name = bottom;
pos = (260,0);
},
{
name = top;
pos = (260,800);
}
);
layerId = "267D1DB6-4F39-4280-86D9-F184EF0BD2F7";
name = Black;
shapes = (
{
closed = 1;
nodes = (
(383,141,o),
(390,408,cs),
(394,519,o),
(390,645,o),
(386,768,c),
(198,740,l),
(236,536,o),
(254,404,o),
(254,312,cs),
(254,209,o),
(235,150,o),
(126,150,cs),
(101,150,o),
(72,153,o),
(36,161,c),
(48,-3,l),
(301,-13,o)
);
}
);
width = 464;
},
{
anchors = (
{
name = bottom;
pos = (265,0);
},
{
name = top;
pos = (265,800);
}
);
layerId = "34FE6C3C-97E7-412D-B228-A13225540168";
name = Black;
shapes = (
{
closed = 1;
nodes = (
(399,168,o),
(403,460,cs),
(405,557,o),
(401,664,o),
(398,768,c),
(176,740,l),
(216,553,o),
(243,410,o),
(243,318,cs),
(243,225,o),
(219,178,o),
(126,178,cs),
(100,178,o),
(69,181,o),
(32,189,c),
(47,-3,l),
(331,-18,o)
);
}
);
width = 462.5;
}
);
metricRight = I;
unicode = 74;
},
{
color = 3;
glyphname = K;
kernLeft = I_1;
kernRight = K_2;
lastChange = "2022-08-23 06:31:59 +0000";
layers = (
{
anchors = (
{
name = bottom;
pos = (370,0);
},
{
name = top;
pos = (370,800);
}
);
layerId = m002;
name = Black;
shapes = (
{
closed = 1;
nodes = (
(201,5,l),
(218,230,o),
(222,515,o),
(207,755,c),
(95,734,l),
(126,475,o),
(126,259,o),
(118,-8,c)
);
},
{
closed = 1;
nodes = (
(237,361,o),
(427,615,o),
(657,650,c),
(649,750,l),
(408,710,o),
(237,470,o),
(186,207,c),
(201,5,l)
);
},
{
closed = 1;
nodes = (
(671,14,l),
(616,271,o),
(472,372,o),
(311,429,c),
(269,346,l),
(405,325,o),
(535,180,o),
(563,0,c)
);
}
);
width = 706;
},
{
anchors = (
{
name = bottom;
pos = (398,0);
},
{
name = top;
pos = (398,800);
}
);
layerId = m003;
name = Black;
shapes = (
{
closed = 1;
nodes = (
(278,18,l),
(318,318,o),
(338,492,o),
(334,767,c),
(47,735,l),
(77,473,o),
(84,249,o),
(74,-18,c)
);
},
{
closed = 1;
nodes = (
(315,336,o),
(504,486,o),
(735,502,c),
(726,750,l),
(494,696,o),
(313,439,o),
(278,274,c),
(278,18,l)
);
},
{
closed = 1;
nodes = (
(752,37,l),
(710,291,o),
(536,385,o),
(417,419,c),
(339,293,l),
(412,265,o),
(462,139,o),
(462,0,c)
);
}
);
width = 774;
},
{
anchors = (
{
name = bottom;
pos = (377,0);
},
{
name = top;
pos = (377,800);
}
);
layerId = "68C5B637-35C1-4638-A7C2-DD6A34998814";
name = Black;
shapes = (
{
closed = 1;
nodes = (
(220,8,l),
(243,252,o),
(251,509,o),
(239,758,c),
(83,734,l),
(114,475,o),
(116,257,o),
(107,-10,c)
);
},
{
closed = 1;
nodes = (
(257,355,o),
(446,583,o),
(677,613,c),
(668,750,l),
(430,707,o),
(256,462,o),
(209,224,c),
(220,8,l)
);
},
{
closed = 1;
nodes = (
(691,20,l),
(640,276,o),
(488,375,o),
(338,427,c),
(287,333,l),
(407,310,o),
(517,170,o),
(538,0,c)
);
}
);
width = 723;
},
{
anchors = (
{
name = bottom;
pos = (384,0);
},
{
name = top;
pos = (384,800);
}
);
layerId = "267D1DB6-4F39-4280-86D9-F184EF0BD2F7";
name = Black;
shapes = (
{
closed = 1;
nodes = (
(239,11,l),
(268,274,o),
(280,503,o),
(271,761,c),
(71,734,l),
(102,474,o),
(105,254,o),
(96,-13,c)
);
},
{
closed = 1;
nodes = (
(276,349,o),
(465,551,o),
(696,576,c),
(687,750,l),
(451,703,o),
(275,454,o),
(232,241,c),
(239,11,l)
);
},
{
closed = 1;
nodes = (
(711,26,l),
(663,281,o),
(504,378,o),
(364,424,c),
(304,320,l),
(409,295,o),
(499,160,o),
(513,0,c)
);
}
);
width = 740;
},
{
anchors = (
{
name = bottom;
pos = (391,0);
},
{
name = top;
pos = (391,800);
}
);
layerId = "34FE6C3C-97E7-412D-B228-A13225540168";
name = Black;
shapes = (
{
closed = 1;
nodes = (
(259,15,l),
(293,296,o),
(309,498,o),
(303,764,c),
(59,735,l),
(90,474,o),
(95,252,o),
(85,-15,c)
);
},
{
closed = 1;
nodes = (
(296,343,o),
(485,519,o),
(716,539,c),
(707,750,l),
(473,700,o),
(294,447,o),
(255,258,c),
(259,15,l)
);
},
{
closed = 1;
nodes = (
(732,32,l),
(687,286,o),
(520,382,o),
(391,422,c),
(322,307,l),
(411,280,o),
(481,150,o),
(488,0,c)
);
}
);
width = 757;
}
);
metricLeft = I;
unicode = 75;
},
{
color = 3;
glyphname = L;
kernLeft = I_1;
kernRight = L_2;
lastChange = "2022-08-23 06:31:59 +0000";
layers = (
{
anchors = (
{
name = bottom;
pos = (345,-30);
},
{
name = center;
pos = (307,325);
},
{
name = top;
pos = (205,800);
},
{
name = topright;
pos = (440,720);
}
);
layerId = m002;
name = Black;
shapes = (
{
closed = 1;
nodes = (
(205,28,l),
(216,280,o),
(225,470,o),
(205,754,c),
(95,745,l),
(132,495,o),
(128,235,o),
(115,15,c)
);
},
{
closed = 1;
nodes = (
(521,103,l),
(378,66,o),
(257,49,o),
(159,69,c),
(115,15,l),
(283,-14,o),
(416,7,o),
(531,15,c)
);
}
);
width = 576;
},
{
anchors = (
{
name = bottom;
pos = (336,-30);
},
{
name = center;
pos = (298,325);
},
{
name = top;
pos = (196,800);
},
{
name = topright;
pos = (431,720);
}
);
layerId = m003;
name = Black;
shapes = (
{
closed = 1;
nodes = (
(227,54,l),
(289,280,o),
(324,478,o),
(324,759,c),
(47,745,l),
(98,436,o),
(98,337,o),
(66,25,c)
);
},
{
closed = 1;
nodes = (
(541,181,l),
(373,137,o),
(242,123,o),
(117,143,c),
(66,25,l),
(180,-7,o),
(440,-5,o),
(561,15,c)
);
}
);
width = 588;
},
{
anchors = (
{
name = bottom;
pos = (343,-30);
},
{
name = center;
pos = (305,325);
},
{
name = top;
pos = (203,800);
},
{
name = topright;
pos = (438,720);
}
);
layerId = "68C5B637-35C1-4638-A7C2-DD6A34998814";
name = Black;
shapes = (
{
closed = 1;
nodes = (
(211,35,l),
(234,280,o),
(250,472,o),
(235,755,c),
(83,745,l),
(124,480,o),
(121,261,o),
(103,18,c)
);
},
{
closed = 1;
nodes = (
(526,123,l),
(377,84,o),
(253,68,o),
(149,88,c),
(103,18,l),
(257,-12,o),
(422,4,o),
(539,15,c)
);
}
);
width = 579;
},
{
anchors = (
{
name = bottom;
pos = (341,-30);
},
{
name = center;
pos = (303,325);
},
{
name = top;
pos = (201,800);
},
{
name = topright;
pos = (436,720);
}
);
layerId = "267D1DB6-4F39-4280-86D9-F184EF0BD2F7";
name = Black;
shapes = (
{
closed = 1;
nodes = (
(216,41,l),
(252,280,o),
(275,474,o),
(265,756,c),
(71,745,l),
(115,465,o),
(113,286,o),
(91,20,c)
);
},
{
closed = 1;
nodes = (
(531,142,l),
(376,102,o),
(249,86,o),
(138,106,c),
(91,20,l),
(231,-10,o),
(428,1,o),
(546,15,c)
);
}
);
width = 582;
},
{
anchors = (
{
name = bottom;
pos = (339,-30);
},
{
name = center;
pos = (301,325);
},
{
name = top;
pos = (199,800);
},
{
name = topright;
pos = (434,720);
}
);
layerId = "34FE6C3C-97E7-412D-B228-A13225540168";
name = Black;
shapes = (
{
closed = 1;
nodes = (
(222,48,l),
(271,280,o),
(300,476,o),
(295,758,c),
(59,745,l),
(107,451,o),
(106,312,o),
(79,23,c)
);
},
{
closed = 1;
nodes = (
(536,162,l),
(375,120,o),
(246,105,o),
(128,125,c),
(79,23,l),
(206,-8,o),
(434,-2,o),
(554,15,c)
);
}
);
width = 585;
}
);
metricLeft = I;
unicode = 76;
},
{
glyphname = Lslash;
kernRight = L_2;
lastChange = "2022-08-23 06:31:59 +0000";
layers = (
{
layerId = m002;
name = Black;
shapes = (
{
ref = L;
},
{
closed = 1;
nodes = (
(399,439,l),
(368,494,l),
(-5,249,l),
(35,176,l)
);
}
);
width = 576;
},
{
layerId = m003;
name = Black;
shapes = (
{
ref = L;
},
{
closed = 1;
nodes = (
(405,414,l),
(359,494,l),
(-35,286,l),
(26,176,l)
);
}
);
width = 588;
},
{
layerId = "68C5B637-35C1-4638-A7C2-DD6A34998814";
name = Black;
shapes = (
{
alignment = -1;
ref = L;
},
{
closed = 1;
nodes = (
(401,433,l),
(366,494,l),
(-12,258,l),
(33,176,l)
);
}
);
width = 579;
},
{
layerId = "267D1DB6-4F39-4280-86D9-F184EF0BD2F7";
name = Black;
shapes = (
{
alignment = -1;
ref = L;
},
{
closed = 1;
nodes = (
(402,427,l),
(364,494,l),
(-20,267,l),
(31,176,l)
);
}
);
width = 582;
},
{
layerId = "34FE6C3C-97E7-412D-B228-A13225540168";
name = Black;
shapes = (
{
alignment = -1;
ref = L;
},
{
closed = 1;
nodes = (
(404,421,l),
(362,494,l),
(-27,277,l),
(29,176,l)
);
}
);
width = 585;
}
);
metricRight = L;
unicode = 321;
},
{
color = 0;
glyphname = M;
kernLeft = I_1;
kernRight = Aupper_2;
lastChange = "2022-08-23 06:39:10 +0000";
layers = (
{
layerId = m002;
name = Black;
shapes = (
{
closed = 1;
nodes = (
(201,7,l),
(218,232,o),
(222,515,o),
(207,755,c),
(95,734,l),
(126,475,o),
(126,259,o),
(118,-8,c)
);
},
{
closed = 1;
nodes = (
(626,13,l),
(638,426,o),
(620,760,o),
(416,760,cs),
(283,760,o),
(191,647,o),
(149,229,c),
(212,228,l),
(218,498,o),
(303,680,o),
(389,680,cs),
(527,680,o),
(546,282,o),
(520,-5,c)
);
},
{
closed = 1;
nodes = (
(1081,14,l),
(1100,381,o),
(1048,766,o),
(836,766,cs),
(647,766,o),
(591,369,o),
(588,173,c),
(626,13,l),
(646,394,o),
(710,680,o),
(823,680,cs),
(945,680,o),
(1004,350,o),
(973,-2,c)
);
}
);
width = 1180;
},
{
layerId = m003;
name = Black;
shapes = (
{
closed = 1;
nodes = (
(278,18,l),
(323,359,o),
(324,469,o),
(324,767,c),
(47,725,l),
(79,442,o),
(84,274,o),
(74,-18,c)
);
},
{
closed = 1;
nodes = (
(764,33,l),
(764,426,o),
(692,760,o),
(478,760,cs),
(349,760,o),
(252,610,o),
(209,192,c),
(303,228,l),
(331,503,o),
(375,650,o),
(460,650,cs),
(572,650,o),
(516,144,o),
(490,-8,c)
);
},
{
closed = 1;
nodes = (
(1216,24,l),
(1238,359,o),
(1175,766,o),
(913,766,cs),
(678,766,o),
(654,443,o),
(650,247,c),
(764,33,l),
(777,192,o),
(756,650,o),
(880,650,cs),
(1006,650,o),
(967,69,o),
(952,-7,c)
);
}
);
width = 1267;
},
{
layerId = "68C5B637-35C1-4638-A7C2-DD6A34998814";
name = Black;
shapes = (
{
closed = 1;
nodes = (
(220,10,l),
(244,264,o),
(248,504,o),
(236,758,c),
(83,732,l),
(114,467,o),
(116,263,o),
(107,-10,c)
);
},
{
closed = 1;
nodes = (
(661,18,l),
(670,426,o),
(638,760,o),
(432,760,cs),
(300,760,o),
(206,638,o),
(164,220,c),
(235,228,l),
(246,499,o),
(321,673,o),
(407,673,cs),
(538,673,o),
(539,248,o),
(513,-6,c)
);
},
{
closed = 1;
nodes = (
(1115,17,l),
(1135,376,o),
(1080,766,o),
(855,766,cs),
(655,766,o),
(607,388,o),
(604,192,c),
(661,18,l),
(679,344,o),
(722,673,o),
(837,673,cs),
(960,673,o),
(995,280,o),
(968,-3,c)
);
}
);
width = 1201.75;
},
{
layerId = "267D1DB6-4F39-4280-86D9-F184EF0BD2F7";
name = Black;
shapes = (
{
closed = 1;
nodes = (
(239,13,l),
(270,296,o),
(273,492,o),
(265,761,c),
(71,730,l),
(102,459,o),
(105,267,o),
(96,-13,c)
);
},
{
closed = 1;
nodes = (
(695,23,l),
(701,426,o),
(656,760,o),
(447,760,cs),
(316,760,o),
(221,629,o),
(179,211,c),
(258,228,l),
(274,500,o),
(339,665,o),
(425,665,cs),
(549,665,o),
(531,213,o),
(505,-7,c)
);
},
{
closed = 1;
nodes = (
(1149,19,l),
(1169,370,o),
(1112,766,o),
(874,766,cs),
(663,766,o),
(623,406,o),
(619,210,c),
(695,23,l),
(712,293,o),
(733,665,o),
(851,665,cs),
(975,665,o),
(986,210,o),
(963,-4,c)
);
}
);
width = 1225;
},
{
layerId = "34FE6C3C-97E7-412D-B228-A13225540168";
name = Black;
shapes = (
{
closed = 1;
nodes = (
(259,16,l),
(297,328,o),
(299,481,o),
(295,764,c),
(59,728,l),
(91,451,o),
(95,271,o),
(85,-15,c)
);
},
{
closed = 1;
nodes = (
(730,28,l),
(733,426,o),
(674,760,o),
(463,760,cs),
(333,760,o),
(237,620,o),
(194,202,c),
(281,228,l),
(303,502,o),
(357,658,o),
(443,658,cs),
(561,658,o),
(524,179,o),
(498,-7,c)
);
},
{
closed = 1;
nodes = (
(1183,22,l),
(1204,365,o),
(1144,766,o),
(894,766,cs),
(671,766,o),
(639,425,o),
(635,229,c),
(730,28,l),
(745,243,o),
(745,658,o),
(866,658,cs),
(991,658,o),
(977,140,o),
(958,-5,c)
);
}
);
width = 1246;
}
);
metricLeft = I;
metricRight = I;
unicode = 77;
},
{
color = 0;
glyphname = N;
kernLeft = I_1;
kernRight = I_2;
lastChange = "2022-08-23 06:39:23 +0000";
layers = (
{
anchors = (
{
name = bottom;
pos = (430,-30);
},
{
name = top;
pos = (370,800);
}
);
layerId = m002;
name = Black;
shapes = (
{
closed = 1;
nodes = (
(808,0,o),
(720,595,o),
(658,800,c),
(552,770,l),
(621,513,o),
(695,61,o),
(545,61,cs),
(405,61,o),
(273,467,o),
(206,727,c),
(150,587,l),
(208,354,o),
(389,0,o),
(552,0,cs)
);
},
{
closed = 1;
nodes = (
(201,59,o),
(197,376,o),
(186,592,c),
(206,727,l),
(102,712,l),
(113,484,o),
(113,230,o),
(95,0,c),
(202,0,l)
);
}
);
width = 819;
},
{
anchors = (
{
name = bottom;
pos = (437,-30);
},
{
name = top;
pos = (377,800);
}
);
layerId = m003;
name = Black;
shapes = (
{
closed = 1;
nodes = (
(955,0,o),
(852,595,o),
(779,800,c),
(525,733,l),
(578,566,o),
(721,111,o),
(621,111,cs),
(542,111,o),
(412,482,o),
(333,742,c),
(232,514,l),
(255,391,o),
(441,0,o),
(654,0,cs)
);
},
{
closed = 1;
nodes = (
(323,52,o),
(294,311,o),
(284,532,c),
(333,742,l),
(57,704,l),
(76,476,o),
(69,230,o),
(47,0,c),
(324,-6,l)
);
}
);
width = 904;
},
{
anchors = (
{
name = bottom;
pos = (432,-30);
},
{
name = top;
pos = (372,800);
}
);
layerId = "68C5B637-35C1-4638-A7C2-DD6A34998814";
name = Black;
shapes = (
{
closed = 1;
nodes = (
(845,0,o),
(753,595,o),
(688,800,c),
(545,761,l),
(610,526,o),
(702,74,o),
(564,74,cs),
(439,74,o),
(308,471,o),
(238,731,c),
(171,569,l),
(220,363,o),
(402,0,o),
(578,0,cs)
);
},
{
closed = 1;
nodes = (
(232,57,o),
(221,360,o),
(211,577,c),
(238,731,l),
(91,710,l),
(104,482,o),
(102,230,o),
(83,0,c),
(233,-1,l)
);
}
);
width = 840.25;
},
{
anchors = (
{
name = bottom;
pos = (434,-30);
},
{
name = top;
pos = (374,800);
}
);
layerId = "267D1DB6-4F39-4280-86D9-F184EF0BD2F7";
name = Black;
shapes = (
{
closed = 1;
nodes = (
(882,0,o),
(786,595,o),
(718,800,c),
(538,752,l),
(599,539,o),
(708,86,o),
(583,86,cs),
(473,86,o),
(343,475,o),
(270,735,c),
(191,551,l),
(232,372,o),
(415,0,o),
(603,0,cs)
);
},
{
closed = 1;
nodes = (
(262,55,o),
(245,344,o),
(235,562,c),
(270,735,l),
(80,708,l),
(95,480,o),
(91,230,o),
(71,0,c),
(263,-3,l)
);
}
);
width = 863;
},
{
anchors = (
{
name = bottom;
pos = (436,-30);
},
{
name = top;
pos = (376,800);
}
);
layerId = "34FE6C3C-97E7-412D-B228-A13225540168";
name = Black;
shapes = (
{
closed = 1;
nodes = (
(919,0,o),
(819,595,o),
(749,800,c),
(532,743,l),
(589,553,o),
(715,99,o),
(602,99,cs),
(508,99,o),
(378,479,o),
(302,739,c),
(212,533,l),
(244,382,o),
(428,0,o),
(629,0,cs)
);
},
{
closed = 1;
nodes = (
(293,54,o),
(270,328,o),
(260,547,c),
(302,739,l),
(69,706,l),
(86,478,o),
(80,230,o),
(59,0,c),
(294,-4,l)
);
}
);
width = 882.75;
}
);
metricLeft = I;
metricRight = I;
unicode = 78;
},
{
color = 3;
glyphname = O;
kernLeft = O_1;
kernRight = O_2;
lastChange = "2022-08-23 06:31:59 +0000";
layers = (
{
anchors = (
{
name = bottom;
pos = (401,-30);
},
{
name = top;
pos = (399,800);
}
);
guides = (
{
pos = (586,168);
},
{
pos = (586,482);
}
);
layerId = m002;
name = Black;
shapes = (
{
closed = 1;
nodes = (
(621,-13,o),
(735,179,o),
(735,372,cs),
(735,565,o),
(620,759,o),
(399,759,cs),
(180,759,o),
(65,562,o),
(65,368,cs),
(65,176,o),
(176,-13,o),
(401,-13,cs)
);
},
{
closed = 1;
nodes = (
(249,71,o),
(156,227,o),
(156,402,cs),
(156,566,o),
(231,710,o),
(400,710,cs),
(564,710,o),
(649,562,o),
(649,400,cs),
(649,241,o),
(573,71,o),
(406,71,cs)
);
}
);
width = 800;
},
{
anchors = (
{
name = bottom;
pos = (424,-30);
},
{
name = top;
pos = (422,800);
}
);
guides = (
{
pos = (609,168);
},
{
pos = (609,482);
}
);
layerId = m003;
name = Black;
shapes = (
{
closed = 1;
nodes = (
(683,-13,o),
(817,179,o),
(817,372,cs),
(817,565,o),
(682,759,o),
(422,759,cs),
(168,759,o),
(32,562,o),
(32,368,cs),
(32,176,o),
(163,-13,o),
(424,-13,cs)
);
},
{
closed = 1;
nodes = (
(336,225,o),
(275,339,o),
(275,453,cs),
(275,570,o),
(330,672,o),
(452,672,cs),
(561,672,o),
(630,570,o),
(630,456,cs),
(630,342,o),
(562,225,o),
(441,225,cs)
);
}
);
width = 849;
},
{
anchors = (
{
name = bottom;
pos = (407,-30);
},
{
name = top;
pos = (405,800);
}
);
layerId = "68C5B637-35C1-4638-A7C2-DD6A34998814";
name = Black;
shapes = (
{
closed = 1;
nodes = (
(637,-13,o),
(756,179,o),
(756,372,cs),
(756,565,o),
(636,759,o),
(405,759,cs),
(177,759,o),
(57,562,o),
(57,368,cs),
(57,176,o),
(173,-13,o),
(407,-13,cs)
);
},
{
closed = 1;
nodes = (
(271,110,o),
(186,255,o),
(186,415,cs),
(186,567,o),
(256,701,o),
(413,701,cs),
(563,701,o),
(644,564,o),
(644,414,cs),
(644,266,o),
(570,110,o),
(415,110,cs)
);
}
);
width = 812.25;
},
{
anchors = (
{
name = bottom;
pos = (413,-30);
},
{
name = top;
pos = (411,800);
}
);
layerId = "267D1DB6-4F39-4280-86D9-F184EF0BD2F7";
name = Black;
shapes = (
{
closed = 1;
nodes = (
(652,-13,o),
(776,179,o),
(776,372,cs),
(776,565,o),
(651,759,o),
(411,759,cs),
(174,759,o),
(49,562,o),
(49,368,cs),
(49,176,o),
(170,-13,o),
(413,-13,cs)
);
},
{
closed = 1;
nodes = (
(293,148,o),
(216,283,o),
(216,428,cs),
(216,568,o),
(281,691,o),
(426,691,cs),
(562,691,o),
(639,566,o),
(639,428,cs),
(639,291,o),
(567,148,o),
(424,148,cs)
);
}
);
width = 824.5;
},
{
anchors = (
{
name = bottom;
pos = (419,-30);
},
{
name = top;
pos = (417,800);
}
);
layerId = "34FE6C3C-97E7-412D-B228-A13225540168";
name = Black;
shapes = (
{
closed = 1;
nodes = (
(668,-13,o),
(797,179,o),
(797,372,cs),
(797,565,o),
(667,759,o),
(417,759,cs),
(171,759,o),
(41,562,o),
(41,368,cs),
(41,176,o),
(167,-13,o),
(419,-13,cs)
);
},
{
closed = 1;
nodes = (
(315,187,o),
(246,311,o),
(246,441,cs),
(246,569,o),
(306,682,o),
(439,682,cs),
(562,682,o),
(635,568,o),
(635,442,cs),
(635,317,o),
(565,187,o),
(433,187,cs)
);
}
);
width = 836.75;
}
);
unicode = 79;
},
{
glyphname = Oslash;
kernLeft = O_1;
kernRight = O_2;
lastChange = "2022-08-23 06:31:59 +0000";
layers = (
{
layerId = m002;
name = Black;
shapes = (
{
ref = O;
},
{
closed = 1;
nodes = (
(641,760,l),
(583,788,l),
(138,-29,l),
(197,-58,l)
);
}
);
width = 800;
},
{
layerId = m003;
name = Black;
shapes = (
{
ref = O;
},
{
closed = 1;
nodes = (
(681,760,l),
(573,788,l),
(178,-29,l),
(267,-58,l)
);
}
);
width = 849;
},
{
layerId = "68C5B637-35C1-4638-A7C2-DD6A34998814";
name = Black;
shapes = (
{
alignment = -1;
ref = O;
},
{
closed = 1;
nodes = (
(651,760,l),
(581,788,l),
(148,-29,l),
(215,-58,l)
);
}
);
width = 812.25;
},
{
layerId = "267D1DB6-4F39-4280-86D9-F184EF0BD2F7";
name = Black;
shapes = (
{
alignment = -1;
ref = O;
},
{
closed = 1;
nodes = (
(661,760,l),
(578,788,l),
(158,-29,l),
(232,-58,l)
);
}
);
width = 824.5;
},
{
layerId = "34FE6C3C-97E7-412D-B228-A13225540168";
name = Black;
shapes = (
{
alignment = -1;
ref = O;
},
{
closed = 1;
nodes = (
(671,760,l),
(576,788,l),
(168,-29,l),
(250,-58,l)
);
}
);
width = 836.75;
}
);
unicode = 216;
},
{
glyphname = OE;
kernLeft = O_1;
kernRight = E_2;
lastChange = "2022-08-23 06:39:39 +0000";
layers = (
{
anchors = (
{
name = bottom;
pos = (875,-30);
},
{
name = ogonek;
pos = (988,7);
},
{
name = top;
pos = (873,800);
}
);
layerId = m002;
name = Black;
shapes = (
{
closed = 1;
nodes = (
(477,-2,o),
(543,9,o),
(604,46,c),
(603,109,l),
(543,78,o),
(490,64,o),
(409,64,cs),
(287,64,o),
(165,164,o),
(165,353,cs),
(165,539,o),
(292,661,o),
(446,661,cs),
(489,661,o),
(534,654,o),
(578,638,c),
(591,719,l),
(547,738,o),
(495,748,o),
(441,748,cs),
(264,748,o),
(65,638,o),
(65,356,cs),
(65,138,o),
(231,-2,o),
(412,-2,cs)
);
},
{
closed = 1;
nodes = (
(622,28,l),
(629,283,o),
(641,452,o),
(626,739,c),
(516,736,l),
(540,542,o),
(545,235,o),
(532,15,c)
);
},
{
closed = 1;
nodes = (
(1004,83,l),
(861,69,o),
(682,58,o),
(576,73,c),
(532,15,l),
(663,3,o),
(901,-5,o),
(1004,-5,c)
);
},
{
closed = 1;
nodes = (
(890,404,l),
(809,402,o),
(703,399,o),
(597,385,c),
(597,326,l),
(717,335,o),
(802,333,o),
(893,324,c)
);
},
{
closed = 1;
nodes = (
(987,770,l),
(888,767,o),
(624,749,o),
(516,736,c),
(597,681,l),
(663,690,o),
(844,705,o),
(987,684,c)
);
}
);
width = 1049;
},
{
anchors = (
{
name = bottom;
pos = (424,-30);
},
{
name = ogonek;
pos = (994,7);
},
{
name = top;
pos = (422,800);
}
);
layerId = m003;
name = Black;
shapes = (
{
closed = 1;
nodes = (
(507,-13,o),
(577,7,o),
(634,40,c),
(520,149,l),
(494,112,o),
(459,87,o),
(415,87,cs),
(329,87,o),
(279,207,o),
(279,326,cs),
(279,449,o),
(324,557,o),
(423,557,cs),
(460,557,o),
(490,541,o),
(513,515,c),
(614,669,l),
(543,730,o),
(459,759,o),
(376,759,cs),
(199,759,o),
(32,625,o),
(32,368,cs),
(32,176,o),
(163,-13,o),
(424,-13,cs)
);
},
{
closed = 1;
nodes = (
(701,47,l),
(745,343,o),
(746,443,o),
(746,714,c),
(479,736,l),
(510,437,o),
(510,325,o),
(498,13,c)
);
},
{
closed = 1;
nodes = (
(1053,161,l),
(885,137,o),
(674,131,o),
(549,131,c),
(498,13,l),
(671,1,o),
(932,-5,o),
(1053,-5,c)
);
},
{
closed = 1;
nodes = (
(919,424,l),
(838,422,o),
(729,415,o),
(622,401,c),
(623,289,l),
(744,301,o),
(846,304,o),
(922,288,c)
);
},
{
closed = 1;
nodes = (
(1033,770,l),
(916,767,o),
(606,749,o),
(479,736,c),
(574,607,l),
(660,607,o),
(865,618,o),
(1033,584,c)
);
}
);
width = 1080;
},
{
anchors = (
{
name = bottom;
pos = (762,-30);
},
{
name = ogonek;
pos = (990,7);
},
{
name = top;
pos = (760,800);
}
);
layerId = "68C5B637-35C1-4638-A7C2-DD6A34998814";
name = Black;
shapes = (
{
closed = 1;
nodes = (
(485,-5,o),
(552,9,o),
(612,45,c),
(582,119,l),
(531,87,o),
(482,70,o),
(411,70,cs),
(298,70,o),
(194,175,o),
(194,346,cs),
(194,517,o),
(300,635,o),
(440,635,cs),
(482,635,o),
(523,626,o),
(562,607,c),
(597,707,l),
(546,736,o),
(486,751,o),
(425,751,cs),
(248,751,o),
(57,635,o),
(57,359,cs),
(57,148,o),
(214,-5,o),
(415,-5,cs)
);
},
{
closed = 1;
nodes = (
(642,33,l),
(658,298,o),
(667,450,o),
(656,733,c),
(507,736,l),
(533,516,o),
(536,258,o),
(524,15,c)
);
},
{
closed = 1;
nodes = (
(1016,103,l),
(867,86,o),
(680,76,o),
(569,88,c),
(524,15,l),
(665,3,o),
(909,-5,o),
(1016,-5,c)
);
},
{
closed = 1;
nodes = (
(897,409,l),
(816,407,o),
(710,403,o),
(603,389,c),
(604,317,l),
(724,327,o),
(813,326,o),
(900,315,c)
);
},
{
closed = 1;
nodes = (
(999,770,l),
(895,767,o),
(620,749,o),
(507,736,c),
(591,663,l),
(662,669,o),
(849,683,o),
(999,659,c)
);
}
);
width = 1056;
},
{
anchors = (
{
name = bottom;
pos = (649,-30);
},
{
name = ogonek;
pos = (991,7);
},
{
name = top;
pos = (647,800);
}
);
layerId = "267D1DB6-4F39-4280-86D9-F184EF0BD2F7";
name = Black;
shapes = (
{
closed = 1;
nodes = (
(492,-8,o),
(560,8,o),
(619,43,c),
(561,129,l),
(519,95,o),
(474,76,o),
(412,76,cs),
(308,76,o),
(222,186,o),
(222,339,cs),
(222,494,o),
(308,609,o),
(434,609,cs),
(475,609,o),
(512,598,o),
(546,576,c),
(603,694,l),
(545,734,o),
(477,754,o),
(409,754,cs),
(232,754,o),
(49,632,o),
(49,362,cs),
(49,157,o),
(197,-8,o),
(418,-8,cs)
);
},
{
closed = 1;
nodes = (
(662,38,l),
(687,313,o),
(693,448,o),
(686,727,c),
(498,736,l),
(525,490,o),
(527,280,o),
(515,14,c)
);
},
{
closed = 1;
nodes = (
(1028,122,l),
(873,103,o),
(678,94,o),
(562,102,c),
(515,14,l),
(667,2,o),
(917,-5,o),
(1028,-5,c)
);
},
{
closed = 1;
nodes = (
(904,414,l),
(823,412,o),
(716,407,o),
(609,393,c),
(610,308,l),
(731,318,o),
(824,319,o),
(907,306,c)
);
},
{
closed = 1;
nodes = (
(1010,770,l),
(902,767,o),
(615,749,o),
(498,736,c),
(585,644,l),
(661,648,o),
(854,661,o),
(1010,634,c)
);
}
);
width = 1064;
},
{
anchors = (
{
name = bottom;
pos = (537,-30);
},
{
name = ogonek;
pos = (993,7);
},
{
name = top;
pos = (535,800);
}
);
layerId = "34FE6C3C-97E7-412D-B228-A13225540168";
name = Black;
shapes = (
{
closed = 1;
nodes = (
(500,-10,o),
(569,8,o),
(627,42,c),
(541,139,l),
(507,104,o),
(467,82,o),
(414,82,cs),
(319,82,o),
(251,197,o),
(251,333,cs),
(251,472,o),
(316,583,o),
(429,583,cs),
(468,583,o),
(501,570,o),
(530,546,c),
(609,682,l),
(544,732,o),
(468,757,o),
(393,757,cs),
(216,757,o),
(41,629,o),
(41,365,cs),
(41,167,o),
(180,-10,o),
(421,-10,cs)
);
},
{
closed = 1;
nodes = (
(682,43,l),
(716,328,o),
(720,446,o),
(716,721,c),
(489,736,l),
(518,464,o),
(519,303,o),
(507,14,c)
);
},
{
closed = 1;
nodes = (
(1041,142,l),
(879,120,o),
(676,113,o),
(556,117,c),
(507,14,l),
(669,2,o),
(925,-5,o),
(1041,-5,c)
);
},
{
closed = 1;
nodes = (
(912,419,l),
(831,417,o),
(723,411,o),
(616,397,c),
(617,299,l),
(738,310,o),
(835,312,o),
(915,297,c)
);
},
{
closed = 1;
nodes = (
(1022,770,l),
(909,767,o),
(611,749,o),
(489,736,c),
(580,626,l),
(661,628,o),
(860,640,o),
(1022,609,c)
);
}
);
width = 1072.25;
}
);
metricLeft = O;
metricRight = E;
unicode = 338;
},
{
color = 3;
glyphname = P;
kernLeft = I_1;
lastChange = "2022-08-23 06:31:59 +0000";
layers = (
{
layerId = m002;
name = Black;
shapes = (
{
closed = 1;
nodes = (
(212,0,l),
(219,255,o),
(220,461,o),
(205,748,c),
(95,730,l),
(119,536,o),
(127,259,o),
(118,-4,c)
);
},
{
closed = 1;
nodes = (
(508,305,o),
(631,436,o),
(631,599,cs),
(631,712,o),
(570,798,o),
(460,798,cs),
(370,798,o),
(222,722,o),
(168,539,c),
(193,468,l),
(230,622,o),
(345,688,o),
(425,688,cs),
(503,688,o),
(531,631,o),
(531,575,cs),
(531,465,o),
(445,350,o),
(160,259,c),
(193,207,l)
);
}
);
width = 696;
},
{
layerId = m003;
name = Black;
shapes = (
{
closed = 1;
nodes = (
(278,0,l),
(320,316,o),
(324,437,o),
(324,767,c),
(47,725,l),
(79,445,o),
(84,284,o),
(74,-8,c)
);
},
{
closed = 1;
nodes = (
(583,309,o),
(685,441,o),
(685,588,cs),
(685,702,o),
(625,774,o),
(519,774,cs),
(423,774,o),
(323,685,o),
(261,572,c),
(265,496,l),
(306,554,o),
(358,579,o),
(399,579,cs),
(438,579,o),
(468,550,o),
(468,505,cs),
(468,461,o),
(465,377,o),
(276,316,c),
(305,222,l)
);
}
);
width = 717;
},
{
layerId = "68C5B637-35C1-4638-A7C2-DD6A34998814";
name = Black;
shapes = (
{
closed = 1;
nodes = (
(229,0,l),
(244,270,o),
(246,455,o),
(235,753,c),
(83,729,l),
(109,513,o),
(116,265,o),
(107,-5,c)
);
},
{
closed = 1;
nodes = (
(527,306,o),
(645,437,o),
(645,596,cs),
(645,710,o),
(584,792,o),
(475,792,cs),
(383,792,o),
(247,713,o),
(191,547,c),
(211,475,l),
(249,605,o),
(348,661,o),
(419,661,cs),
(487,661,o),
(515,611,o),
(515,558,cs),
(515,464,o),
(450,357,o),
(189,273,c),
(221,211,l)
);
}
);
width = 701.25;
},
{
layerId = "267D1DB6-4F39-4280-86D9-F184EF0BD2F7";
name = Black;
shapes = (
{
closed = 1;
nodes = (
(245,0,l),
(269,285,o),
(272,449,o),
(265,758,c),
(71,728,l),
(99,490,o),
(105,271,o),
(96,-6,c)
);
},
{
closed = 1;
nodes = (
(546,307,o),
(658,438,o),
(658,593,cs),
(658,707,o),
(598,786,o),
(490,786,cs),
(396,786,o),
(272,704,o),
(214,555,c),
(229,482,l),
(268,588,o),
(351,634,o),
(412,634,cs),
(471,634,o),
(499,591,o),
(499,540,cs),
(499,463,o),
(455,364,o),
(218,287,c),
(249,215,l)
);
}
);
width = 706.5;
},
{
layerId = "34FE6C3C-97E7-412D-B228-A13225540168";
name = Black;
shapes = (
{
closed = 1;
nodes = (
(262,0,l),
(295,301,o),
(298,443,o),
(295,763,c),
(59,727,l),
(89,468,o),
(95,278,o),
(85,-7,c)
);
},
{
closed = 1;
nodes = (
(565,308,o),
(672,440,o),
(672,591,cs),
(672,705,o),
(612,780,o),
(505,780,cs),
(410,780,o),
(298,695,o),
(238,564,c),
(247,489,l),
(287,571,o),
(355,607,o),
(406,607,cs),
(455,607,o),
(484,571,o),
(484,523,cs),
(484,462,o),
(460,371,o),
(247,302,c),
(277,219,l)
);
}
);
width = 711.75;
}
);
metricLeft = I;
unicode = 80;
},
{
color = 3;
glyphname = Thorn;
kernLeft = I_1;
kernRight = O_2;
lastChange = "2022-08-23 06:39:55 +0000";
layers = (
{
layerId = m002;
name = Black;
shapes = (
{
closed = 1;
nodes = (
(217,14,l),
(193,208,o),
(185,485,o),
(194,748,c),
(100,744,l),
(93,489,o),
(92,283,o),
(107,-4,c)
);
},
{
closed = 1;
nodes = (
(429,180,o),
(629,283,o),
(629,423,cs),
(629,529,o),
(542,595,o),
(423,595,cs),
(351,595,o),
(276,582,o),
(165,546,c),
(165,493,l),
(303,527,o),
(523,571,o),
(523,423,cs),
(523,326,o),
(394,235,o),
(156,235,c),
(164,180,l)
);
}
);
width = 694;
},
{
layerId = m003;
name = Black;
shapes = (
{
closed = 1;
nodes = (
(324,24,l),
(292,307,o),
(287,485,o),
(297,777,c),
(93,741,l),
(50,416,o),
(47,320,o),
(47,-18,c)
);
},
{
closed = 1;
nodes = (
(551,188,o),
(674,309,o),
(674,418,cs),
(674,517,o),
(572,606,o),
(432,606,cs),
(387,606,o),
(337,597,o),
(286,576,c),
(248,494,l),
(324,513,o),
(439,515,o),
(439,431,cs),
(439,338,o),
(347,275,o),
(197,275,c),
(221,159,l)
);
}
);
width = 706;
},
{
layerId = "68C5B637-35C1-4638-A7C2-DD6A34998814";
name = Black;
shapes = (
{
closed = 1;
nodes = (
(242,17,l),
(216,233,o),
(209,485,o),
(218,755,c),
(96,743,l),
(80,471,o),
(79,292,o),
(90,-7,c)
);
},
{
closed = 1;
nodes = (
(458,182,o),
(638,290,o),
(638,422,cs),
(638,526,o),
(548,598,o),
(423,598,cs),
(358,598,o),
(289,586,o),
(193,554,c),
(184,493,l),
(306,524,o),
(500,557,o),
(500,425,cs),
(500,329,o),
(380,245,o),
(164,245,c),
(176,175,l)
);
}
);
width = 695;
},
{
layerId = "267D1DB6-4F39-4280-86D9-F184EF0BD2F7";
name = Black;
shapes = (
{
closed = 1;
nodes = (
(269,19,l),
(241,258,o),
(234,485,o),
(244,762,c),
(94,742,l),
(69,453,o),
(68,301,o),
(75,-11,c)
);
},
{
closed = 1;
nodes = (
(488,184,o),
(649,296,o),
(649,421,cs),
(649,523,o),
(555,601,o),
(425,601,cs),
(367,601,o),
(304,590,o),
(223,561,c),
(205,493,l),
(311,520,o),
(479,543,o),
(479,427,cs),
(479,332,o),
(368,255,o),
(174,255,c),
(190,170,l)
);
}
);
width = 698;
},
{
layerId = "34FE6C3C-97E7-412D-B228-A13225540168";
name = Black;
shapes = (
{
closed = 1;
nodes = (
(296,22,l),
(266,283,o),
(260,485,o),
(270,770,c),
(93,742,l),
(59,435,o),
(57,311,o),
(60,-14,c)
);
},
{
closed = 1;
nodes = (
(519,186,o),
(661,303,o),
(661,420,cs),
(661,520,o),
(563,604,o),
(428,604,cs),
(376,604,o),
(320,594,o),
(254,569,c),
(226,494,l),
(317,517,o),
(458,529,o),
(458,429,cs),
(458,335,o),
(357,265,o),
(185,265,c),
(205,165,l)
);
}
);
width = 701;
}
);
metricLeft = I;
unicode = 222;
},
{
color = 3;
glyphname = Q;
kernLeft = O_1;
kernRight = O_2;
lastChange = "2022-08-23 06:31:59 +0000";
layers = (
{
layerId = m002;
name = Black;
shapes = (
{
pos = (0,750);
ref = O;
scale = (1,-1);
},
{
closed = 1;
nodes = (
(705,-69,l),
(579,0,o),
(548,104,o),
(550,210,c),
(499,217,l),
(479,57,o),
(524,-44,o),
(630,-133,c)
);
}
);
width = 800;
},
{
layerId = m003;
name = Black;
shapes = (
{
pos = (0,750);
ref = O;
scale = (1,-1);
},
{
closed = 1;
nodes = (
(705,-40,l),
(598,56,o),
(527,214,o),
(530,344,c),
(410,360,l),
(386,164,o),
(393,-10,o),
(524,-196,c)
);
}
);
width = 849;
},
{
layerId = "68C5B637-35C1-4638-A7C2-DD6A34998814";
name = Black;
shapes = (
{
alignment = -1;
pos = (0,750);
ref = O;
scale = (1,-1);
},
{
closed = 1;
nodes = (
(705,-62,l),
(584,14,o),
(543,132,o),
(545,244,c),
(477,253,l),
(456,84,o),
(491,-35,o),
(604,-149,c)
);
}
);
width = 812.25;
},
{
layerId = "267D1DB6-4F39-4280-86D9-F184EF0BD2F7";
name = Black;
shapes = (
{
alignment = -1;
pos = (0,750);
ref = O;
scale = (1,-1);
},
{
closed = 1;
nodes = (
(705,-55,l),
(589,28,o),
(538,159,o),
(540,277,c),
(455,289,l),
(433,111,o),
(458,-27,o),
(577,-165,c)
);
}
);
width = 824.5;
},
{
layerId = "34FE6C3C-97E7-412D-B228-A13225540168";
name = Black;
shapes = (
{
alignment = -1;
pos = (0,750);
ref = O;
scale = (1,-1);
},
{
closed = 1;
nodes = (
(705,-47,l),
(594,42,o),
(533,187,o),
(535,311,c),
(433,325,l),
(410,138,o),
(426,-18,o),
(551,-180,c)
);
}
);
width = 836.75;
}
);
metricLeft = O;
metricRight = O;
unicode = 81;
},
{
color = 3;
glyphname = R;
kernLeft = I_1;
kernRight = R_2;
lastChange = "2022-08-23 06:31:59 +0000";
layers = (
{
anchors = (
{
name = bottom;
pos = (336,0);
},
{
name = top;
pos = (338,800);
}
);
layerId = m002;
name = Black;
shapes = (
{
closed = 1;
nodes = (
(508,335,o),
(631,456,o),
(631,619,cs),
(631,712,o),
(570,788,o),
(460,788,cs),
(370,788,o),
(222,722,o),
(168,539,c),
(193,478,l),
(230,632,o),
(345,703,o),
(425,703,cs),
(503,703,o),
(531,631,o),
(531,575,cs),
(531,478,o),
(445,376,o),
(160,285,c),
(193,237,l)
);
},
{
closed = 1;
nodes = (
(212,0,l),
(219,255,o),
(220,461,o),
(205,748,c),
(95,730,l),
(119,536,o),
(127,259,o),
(118,-4,c)
);
},
{
closed = 1;
nodes = (
(655,-6,l),
(591,238,o),
(458,293,o),
(285,326,c),
(253,263,l),
(405,251,o),
(510,147,o),
(547,-20,c)
);
}
);
width = 690;
},
{
anchors = (
{
name = bottom;
pos = (340,0);
},
{
name = top;
pos = (342,800);
}
);
layerId = m003;
name = Black;
shapes = (
{
closed = 1;
nodes = (
(583,334,o),
(685,459,o),
(685,598,cs),
(685,706,o),
(625,774,o),
(519,774,cs),
(423,774,o),
(323,685,o),
(261,572,c),
(265,496,l),
(306,554,o),
(358,579,o),
(399,579,cs),
(438,579,o),
(468,556,o),
(468,506,cs),
(468,477,o),
(465,400,o),
(276,346,c),
(305,252,l)
);
},
{
closed = 1;
nodes = (
(278,0,l),
(320,316,o),
(324,437,o),
(324,767,c),
(47,725,l),
(80,435,o),
(84,277,o),
(74,-8,c)
);
},
{
closed = 1;
nodes = (
(692,33,l),
(650,258,o),
(476,332,o),
(357,362,c),
(291,277,l),
(364,252,o),
(402,123,o),
(402,0,c)
);
}
);
width = 714;
},
{
anchors = (
{
name = bottom;
pos = (337,0);
},
{
name = top;
pos = (339,800);
}
);
layerId = "68C5B637-35C1-4638-A7C2-DD6A34998814";
name = Black;
shapes = (
{
closed = 1;
nodes = (
(527,335,o),
(645,457,o),
(645,614,cs),
(645,711,o),
(584,785,o),
(475,785,cs),
(383,785,o),
(247,713,o),
(191,547,c),
(211,483,l),
(249,613,o),
(348,672,o),
(419,672,cs),
(487,672,o),
(515,612,o),
(515,558,cs),
(515,478,o),
(450,382,o),
(189,300,c),
(221,241,l)
);
},
{
closed = 1;
nodes = (
(229,0,l),
(244,270,o),
(246,455,o),
(235,753,c),
(83,729,l),
(109,511,o),
(116,264,o),
(107,-5,c)
);
},
{
closed = 1;
nodes = (
(664,4,l),
(606,243,o),
(463,303,o),
(303,335,c),
(263,267,l),
(395,251,o),
(483,141,o),
(511,-15,c)
);
}
);
width = 696;
},
{
anchors = (
{
name = bottom;
pos = (338,0);
},
{
name = top;
pos = (340,800);
}
);
layerId = "267D1DB6-4F39-4280-86D9-F184EF0BD2F7";
name = Black;
shapes = (
{
closed = 1;
nodes = (
(546,335,o),
(658,458,o),
(658,609,cs),
(658,709,o),
(598,781,o),
(490,781,cs),
(396,781,o),
(272,704,o),
(214,555,c),
(229,487,l),
(268,593,o),
(351,641,o),
(412,641,cs),
(471,641,o),
(499,593,o),
(499,541,cs),
(499,478,o),
(455,388,o),
(218,315,c),
(249,245,l)
);
},
{
closed = 1;
nodes = (
(245,0,l),
(269,285,o),
(272,449,o),
(265,758,c),
(71,728,l),
(99,486,o),
(105,268,o),
(96,-6,c)
);
},
{
closed = 1;
nodes = (
(673,14,l),
(621,248,o),
(467,313,o),
(321,344,c),
(272,270,l),
(385,251,o),
(456,135,o),
(475,-10,c)
);
}
);
width = 702;
},
{
anchors = (
{
name = bottom;
pos = (339,0);
},
{
name = top;
pos = (341,800);
}
);
layerId = "34FE6C3C-97E7-412D-B228-A13225540168";
name = Black;
shapes = (
{
closed = 1;
nodes = (
(565,335,o),
(672,459,o),
(672,604,cs),
(672,708,o),
(612,778,o),
(505,778,cs),
(410,778,o),
(298,695,o),
(238,564,c),
(247,492,l),
(287,574,o),
(355,610,o),
(406,610,cs),
(455,610,o),
(484,575,o),
(484,524,cs),
(484,478,o),
(460,394,o),
(247,331,c),
(277,249,l)
);
},
{
closed = 1;
nodes = (
(262,0,l),
(295,301,o),
(298,443,o),
(295,763,c),
(59,727,l),
(90,461,o),
(95,273,o),
(85,-7,c)
);
},
{
closed = 1;
nodes = (
(683,24,l),
(636,253,o),
(472,323,o),
(339,353,c),
(282,274,l),
(375,252,o),
(429,129,o),
(439,-5,c)
);
}
);
width = 708;
}
);
metricLeft = I;
unicode = 82;
},
{
color = 3;
glyphname = S;
kernLeft = S_1;
kernRight = S_2;
lastChange = "2022-08-23 06:31:59 +0000";
layers = (
{
anchors = (
{
name = bottom;
pos = (333,-41);
},
{
name = cedilla;
pos = (343,19);
},
{
name = top;
pos = (347,800);
}
);
guides = (
{
pos = (633,168);
},
{
pos = (633,482);
}
);
layerId = m002;
name = Black;
shapes = (
{
closed = 1;
nodes = (
(496,-11,o),
(606,64,o),
(606,212,cs),
(606,450,o),
(185,371,o),
(185,603,cs),
(185,676,o),
(252,708,o),
(340,708,cs),
(395,708,o),
(474,684,o),
(540,633,c),
(559,701,l),
(509,744,o),
(425,768,o),
(343,768,cs),
(212,768,o),
(82,708,o),
(82,570,cs),
(82,371,o),
(496,381,o),
(496,207,cs),
(496,107,o),
(401,50,o),
(320,50,cs),
(252,50,o),
(187,54,o),
(68,114,c),
(45,40,l),
(145,8,o),
(244,-11,o),
(332,-11,cs)
);
}
);
width = 651;
},
{
anchors = (
{
name = bottom;
pos = (365,-41);
},
{
name = cedilla;
pos = (375,19);
},
{
name = top;
pos = (379,800);
}
);
guides = (
{
pos = (665,168);
},
{
pos = (665,482);
}
);
layerId = m003;
name = Black;
shapes = (
{
closed = 1;
nodes = (
(558,-11,o),
(687,64,o),
(687,212,cs),
(687,446,o),
(332,382,o),
(338,555,cs),
(340,600,o),
(373,633,o),
(433,633,cs),
(491,633,o),
(538,611,o),
(594,579,c),
(632,701,l),
(573,744,o),
(475,768,o),
(378,768,cs),
(224,768,o),
(71,708,o),
(71,570,cs),
(71,371,o),
(399,377,o),
(399,247,cs),
(399,207,o),
(365,163,o),
(304,163,cs),
(224,163,o),
(139,198,o),
(54,238,c),
(27,40,l),
(145,8,o),
(262,-11,o),
(365,-11,cs)
);
}
);
width = 714;
},
{
anchors = (
{
name = bottom;
pos = (341,-41);
},
{
name = cedilla;
pos = (351,19);
},
{
name = top;
pos = (355,800);
}
);
layerId = "68C5B637-35C1-4638-A7C2-DD6A34998814";
name = Black;
shapes = (
{
closed = 1;
nodes = (
(512,-11,o),
(626,64,o),
(626,212,cs),
(626,449,o),
(222,374,o),
(223,591,cs),
(224,657,o),
(282,689,o),
(363,689,cs),
(419,689,o),
(490,666,o),
(554,620,c),
(577,701,l),
(525,744,o),
(438,768,o),
(352,768,cs),
(215,768,o),
(79,708,o),
(79,570,cs),
(79,371,o),
(472,380,o),
(472,217,cs),
(472,132,o),
(392,78,o),
(316,78,cs),
(245,78,o),
(175,90,o),
(65,145,c),
(41,40,l),
(145,8,o),
(249,-11,o),
(340,-11,cs)
);
}
);
width = 666.75;
},
{
anchors = (
{
name = bottom;
pos = (349,-41);
},
{
name = cedilla;
pos = (359,19);
},
{
name = top;
pos = (363,800);
}
);
layerId = "267D1DB6-4F39-4280-86D9-F184EF0BD2F7";
name = Black;
shapes = (
{
closed = 1;
nodes = (
(527,-11,o),
(646,64,o),
(646,212,cs),
(646,448,o),
(259,377,o),
(261,579,cs),
(263,638,o),
(312,670,o),
(386,670,cs),
(443,670,o),
(506,648,o),
(567,606,c),
(595,701,l),
(541,744,o),
(450,768,o),
(361,768,cs),
(218,768,o),
(76,708,o),
(76,570,cs),
(76,371,o),
(448,379,o),
(448,227,cs),
(448,157,o),
(383,106,o),
(312,106,cs),
(238,106,o),
(163,126,o),
(61,176,c),
(36,40,l),
(145,8,o),
(253,-11,o),
(348,-11,cs)
);
}
);
width = 682.5;
},
{
anchors = (
{
name = bottom;
pos = (357,-41);
},
{
name = cedilla;
pos = (367,19);
},
{
name = top;
pos = (371,800);
}
);
layerId = "34FE6C3C-97E7-412D-B228-A13225540168";
name = Black;
shapes = (
{
closed = 1;
nodes = (
(543,-11,o),
(667,64,o),
(667,212,cs),
(667,447,o),
(296,380,o),
(300,567,cs),
(302,619,o),
(343,652,o),
(410,652,cs),
(467,652,o),
(522,630,o),
(581,593,c),
(614,701,l),
(557,744,o),
(463,768,o),
(370,768,cs),
(221,768,o),
(74,708,o),
(74,570,cs),
(74,371,o),
(424,378,o),
(424,237,cs),
(424,182,o),
(374,135,o),
(308,135,cs),
(231,135,o),
(151,162,o),
(58,207,c),
(32,40,l),
(145,8,o),
(258,-11,o),
(357,-11,cs)
);
}
);
width = 698.25;
}
);
unicode = 83;
},
{
color = 3;
glyphname = T;
kernLeft = T_1;
kernRight = T_2;
lastChange = "2022-08-23 06:31:59 +0000";
layers = (
{
anchors = (
{
name = bottom;
pos = (345,-10);
},
{
name = cedilla;
pos = (365,20);
},
{
name = top;
pos = (345,800);
}
);
layerId = m002;
name = Black;
shapes = (
{
closed = 1;
nodes = (
(390,7,l),
(407,232,o),
(411,515,o),
(396,755,c),
(284,734,l),
(315,475,o),
(315,259,o),
(307,-8,c)
);
},
{
closed = 1;
nodes = (
(640,766,l),
(45,750,l),
(49,694,l),
(639,690,l)
);
}
);
width = 685;
},
{
anchors = (
{
name = bottom;
pos = (379,-10);
},
{
name = cedilla;
pos = (399,20);
},
{
name = top;
pos = (379,800);
}
);
layerId = m003;
name = Black;
shapes = (
{
closed = 1;
nodes = (
(476,18,l),
(516,318,o),
(526,492,o),
(522,767,c),
(245,725,l),
(275,463,o),
(282,249,o),
(272,-18,c)
);
},
{
closed = 1;
nodes = (
(726,800,l),
(27,750,l),
(31,640,l),
(725,626,l)
);
}
);
width = 753;
},
{
anchors = (
{
name = bottom;
pos = (354,-10);
},
{
name = cedilla;
pos = (374,20);
},
{
name = top;
pos = (354,800);
}
);
layerId = "68C5B637-35C1-4638-A7C2-DD6A34998814";
name = Black;
shapes = (
{
closed = 1;
nodes = (
(412,10,l),
(434,254,o),
(440,509,o),
(428,758,c),
(274,732,l),
(305,472,o),
(307,257,o),
(298,-10,c)
);
},
{
closed = 1;
nodes = (
(662,775,l),
(41,750,l),
(45,681,l),
(661,674,l)
);
}
);
width = 702;
},
{
anchors = (
{
name = bottom;
pos = (362,-10);
},
{
name = cedilla;
pos = (382,20);
},
{
name = top;
pos = (362,800);
}
);
layerId = "267D1DB6-4F39-4280-86D9-F184EF0BD2F7";
name = Black;
shapes = (
{
closed = 1;
nodes = (
(433,13,l),
(461,275,o),
(469,503,o),
(459,761,c),
(264,730,l),
(295,469,o),
(299,254,o),
(289,-13,c)
);
},
{
closed = 1;
nodes = (
(683,783,l),
(36,750,l),
(40,667,l),
(682,658,l)
);
}
);
width = 719;
},
{
anchors = (
{
name = bottom;
pos = (371,-10);
},
{
name = cedilla;
pos = (391,20);
},
{
name = top;
pos = (371,800);
}
);
layerId = "34FE6C3C-97E7-412D-B228-A13225540168";
name = Black;
shapes = (
{
closed = 1;
nodes = (
(455,16,l),
(489,297,o),
(498,498,o),
(491,764,c),
(255,728,l),
(285,466,o),
(291,252,o),
(281,-15,c)
);
},
{
closed = 1;
nodes = (
(705,792,l),
(32,750,l),
(36,654,l),
(704,642,l)
);
}
);
width = 736;
}
);
unicode = 84;
},
{
color = 0;
glyphname = U;
kernLeft = U_1;
kernRight = I_2;
lastChange = "2022-08-23 06:40:10 +0000";
layers = (
{
anchors = (
{
name = bottom;
pos = (388,-30);
},
{
name = ogonek;
pos = (721,16);
},
{
name = top;
pos = (436,800);
}
);
layerId = m002;
name = Black;
shapes = (
{
closed = 1;
nodes = (
(644,-8,o),
(654,386,o),
(657,582,c),
(600,750,l),
(614,504,o),
(614,58,o),
(404,58,cs),
(178,58,o),
(171,672,o),
(187,762,c),
(77,744,l),
(62,514,o),
(119,-8,o),
(390,-8,cs)
);
},
{
closed = 1;
nodes = (
(691,15,l),
(714,289,o),
(717,520,o),
(709,767,c),
(600,750,l),
(619,464,o),
(623,277,o),
(600,0,c)
);
}
);
width = 808;
},
{
anchors = (
{
name = bottom;
pos = (409,-30);
},
{
name = ogonek;
pos = (742,16);
},
{
name = top;
pos = (457,800);
}
);
layerId = m003;
name = Black;
shapes = (
{
closed = 1;
nodes = (
(636,-8,o),
(660,315,o),
(664,511,c),
(560,725,l),
(576,566,o),
(578,111,o),
(407,111,cs),
(281,111,o),
(294,685,o),
(312,775,c),
(38,734,l),
(20,504,o),
(76,-8,o),
(371,-8,cs)
);
},
{
closed = 1;
nodes = (
(791,18,l),
(831,322,o),
(843,521,o),
(837,767,c),
(560,725,l),
(591,459,o),
(598,271,o),
(587,-18,c)
);
}
);
width = 885;
},
{
anchors = (
{
name = bottom;
pos = (393,-30);
},
{
name = ogonek;
pos = (726,16);
},
{
name = top;
pos = (441,800);
}
);
layerId = "68C5B637-35C1-4638-A7C2-DD6A34998814";
name = Black;
shapes = (
{
closed = 1;
nodes = (
(642,-8,o),
(656,368,o),
(659,564,c),
(590,744,l),
(605,520,o),
(605,71,o),
(405,71,cs),
(204,71,o),
(202,675,o),
(218,765,c),
(67,742,l),
(52,512,o),
(108,-8,o),
(385,-8,cs)
);
},
{
closed = 1;
nodes = (
(716,16,l),
(743,297,o),
(749,520,o),
(741,767,c),
(590,744,l),
(612,463,o),
(617,276,o),
(597,-4,c)
);
}
);
width = 827.25;
},
{
anchors = (
{
name = bottom;
pos = (398,-30);
},
{
name = ogonek;
pos = (731,16);
},
{
name = top;
pos = (446,800);
}
);
layerId = "267D1DB6-4F39-4280-86D9-F184EF0BD2F7";
name = Black;
shapes = (
{
closed = 1;
nodes = (
(640,-8,o),
(657,350,o),
(661,546,c),
(580,738,l),
(595,535,o),
(596,84,o),
(406,84,cs),
(230,84,o),
(233,678,o),
(249,768,c),
(57,739,l),
(41,509,o),
(97,-8,o),
(380,-8,cs)
);
},
{
closed = 1;
nodes = (
(741,17,l),
(772,305,o),
(780,520,o),
(773,767,c),
(580,738,l),
(605,462,o),
(611,274,o),
(594,-9,c)
);
}
);
width = 847;
},
{
anchors = (
{
name = bottom;
pos = (404,-30);
},
{
name = ogonek;
pos = (737,16);
},
{
name = top;
pos = (452,800);
}
);
layerId = "34FE6C3C-97E7-412D-B228-A13225540168";
name = Black;
shapes = (
{
closed = 1;
nodes = (
(638,-8,o),
(659,333,o),
(663,529,c),
(570,732,l),
(586,551,o),
(587,98,o),
(407,98,cs),
(256,98,o),
(264,682,o),
(281,772,c),
(48,737,l),
(31,507,o),
(87,-8,o),
(376,-8,cs)
);
},
{
closed = 1;
nodes = (
(766,18,l),
(802,314,o),
(812,521,o),
(805,767,c),
(570,732,l),
(598,461,o),
(605,273,o),
(591,-13,c)
);
}
);
width = 865.75;
}
);
metricRight = I;
unicode = 85;
},
{
color = 3;
glyphname = V;
kernLeft = V_1;
kernRight = V_2;
lastChange = "2022-08-23 06:31:59 +0000";
layers = (
{
layerId = m002;
name = Black;
shapes = (
{
closed = 1;
nodes = (
(395,5,l),
(369,93,l),
(303,313,o),
(252,487,o),
(137,755,c),
(45,740,l),
(190,447,o),
(259,245,o),
(349,-6,c)
);
},
{
closed = 1;
nodes = (
(452,184,o),
(579,503,o),
(702,748,c),
(591,763,l),
(495,554,o),
(395,270,o),
(337,66,c),
(395,5,l)
);
}
);
width = 747;
},
{
layerId = m003;
name = Black;
shapes = (
{
closed = 1;
nodes = (
(504,5,l),
(440,144,l),
(379,351,o),
(298,560,o),
(203,774,c),
(27,740,l),
(190,452,o),
(298,245,o),
(397,-9,c)
);
},
{
closed = 1;
nodes = (
(568,166,o),
(734,526,o),
(840,748,c),
(526,772,l),
(452,518,o),
(429,414,o),
(386,108,c),
(504,5,l)
);
}
);
width = 867;
},
{
layerId = "68C5B637-35C1-4638-A7C2-DD6A34998814";
name = Black;
shapes = (
{
closed = 1;
nodes = (
(422,5,l),
(387,106,l),
(322,323,o),
(264,505,o),
(154,760,c),
(41,740,l),
(190,448,o),
(269,245,o),
(361,-7,c)
);
},
{
closed = 1;
nodes = (
(481,180,o),
(618,509,o),
(737,748,c),
(575,765,l),
(484,545,o),
(404,306,o),
(349,77,c),
(422,5,l)
);
}
);
width = 777;
},
{
layerId = "267D1DB6-4F39-4280-86D9-F184EF0BD2F7";
name = Black;
shapes = (
{
closed = 1;
nodes = (
(449,5,l),
(405,119,l),
(341,332,o),
(275,523,o),
(170,765,c),
(36,740,l),
(190,449,o),
(279,245,o),
(373,-8,c)
);
},
{
closed = 1;
nodes = (
(510,175,o),
(657,515,o),
(771,748,c),
(559,767,l),
(473,536,o),
(412,342,o),
(361,87,c),
(449,5,l)
);
}
);
width = 807;
},
{
layerId = "34FE6C3C-97E7-412D-B228-A13225540168";
name = Black;
shapes = (
{
closed = 1;
nodes = (
(477,5,l),
(423,132,l),
(360,342,o),
(287,542,o),
(187,770,c),
(32,740,l),
(190,451,o),
(289,245,o),
(385,-8,c)
);
},
{
closed = 1;
nodes = (
(539,171,o),
(696,521,o),
(806,748,c),
(543,770,l),
(463,527,o),
(421,378,o),
(374,98,c),
(477,5,l)
);
}
);
width = 837;
}
);
unicode = 86;
},
{
color = 0;
glyphname = W;
kernLeft = W_1;
kernRight = W_2;
lastChange = "2022-08-23 06:31:59 +0000";
layers = (
{
anchors = (
{
name = bottom;
pos = (531,-38);
},
{
name = top;
pos = (577,800);
}
);
layerId = m002;
name = Black;
shapes = (
{
closed = 1;
nodes = (
(1025,-17,o),
(1038,491,o),
(1035,755,c),
(926,736,l),
(955,400,o),
(905,52,o),
(746,52,cs),
(581,52,o),
(611,497,o),
(627,728,c),
(517,722,l),
(534,461,o),
(519,-17,o),
(757,-17,cs)
);
},
{
closed = 1;
nodes = (
(546,-8,o),
(557,375,o),
(561,571,c),
(517,722,l),
(506,543,o),
(517,61,o),
(356,61,cs),
(179,61,o),
(174,655,o),
(188,745,c),
(78,740,l),
(63,490,o),
(99,-8,o),
(343,-8,cs)
);
}
);
width = 1110;
},
{
anchors = (
{
name = bottom;
pos = (596,-38);
},
{
name = top;
pos = (642,800);
}
);
layerId = m003;
name = Black;
shapes = (
{
closed = 1;
nodes = (
(1180,-17,o),
(1210,461,o),
(1206,772,c),
(909,723,l),
(955,500,o),
(980,102,o),
(839,102,cs),
(709,102,o),
(761,579,o),
(784,736,c),
(500,715,l),
(482,465,o),
(588,-17,o),
(853,-17,cs)
);
},
{
closed = 1;
nodes = (
(596,-8,o),
(620,285,o),
(624,481,c),
(500,715,l),
(487,536,o),
(548,111,o),
(393,111,cs),
(269,111,o),
(304,655,o),
(322,745,c),
(38,724,l),
(20,474,o),
(76,-8,o),
(361,-8,cs)
);
}
);
width = 1241;
},
{
anchors = (
{
name = bottom;
pos = (547,-38);
},
{
name = top;
pos = (593,800);
}
);
layerId = "68C5B637-35C1-4638-A7C2-DD6A34998814";
name = Black;
shapes = (
{
closed = 1;
nodes = (
(1064,-17,o),
(1081,484,o),
(1078,759,c),
(922,733,l),
(955,425,o),
(924,65,o),
(769,65,cs),
(613,65,o),
(649,518,o),
(666,730,c),
(513,720,l),
(521,462,o),
(536,-17,o),
(781,-17,cs)
);
},
{
closed = 1;
nodes = (
(559,-8,o),
(573,353,o),
(577,549,c),
(513,720,l),
(501,541,o),
(525,74,o),
(365,74,cs),
(202,74,o),
(207,655,o),
(222,745,c),
(68,736,l),
(52,486,o),
(93,-8,o),
(348,-8,cs)
);
}
);
width = 1142.75;
},
{
anchors = (
{
name = bottom;
pos = (563,-38);
},
{
name = top;
pos = (609,800);
}
);
layerId = "267D1DB6-4F39-4280-86D9-F184EF0BD2F7";
name = Black;
shapes = (
{
closed = 1;
nodes = (
(1103,-17,o),
(1124,476,o),
(1121,763,c),
(918,730,l),
(955,450,o),
(943,77,o),
(792,77,cs),
(645,77,o),
(686,538,o),
(705,732,c),
(509,718,l),
(508,463,o),
(553,-17,o),
(805,-17,cs)
);
},
{
closed = 1;
nodes = (
(571,-8,o),
(589,330,o),
(593,526,c),
(509,718,l),
(496,539,o),
(533,86,o),
(374,86,cs),
(224,86,o),
(239,655,o),
(255,745,c),
(58,732,l),
(41,482,o),
(87,-8,o),
(352,-8,cs)
);
}
);
width = 1175.5;
},
{
anchors = (
{
name = bottom;
pos = (580,-38);
},
{
name = top;
pos = (626,800);
}
);
layerId = "34FE6C3C-97E7-412D-B228-A13225540168";
name = Black;
shapes = (
{
closed = 1;
nodes = (
(1142,-17,o),
(1167,469,o),
(1164,768,c),
(914,727,l),
(955,475,o),
(962,90,o),
(816,90,cs),
(677,90,o),
(724,559,o),
(745,734,c),
(505,717,l),
(495,464,o),
(571,-17,o),
(829,-17,cs)
);
},
{
closed = 1;
nodes = (
(584,-8,o),
(605,308,o),
(609,504,c),
(505,717,l),
(492,538,o),
(541,99,o),
(384,99,cs),
(247,99,o),
(272,655,o),
(289,745,c),
(48,728,l),
(31,478,o),
(82,-8,o),
(357,-8,cs)
);
}
);
width = 1208.25;
}
);
unicode = 87;
},
{
color = 3;
glyphname = X;
lastChange = "2022-08-23 06:31:59 +0000";
layers = (
{
layerId = m002;
name = Black;
shapes = (
{
closed = 1;
nodes = (
(307,200,o),
(507,548,o),
(589,733,c),
(539,759,l),
(450,560,o),
(277,276,o),
(45,66,c),
(111,-10,l)
);
},
{
closed = 1;
nodes = (
(698,21,l),
(580,253,o),
(353,585,o),
(156,761,c),
(70,730,l),
(277,545,o),
(440,295,o),
(580,-3,c)
);
}
);
width = 743;
},
{
layerId = m003;
name = Black;
shapes = (
{
closed = 1;
nodes = (
(394,177,o),
(627,555,o),
(691,722,c),
(608,759,l),
(505,559,o),
(336,378,o),
(27,146,c),
(136,-19,l)
);
},
{
closed = 1;
nodes = (
(793,48,l),
(666,280,o),
(397,658,o),
(224,767,c),
(53,703,l),
(280,467,o),
(394,223,o),
(463,-19,c)
);
}
);
width = 820;
},
{
layerId = "68C5B637-35C1-4638-A7C2-DD6A34998814";
name = Black;
shapes = (
{
closed = 1;
nodes = (
(329,194,o),
(537,550,o),
(615,730,c),
(556,759,l),
(464,560,o),
(292,302,o),
(41,86,c),
(117,-12,l)
);
},
{
closed = 1;
nodes = (
(722,28,l),
(602,260,o),
(364,603,o),
(173,763,c),
(66,723,l),
(278,526,o),
(429,277,o),
(551,-7,c)
);
}
);
width = 762.25;
},
{
layerId = "267D1DB6-4F39-4280-86D9-F184EF0BD2F7";
name = Black;
shapes = (
{
closed = 1;
nodes = (
(351,188,o),
(567,552,o),
(640,727,c),
(573,759,l),
(478,560,o),
(307,327,o),
(36,106,c),
(123,-14,l)
);
},
{
closed = 1;
nodes = (
(746,35,l),
(623,267,o),
(375,621,o),
(190,764,c),
(62,716,l),
(279,506,o),
(417,259,o),
(522,-11,c)
);
}
);
width = 781.5;
},
{
layerId = "34FE6C3C-97E7-412D-B228-A13225540168";
name = Black;
shapes = (
{
closed = 1;
nodes = (
(373,183,o),
(597,554,o),
(666,725,c),
(591,759,l),
(492,560,o),
(322,353,o),
(32,126,c),
(130,-16,l)
);
},
{
closed = 1;
nodes = (
(770,42,l),
(645,274,o),
(386,640,o),
(207,766,c),
(58,710,l),
(280,487,o),
(406,241,o),
(493,-15,c)
);
}
);
width = 800.75;
}
);
unicode = 88;
},
{
color = 0;
glyphname = Y;
kernLeft = Y_1;
kernRight = Y_2;
lastChange = "2022-08-23 06:31:59 +0000";
layers = (
{
anchors = (
{
name = bottom;
pos = (353,-30);
},
{
name = top;
pos = (353,800);
}
);
guides = (
{
pos = (633,250);
}
);
layerId = m002;
name = Black;
shapes = (
{
closed = 1;
nodes = (
(645,353,o),
(637,768,c),
(527,759,l),
(533,573,o),
(562,464,o),
(550,283,cs),
(540,131,o),
(432,41,o),
(202,66,c),
(207,-27,l),
(677,-27,o)
);
},
{
closed = 1;
nodes = (
(510,242,o),
(584,441,o),
(584,691,c),
(527,759,l),
(534,506,o),
(499,305,o),
(356,305,cs),
(207,305,o),
(156,512,o),
(184,756,c),
(78,748,l),
(65,573,o),
(92,242,o),
(340,242,cs)
);
}
);
width = 736;
},
{
anchors = (
{
name = bottom;
pos = (366,-30);
},
{
name = top;
pos = (366,800);
}
);
guides = (
{
pos = (646,250);
}
);
layerId = m003;
name = Black;
shapes = (
{
closed = 1;
nodes = (
(711,293,o),
(700,768,c),
(444,740,l),
(476,580,o),
(513,441,o),
(513,336,cs),
(513,118,o),
(288,153,o),
(176,163,c),
(194,-27,l),
(675,-66,o)
);
},
{
closed = 1;
nodes = (
(515,242,o),
(583,472,o),
(587,638,c),
(444,740,l),
(470,602,o),
(499,361,o),
(358,361,cs),
(226,361,o),
(260,641,o),
(296,762,c),
(42,741,l),
(24,530,o),
(51,242,o),
(310,242,cs)
);
}
);
width = 749;
},
{
anchors = (
{
name = bottom;
pos = (356,-30);
},
{
name = top;
pos = (356,800);
}
);
layerId = "68C5B637-35C1-4638-A7C2-DD6A34998814";
name = Black;
shapes = (
{
closed = 1;
nodes = (
(662,338,o),
(653,768,c),
(506,754,l),
(519,575,o),
(550,458,o),
(541,296,cs),
(533,128,o),
(396,69,o),
(196,90,c),
(204,-27,l),
(677,-37,o)
);
},
{
closed = 1;
nodes = (
(511,242,o),
(584,449,o),
(585,678,c),
(506,754,l),
(518,530,o),
(499,319,o),
(357,319,cs),
(212,319,o),
(182,544,o),
(212,758,c),
(69,746,l),
(55,562,o),
(82,242,o),
(333,242,cs)
);
}
);
width = 739.25;
},
{
anchors = (
{
name = bottom;
pos = (359,-30);
},
{
name = top;
pos = (359,800);
}
);
layerId = "267D1DB6-4F39-4280-86D9-F184EF0BD2F7";
name = Black;
shapes = (
{
closed = 1;
nodes = (
(678,323,o),
(669,768,c),
(485,749,l),
(505,577,o),
(538,452,o),
(532,309,cs),
(526,125,o),
(360,97,o),
(189,114,c),
(201,-27,l),
(676,-47,o)
);
},
{
closed = 1;
nodes = (
(512,242,o),
(584,457,o),
(586,665,c),
(485,749,l),
(502,554,o),
(499,333,o),
(357,333,cs),
(217,333,o),
(208,576,o),
(240,759,c),
(60,744,l),
(45,551,o),
(72,242,o),
(325,242,cs)
);
}
);
width = 742.5;
},
{
anchors = (
{
name = bottom;
pos = (363,-30);
},
{
name = top;
pos = (363,800);
}
);
layerId = "34FE6C3C-97E7-412D-B228-A13225540168";
name = Black;
shapes = (
{
closed = 1;
nodes = (
(695,308,o),
(685,768,c),
(465,745,l),
(491,579,o),
(526,447,o),
(523,323,cs),
(520,122,o),
(324,125,o),
(183,139,c),
(198,-27,l),
(676,-56,o)
);
},
{
closed = 1;
nodes = (
(514,242,o),
(584,465,o),
(587,652,c),
(465,745,l),
(486,578,o),
(499,347,o),
(358,347,cs),
(222,347,o),
(234,609,o),
(268,761,c),
(51,743,l),
(35,541,o),
(62,242,o),
(318,242,cs)
);
}
);
width = 745.75;
}
);
metricRight = I;
unicode = 89;
},
{
color = 3;
glyphname = Z;
kernLeft = Z_1;
kernRight = Z_2;
lastChange = "2022-08-23 06:31:59 +0000";
layers = (
{
anchors = (
{
name = bottom;
pos = (357,-30);
},
{
name = top;
pos = (357,800);
}
);
layerId = m002;
name = Black;
shapes = (
{
closed = 1;
nodes = (
(327,188,o),
(520,475,o),
(626,693,c),
(518,705,l),
(426,464,o),
(220,200,o),
(65,69,c),
(108,15,l)
);
},
{
closed = 1;
nodes = (
(592,61,l),
(430,86,o),
(251,69,o),
(122,44,c),
(65,69,l),
(70,-12,l),
(179,5,o),
(389,21,o),
(576,-29,c)
);
},
{
closed = 1;
nodes = (
(290,651,o),
(447,668,o),
(626,693,c),
(622,733,l),
(514,716,o),
(326,712,o),
(113,750,c),
(99,664,l)
);
}
);
width = 691;
},
{
anchors = (
{
name = bottom;
pos = (382,-30);
},
{
name = top;
pos = (382,800);
}
);
layerId = m003;
name = Black;
shapes = (
{
closed = 1;
nodes = (
(392,163,o),
(619,479,o),
(711,661,c),
(404,703,l),
(346,482,o),
(173,249,o),
(33,134,c),
(187,42,l)
);
},
{
closed = 1;
nodes = (
(685,141,l),
(551,149,o),
(360,127,o),
(223,94,c),
(33,134,l),
(46,-12,l),
(175,5,o),
(441,11,o),
(661,-19,c)
);
},
{
closed = 1;
nodes = (
(294,595,o),
(500,609,o),
(711,661,c),
(696,733,l),
(568,716,o),
(297,710,o),
(77,750,c),
(52,600,l)
);
}
);
width = 743;
},
{
anchors = (
{
name = bottom;
pos = (363,-30);
},
{
name = top;
pos = (363,800);
}
);
layerId = "68C5B637-35C1-4638-A7C2-DD6A34998814";
name = Black;
shapes = (
{
closed = 1;
nodes = (
(343,182,o),
(545,476,o),
(647,685,c),
(490,705,l),
(406,469,o),
(208,212,o),
(57,85,c),
(128,22,l)
);
},
{
closed = 1;
nodes = (
(615,81,l),
(460,102,o),
(278,84,o),
(147,57,c),
(57,85,l),
(64,-12,l),
(178,5,o),
(402,19,o),
(597,-26,c)
);
},
{
closed = 1;
nodes = (
(291,637,o),
(460,653,o),
(647,685,c),
(641,733,l),
(528,716,o),
(319,712,o),
(104,750,c),
(87,648,l)
);
}
);
width = 704;
},
{
anchors = (
{
name = bottom;
pos = (369,-30);
},
{
name = top;
pos = (369,800);
}
);
layerId = "267D1DB6-4F39-4280-86D9-F184EF0BD2F7";
name = Black;
shapes = (
{
closed = 1;
nodes = (
(359,176,o),
(570,477,o),
(668,677,c),
(461,704,l),
(386,473,o),
(196,224,o),
(49,101,c),
(148,29,l)
);
},
{
closed = 1;
nodes = (
(638,101,l),
(490,118,o),
(305,98,o),
(172,69,c),
(49,101,l),
(58,-12,l),
(177,5,o),
(415,16,o),
(618,-24,c)
);
},
{
closed = 1;
nodes = (
(292,623,o),
(473,638,o),
(668,677,c),
(659,733,l),
(541,716,o),
(312,711,o),
(95,750,c),
(75,632,l)
);
}
);
width = 717;
},
{
anchors = (
{
name = bottom;
pos = (376,-30);
},
{
name = top;
pos = (376,800);
}
);
layerId = "34FE6C3C-97E7-412D-B228-A13225540168";
name = Black;
shapes = (
{
closed = 1;
nodes = (
(376,170,o),
(595,478,o),
(690,669,c),
(433,704,l),
(366,478,o),
(185,237,o),
(41,118,c),
(168,36,l)
);
},
{
closed = 1;
nodes = (
(662,121,l),
(521,134,o),
(333,113,o),
(198,82,c),
(41,118,l),
(52,-12,l),
(176,5,o),
(428,14,o),
(640,-21,c)
);
},
{
closed = 1;
nodes = (
(293,609,o),
(487,624,o),
(690,669,c),
(678,733,l),
(555,716,o),
(305,711,o),
(86,750,c),
(64,616,l)
);
}
);
width = 730;
}
);
unicode = 90;
},
{
color = 3;
glyphname = A.salt;
kernLeft = A_1;
kernRight = A_2;
lastChange = "2022-08-23 06:31:59 +0000";
layers = (
{
anchors = (
{
name = bottom;
pos = (338,0);
},
{
name = ogonek;
pos = (741,24);
},
{
name = top;
pos = (338,800);
}
);
layerId = m002;
shapes = (
{
closed = 1;
nodes = (
(230,203,o),
(320,452,o),
(393,698,c),
(413,748,l),
(361,750,l),
(277,509,o),
(177,258,o),
(45,8,c),
(131,-9,l)
);
},
{
closed = 1;
nodes = (
(325,182,o),
(471,191,o),
(563,222,c),
(555,263,l),
(470,252,o),
(337,240,o),
(218,263,c),
(190,197,l)
);
},
{
closed = 1;
nodes = (
(693,12,l),
(607,205,o),
(483,537,o),
(413,748,c),
(345,686,l),
(387,487,o),
(489,220,o),
(569,-6,c)
);
}
);
width = 738;
},
{
anchors = (
{
name = bottom;
pos = (397,0);
},
{
name = ogonek;
pos = (800,24);
},
{
name = top;
pos = (397,800);
}
);
layerId = m003;
shapes = (
{
closed = 1;
nodes = (
(293,227,o),
(340,414,o),
(389,632,c),
(516,728,l),
(337,750,l),
(238,445,o),
(178,269,o),
(37,17,c),
(209,-17,l)
);
},
{
closed = 1;
nodes = (
(361,153,o),
(543,151,o),
(657,213,c),
(648,294,l),
(541,279,o),
(376,247,o),
(228,313,c),
(192,182,l)
);
},
{
closed = 1;
nodes = (
(810,24,l),
(716,202,o),
(580,503,o),
(516,728,c),
(346,675,l),
(414,361,o),
(437,229,o),
(528,-13,c)
);
}
);
width = 847;
},
{
anchors = (
{
name = bottom;
pos = (353,0);
},
{
name = ogonek;
pos = (756,24);
},
{
name = top;
pos = (353,800);
}
);
layerId = "68C5B637-35C1-4638-A7C2-DD6A34998814";
shapes = (
{
closed = 1;
nodes = (
(246,209,o),
(325,443,o),
(392,682,c),
(439,743,l),
(355,750,l),
(267,493,o),
(177,261,o),
(43,10,c),
(151,-11,l)
);
},
{
closed = 1;
nodes = (
(334,175,o),
(489,181,o),
(587,220,c),
(578,271,l),
(488,259,o),
(347,242,o),
(221,276,c),
(191,193,l)
);
},
{
closed = 1;
nodes = (
(722,15,l),
(634,204,o),
(507,529,o),
(439,743,c),
(345,683,l),
(394,456,o),
(476,222,o),
(559,-8,c)
);
}
);
width = 765.25;
},
{
anchors = (
{
name = bottom;
pos = (368,0);
},
{
name = ogonek;
pos = (771,24);
},
{
name = top;
pos = (368,800);
}
);
layerId = "267D1DB6-4F39-4280-86D9-F184EF0BD2F7";
shapes = (
{
closed = 1;
nodes = (
(262,215,o),
(330,433,o),
(391,665,c),
(465,738,l),
(349,750,l),
(257,477,o),
(177,264,o),
(41,12,c),
(170,-13,l)
);
},
{
closed = 1;
nodes = (
(343,168,o),
(507,171,o),
(610,218,c),
(601,279,l),
(506,266,o),
(357,244,o),
(223,288,c),
(191,189,l)
);
},
{
closed = 1;
nodes = (
(751,18,l),
(661,203,o),
(531,520,o),
(465,738,c),
(345,680,l),
(401,424,o),
(463,224,o),
(549,-10,c)
);
}
);
width = 792.5;
},
{
anchors = (
{
name = bottom;
pos = (383,0);
},
{
name = ogonek;
pos = (786,24);
},
{
name = top;
pos = (383,800);
}
);
layerId = "34FE6C3C-97E7-412D-B228-A13225540168";
shapes = (
{
closed = 1;
nodes = (
(278,221,o),
(335,424,o),
(390,649,c),
(491,733,l),
(343,750,l),
(248,461,o),
(178,267,o),
(39,15,c),
(190,-15,l)
);
},
{
closed = 1;
nodes = (
(352,161,o),
(525,161,o),
(634,216,c),
(625,287,l),
(524,273,o),
(367,246,o),
(226,301,c),
(192,186,l)
);
},
{
closed = 1;
nodes = (
(781,21,l),
(689,203,o),
(556,512,o),
(491,733,c),
(346,678,l),
(408,393,o),
(450,227,o),
(539,-11,c)
);
}
);
width = 819.75;
}
);
},
{
color = 3;
glyphname = F.salt;
kernLeft = I_1;
kernRight = F_2;
lastChange = "2022-08-23 06:31:59 +0000";
layers = (
{
layerId = m002;
shapes = (
{
closed = 1;
nodes = (
(216,16,l),
(191,229,o),
(177,373,o),
(177,516,cs),
(177,676,o),
(238,712,o),
(432,696,c),
(417,776,l),
(133,776,o),
(95,590,o),
(95,381,cs),
(95,298,o),
(102,152,o),
(107,5,c)
);
},
{
closed = 1;
nodes = (
(377,414,l),
(312,406,o),
(234,398,o),
(131,404,c),
(130,349,l),
(221,342,o),
(305,339,o),
(374,338,c)
);
}
);
width = 477;
},
{
layerId = m003;
shapes = (
{
closed = 1;
nodes = (
(309,33,l),
(266,204,o),
(231,357,o),
(231,449,cs),
(231,587,o),
(325,579,o),
(435,556,c),
(417,776,l),
(101,797,o),
(47,579,o),
(47,262,cs),
(47,179,o),
(51,91,o),
(53,5,c)
);
},
{
closed = 1;
nodes = (
(370,424,l),
(294,408,o),
(202,411,o),
(81,423,c),
(80,311,l),
(187,297,o),
(286,290,o),
(367,288,c)
);
}
);
width = 462;
},
{
layerId = "68C5B637-35C1-4638-A7C2-DD6A34998814";
shapes = (
{
closed = 1;
nodes = (
(239,20,l),
(210,223,o),
(191,369,o),
(191,499,cs),
(191,654,o),
(260,679,o),
(433,661,c),
(417,776,l),
(125,781,o),
(83,587,o),
(83,351,cs),
(83,268,o),
(89,137,o),
(94,5,c)
);
},
{
closed = 1;
nodes = (
(375,417,l),
(308,407,o),
(226,401,o),
(119,409,c),
(118,340,l),
(213,331,o),
(300,327,o),
(372,326,c)
);
}
);
width = 473.25;
},
{
layerId = "267D1DB6-4F39-4280-86D9-F184EF0BD2F7";
shapes = (
{
closed = 1;
nodes = (
(262,24,l),
(229,217,o),
(204,365,o),
(204,482,cs),
(204,632,o),
(282,646,o),
(434,626,c),
(417,776,l),
(117,786,o),
(71,584,o),
(71,321,cs),
(71,238,o),
(76,122,o),
(80,5,c)
);
},
{
closed = 1;
nodes = (
(373,419,l),
(303,407,o),
(218,404,o),
(106,414,c),
(105,330,l),
(204,320,o),
(295,315,o),
(370,313,c)
);
}
);
width = 469.5;
},
{
layerId = "34FE6C3C-97E7-412D-B228-A13225540168";
shapes = (
{
closed = 1;
nodes = (
(286,29,l),
(248,211,o),
(218,361,o),
(218,466,cs),
(218,610,o),
(304,613,o),
(435,591,c),
(417,776,l),
(109,792,o),
(59,582,o),
(59,292,cs),
(59,209,o),
(64,107,o),
(67,5,c)
);
},
{
closed = 1;
nodes = (
(372,422,l),
(299,408,o),
(210,408,o),
(94,419,c),
(93,321,l),
(196,309,o),
(291,303,o),
(369,301,c)
);
}
);
width = 465.75;
}
);
metricLeft = I;
metricRight = E;
},
{
color = 3;
glyphname = L.salt;
kernLeft = I_1;
kernRight = L_2;
lastChange = "2022-08-23 06:40:26 +0000";
layers = (
{
anchors = (
{
name = bottom;
pos = (344,-30);
},
{
name = center;
pos = (306,325);
},
{
name = top;
pos = (204,800);
},
{
name = topright;
pos = (439,720);
}
);
layerId = m002;
shapes = (
{
closed = 1;
nodes = (
(241,-13,o),
(483,-13,c),
(472,98,l),
(198,47,o),
(169,88,o),
(177,287,cs),
(182,407,o),
(196,511,o),
(239,756,c),
(123,750,l),
(111,628,o),
(91,429,o),
(96,253,cs),
(102,35,o)
);
}
);
width = 528;
},
{
anchors = (
{
name = bottom;
pos = (330,-30);
},
{
name = center;
pos = (292,325);
},
{
name = top;
pos = (190,800);
},
{
name = topright;
pos = (425,720);
}
);
layerId = m003;
shapes = (
{
closed = 1;
nodes = (
(258,-36,o),
(517,-13,c),
(477,172,l),
(394,135,o),
(245,102,o),
(245,245,cs),
(245,365,o),
(307,551,o),
(355,761,c),
(69,750,l),
(54,598,o),
(47,533,o),
(47,357,cs),
(47,61,o)
);
}
);
width = 544;
},
{
anchors = (
{
name = bottom;
pos = (341,-30);
},
{
name = center;
pos = (303,325);
},
{
name = top;
pos = (201,800);
},
{
name = topright;
pos = (436,720);
}
);
layerId = "68C5B637-35C1-4638-A7C2-DD6A34998814";
shapes = (
{
closed = 1;
nodes = (
(245,-19,o),
(492,-13,c),
(473,117,l),
(247,69,o),
(188,92,o),
(194,277,cs),
(198,397,o),
(224,521,o),
(268,757,c),
(110,750,l),
(97,621,o),
(80,455,o),
(84,279,cs),
(88,42,o)
);
}
);
width = 532;
},
{
anchors = (
{
name = bottom;
pos = (336,-30);
},
{
name = center;
pos = (298,325);
},
{
name = top;
pos = (196,800);
},
{
name = topright;
pos = (431,720);
}
);
layerId = "267D1DB6-4F39-4280-86D9-F184EF0BD2F7";
shapes = (
{
closed = 1;
nodes = (
(248,-25,o),
(499,-13,c),
(473,135,l),
(295,91,o),
(206,95,o),
(210,266,cs),
(213,386,o),
(251,531,o),
(296,758,c),
(95,750,l),
(82,613,o),
(68,481,o),
(71,305,cs),
(73,48,o)
);
}
);
width = 535;
},
{
anchors = (
{
name = bottom;
pos = (333,-30);
},
{
name = center;
pos = (295,325);
},
{
name = top;
pos = (193,800);
},
{
name = topright;
pos = (428,720);
}
);
layerId = "34FE6C3C-97E7-412D-B228-A13225540168";
shapes = (
{
closed = 1;
nodes = (
(253,-30,o),
(508,-13,c),
(475,154,l),
(344,113,o),
(225,99,o),
(227,256,cs),
(229,376,o),
(279,541,o),
(325,760,c),
(82,750,l),
(68,606,o),
(57,507,o),
(59,331,cs),
(60,55,o)
);
}
);
width = 539;
}
);
metricLeft = I;
},
{
glyphname = C_H;
kernLeft = O_1;
kernRight = I_2;
lastChange = "2022-08-23 06:31:59 +0000";
layers = (
{
layerId = m002;
shapes = (
{
closed = 1;
nodes = (
(477,-2,o),
(543,9,o),
(604,46,c),
(603,109,l),
(543,78,o),
(490,64,o),
(409,64,cs),
(287,64,o),
(165,164,o),
(165,333,cs),
(165,576,o),
(435,736,o),
(847,622,c),
(858,700,l),
(481,822,o),
(65,704,o),
(65,336,cs),
(65,138,o),
(231,-2,o),
(412,-2,cs)
);
},
{
closed = 1;
nodes = (
(761,495,l),
(770,330,o),
(769,173,o),
(764,-9,c),
(847,7,l),
(859,160,o),
(863,340,o),
(860,515,c)
);
},
{
closed = 1;
nodes = (
(1352,7,l),
(1369,232,o),
(1371,517,o),
(1356,757,c),
(1246,734,l),
(1276,472,o),
(1277,258,o),
(1269,-9,c)
);
},
{
closed = 1;
nodes = (
(1317,424,l),
(1177,368,o),
(892,378,o),
(791,392,c),
(784,332,l),
(917,312,o),
(1189,309,o),
(1348,338,c)
);
}
);
width = 1461;
},
{
layerId = m003;
shapes = (
{
closed = 1;
nodes = (
(517,-2,o),
(595,16,o),
(667,54,c),
(667,152,l),
(616,130,o),
(558,117,o),
(503,117,cs),
(400,117,o),
(299,171,o),
(299,315,cs),
(299,476,o),
(500,645,o),
(981,561,c),
(1005,730,l),
(499,860,o),
(32,687,o),
(32,356,cs),
(32,138,o),
(228,-2,o),
(441,-2,cs)
);
},
{
closed = 1;
nodes = (
(733,485,l),
(749,270,o),
(749,151,o),
(742,-18,c),
(946,18,l),
(977,247,o),
(990,343,o),
(992,526,c)
);
},
{
closed = 1;
nodes = (
(1427,30,l),
(1458,322,o),
(1464,465,o),
(1453,750,c),
(1177,700,l),
(1220,398,o),
(1224,304,o),
(1224,-12,c)
);
},
{
closed = 1;
nodes = (
(1390,456,l),
(1231,393,o),
(942,387,o),
(774,412,c),
(764,341,l),
(947,284,o),
(1278,312,o),
(1430,335,c)
);
}
);
width = 1505;
},
{
layerId = "68C5B637-35C1-4638-A7C2-DD6A34998814";
shapes = (
{
closed = 1;
nodes = (
(487,-2,o),
(556,11,o),
(620,48,c),
(619,120,l),
(561,91,o),
(507,77,o),
(433,77,cs),
(315,77,o),
(199,166,o),
(199,329,cs),
(199,551,o),
(451,713,o),
(881,607,c),
(895,708,l),
(486,832,o),
(57,700,o),
(57,341,cs),
(57,138,o),
(230,-2,o),
(419,-2,cs)
);
},
{
closed = 1;
nodes = (
(754,493,l),
(765,315,o),
(764,168,o),
(759,-11,c),
(872,10,l),
(889,182,o),
(895,341,o),
(893,518,c)
);
},
{
closed = 1;
nodes = (
(1371,13,l),
(1391,255,o),
(1394,504,o),
(1380,755,c),
(1229,726,l),
(1262,454,o),
(1264,270,o),
(1258,-10,c)
);
},
{
closed = 1;
nodes = (
(1335,432,l),
(1191,374,o),
(905,380,o),
(787,397,c),
(779,334,l),
(925,305,o),
(1211,310,o),
(1369,337,c)
);
}
);
width = 1472;
},
{
layerId = "267D1DB6-4F39-4280-86D9-F184EF0BD2F7";
shapes = (
{
closed = 1;
nodes = (
(497,-2,o),
(569,13,o),
(636,50,c),
(635,131,l),
(579,104,o),
(524,90,o),
(456,90,cs),
(343,90,o),
(232,168,o),
(232,324,cs),
(232,526,o),
(467,690,o),
(914,592,c),
(932,715,l),
(490,841,o),
(49,696,o),
(49,346,cs),
(49,138,o),
(229,-2,o),
(426,-2,cs)
);
},
{
closed = 1;
nodes = (
(747,490,l),
(760,300,o),
(759,162,o),
(753,-13,c),
(897,13,l),
(918,204,o),
(927,342,o),
(926,521,c)
);
},
{
closed = 1;
nodes = (
(1390,19,l),
(1413,277,o),
(1417,491,o),
(1404,753,c),
(1212,717,l),
(1248,435,o),
(1251,281,o),
(1247,-11,c)
);
},
{
closed = 1;
nodes = (
(1353,440,l),
(1204,380,o),
(917,382,o),
(783,402,c),
(774,336,l),
(932,298,o),
(1233,311,o),
(1389,336,c)
);
}
);
width = 1483;
},
{
layerId = "34FE6C3C-97E7-412D-B228-A13225540168";
shapes = (
{
closed = 1;
nodes = (
(507,-2,o),
(582,15,o),
(652,52,c),
(651,142,l),
(598,117,o),
(541,104,o),
(480,104,cs),
(372,104,o),
(266,170,o),
(266,320,cs),
(266,501,o),
(484,668,o),
(948,577,c),
(969,723,l),
(495,851,o),
(41,692,o),
(41,351,cs),
(41,138,o),
(229,-2,o),
(434,-2,cs)
);
},
{
closed = 1;
nodes = (
(740,488,l),
(755,285,o),
(754,157,o),
(748,-15,c),
(922,16,l),
(948,226,o),
(959,343,o),
(959,524,c)
);
},
{
closed = 1;
nodes = (
(1409,25,l),
(1436,300,o),
(1441,478,o),
(1429,752,c),
(1195,709,l),
(1234,417,o),
(1238,293,o),
(1236,-11,c)
);
},
{
closed = 1;
nodes = (
(1372,448,l),
(1218,387,o),
(930,385,o),
(779,407,c),
(769,339,l),
(940,291,o),
(1256,312,o),
(1410,336,c)
);
}
);
width = 1494;
}
);
metricLeft = C;
metricRight = H;
},
{
glyphname = L_A;
kernLeft = I_1;
kernRight = A_2;
lastChange = "2022-08-23 06:40:37 +0000";
layers = (
{
layerId = m002;
shapes = (
{
closed = 1;
nodes = (
(205,28,l),
(216,280,o),
(225,470,o),
(205,754,c),
(95,745,l),
(132,495,o),
(128,235,o),
(115,15,c)
);
},
{
closed = 1;
nodes = (
(581,103,l),
(438,66,o),
(257,49,o),
(159,69,c),
(115,15,l),
(283,-14,o),
(476,7,o),
(591,15,c)
);
},
{
closed = 1;
nodes = (
(1023,14,l),
(1074,435,o),
(1013,766,o),
(782,766,cs),
(571,766,o),
(482,540,o),
(472,202,c),
(569,208,l),
(564,445,o),
(606,706,o),
(781,706,cs),
(1030,706,o),
(939,167,o),
(916,1,c)
);
},
{
closed = 1;
nodes = (
(685,339,o),
(833,342,o),
(981,370,c),
(972,433,l),
(849,410,o),
(706,399,o),
(547,429,c),
(515,354,l)
);
}
);
width = 1135;
},
{
layerId = m003;
shapes = (
{
closed = 1;
nodes = (
(227,54,l),
(289,280,o),
(324,473,o),
(324,754,c),
(47,766,l),
(98,457,o),
(98,337,o),
(66,25,c)
);
},
{
closed = 1;
nodes = (
(691,181,l),
(523,127,o),
(242,123,o),
(117,143,c),
(66,25,l),
(240,-7,o),
(640,-5,o),
(711,15,c)
);
},
{
closed = 1;
nodes = (
(1070,14,l),
(1130,435,o),
(1059,766,o),
(787,766,cs),
(489,766,o),
(397,452,o),
(426,203,c),
(698,220,l),
(682,265,o),
(670,670,o),
(791,670,cs),
(922,670,o),
(841,95,o),
(816,-17,c)
);
},
{
closed = 1;
nodes = (
(691,335,o),
(894,333,o),
(1021,393,c),
(1011,474,l),
(892,459,o),
(708,427,o),
(543,493,c),
(503,362,l)
);
}
);
width = 1137;
},
{
layerId = "68C5B637-35C1-4638-A7C2-DD6A34998814";
shapes = (
{
closed = 1;
nodes = (
(211,35,l),
(234,280,o),
(250,471,o),
(235,754,c),
(83,750,l),
(124,486,o),
(121,261,o),
(103,18,c)
);
},
{
closed = 1;
nodes = (
(609,123,l),
(459,81,o),
(253,68,o),
(149,88,c),
(103,18,l),
(272,-12,o),
(517,4,o),
(621,15,c)
);
},
{
closed = 1;
nodes = (
(1035,14,l),
(1088,435,o),
(1025,766,o),
(783,766,cs),
(551,766,o),
(461,518,o),
(461,202,c),
(601,211,l),
(594,400,o),
(622,697,o),
(784,697,cs),
(1003,697,o),
(915,149,o),
(891,-3,c)
);
},
{
closed = 1;
nodes = (
(687,338,o),
(848,340,o),
(991,376,c),
(982,443,l),
(860,422,o),
(707,406,o),
(546,445,c),
(512,356,l)
);
}
);
width = 1135.5;
},
{
layerId = "267D1DB6-4F39-4280-86D9-F184EF0BD2F7";
shapes = (
{
closed = 1;
nodes = (
(216,41,l),
(252,280,o),
(275,472,o),
(265,754,c),
(71,755,l),
(115,476,o),
(113,286,o),
(91,20,c)
);
},
{
closed = 1;
nodes = (
(636,142,l),
(480,96,o),
(249,86,o),
(138,106,c),
(91,20,l),
(261,-10,o),
(558,1,o),
(651,15,c)
);
},
{
closed = 1;
nodes = (
(1047,14,l),
(1102,435,o),
(1036,766,o),
(784,766,cs),
(530,766,o),
(440,496,o),
(449,202,c),
(633,214,l),
(623,355,o),
(638,688,o),
(786,688,cs),
(976,688,o),
(890,131,o),
(866,-8,c)
);
},
{
closed = 1;
nodes = (
(688,337,o),
(863,338,o),
(1001,382,c),
(992,453,l),
(871,434,o),
(707,413,o),
(545,461,c),
(509,358,l)
);
}
);
width = 1137;
},
{
layerId = "34FE6C3C-97E7-412D-B228-A13225540168";
shapes = (
{
closed = 1;
nodes = (
(222,48,l),
(271,280,o),
(300,473,o),
(295,754,c),
(59,761,l),
(107,467,o),
(106,312,o),
(79,23,c)
);
},
{
closed = 1;
nodes = (
(664,162,l),
(502,112,o),
(246,105,o),
(128,125,c),
(79,23,l),
(251,-8,o),
(599,-2,o),
(681,15,c)
);
},
{
closed = 1;
nodes = (
(1059,14,l),
(1116,435,o),
(1048,766,o),
(786,766,cs),
(510,766,o),
(419,474,o),
(438,203,c),
(666,217,l),
(653,310,o),
(654,679,o),
(789,679,cs),
(949,679,o),
(866,113,o),
(841,-12,c)
);
},
{
closed = 1;
nodes = (
(690,336,o),
(879,336,o),
(1011,388,c),
(1002,464,l),
(882,447,o),
(708,420,o),
(544,477,c),
(506,360,l)
);
}
);
width = 1136.5;
}
);
metricLeft = L;
metricRight = A;
},
{
glyphname = N_T;
kernLeft = I_1;
kernRight = T_2;
lastChange = "2022-08-23 06:31:59 +0000";
layers = (
{
layerId = m002;
shapes = (
{
closed = 1;
nodes = (
(201,77,o),
(205,530,o),
(194,727,c),
(102,712,l),
(113,484,o),
(113,230,o),
(95,0,c),
(202,0,l)
);
},
{
closed = 1;
nodes = (
(745,0,o),
(742,339,o),
(703,593,c),
(595,583,l),
(643,339,o),
(663,61,o),
(545,61,cs),
(405,61,o),
(261,467,o),
(194,727,c),
(167,540,l),
(225,307,o),
(389,0,o),
(552,0,cs)
);
},
{
closed = 1;
nodes = (
(950,7,l),
(967,232,o),
(971,515,o),
(956,755,c),
(844,734,l),
(875,475,o),
(875,259,o),
(867,-8,c)
);
},
{
closed = 1;
nodes = (
(1200,766,l),
(585,750,l),
(589,694,l),
(1199,690,l)
);
}
);
width = 1245;
},
{
layerId = m003;
shapes = (
{
closed = 1;
nodes = (
(321,263,o),
(306,448,o),
(260,742,c),
(57,704,l),
(70,357,o),
(78,341,o),
(47,0,c),
(324,-6,l)
);
},
{
closed = 1;
nodes = (
(811,0,o),
(808,338,o),
(762,593,c),
(526,569,l),
(586,370,o),
(649,111,o),
(551,111,cs),
(472,111,o),
(339,482,o),
(260,742,c),
(188,578,l),
(211,455,o),
(371,0,o),
(584,0,cs)
);
},
{
closed = 1;
nodes = (
(1096,18,l),
(1136,318,o),
(1146,492,o),
(1142,767,c),
(865,725,l),
(895,463,o),
(902,249,o),
(892,-18,c)
);
},
{
closed = 1;
nodes = (
(1346,800,l),
(547,750,l),
(551,640,l),
(1345,626,l)
);
}
);
width = 1373;
},
{
layerId = "68C5B637-35C1-4638-A7C2-DD6A34998814";
shapes = (
{
closed = 1;
nodes = (
(231,124,o),
(230,510,o),
(211,731,c),
(91,710,l),
(102,452,o),
(104,258,o),
(83,0,c),
(233,-1,l)
);
},
{
closed = 1;
nodes = (
(762,0,o),
(759,339,o),
(718,593,c),
(578,580,l),
(629,347,o),
(660,74,o),
(547,74,cs),
(422,74,o),
(281,471,o),
(211,731,c),
(172,550,l),
(222,344,o),
(385,0,o),
(560,0,cs)
);
},
{
closed = 1;
nodes = (
(987,10,l),
(1009,254,o),
(1015,509,o),
(1003,758,c),
(849,732,l),
(880,472,o),
(882,257,o),
(873,-10,c)
);
},
{
closed = 1;
nodes = (
(1237,775,l),
(576,750,l),
(580,681,l),
(1236,674,l)
);
}
);
width = 1277;
},
{
layerId = "267D1DB6-4F39-4280-86D9-F184EF0BD2F7";
shapes = (
{
closed = 1;
nodes = (
(261,170,o),
(255,489,o),
(227,735,c),
(80,708,l),
(91,420,o),
(95,286,o),
(71,0,c),
(263,-3,l)
);
},
{
closed = 1;
nodes = (
(778,0,o),
(775,339,o),
(733,593,c),
(561,576,l),
(615,355,o),
(656,86,o),
(548,86,cs),
(439,86,o),
(300,475,o),
(227,735,c),
(177,559,l),
(218,381,o),
(380,0,o),
(568,0,cs)
);
},
{
closed = 1;
nodes = (
(1023,13,l),
(1051,275,o),
(1059,503,o),
(1049,761,c),
(854,730,l),
(885,469,o),
(889,254,o),
(879,-13,c)
);
},
{
closed = 1;
nodes = (
(1273,783,l),
(566,750,l),
(570,667,l),
(1272,658,l)
);
}
);
width = 1309;
},
{
layerId = "34FE6C3C-97E7-412D-B228-A13225540168";
shapes = (
{
closed = 1;
nodes = (
(291,217,o),
(281,469,o),
(244,739,c),
(69,706,l),
(81,389,o),
(87,314,o),
(59,0,c),
(294,-4,l)
);
},
{
closed = 1;
nodes = (
(795,0,o),
(792,339,o),
(748,593,c),
(544,573,l),
(601,363,o),
(653,99,o),
(550,99,cs),
(456,99,o),
(320,479,o),
(244,739,c),
(183,569,l),
(215,418,o),
(376,0,o),
(576,0,cs)
);
},
{
closed = 1;
nodes = (
(1060,16,l),
(1094,297,o),
(1103,498,o),
(1096,764,c),
(860,728,l),
(890,466,o),
(896,252,o),
(886,-15,c)
);
},
{
closed = 1;
nodes = (
(1310,792,l),
(557,750,l),
(561,654,l),
(1309,642,l)
);
}
);
width = 1341;
}
);
metricLeft = N;
metricRight = T;
},
{
glyphname = T_H;
kernLeft = T_1;
kernRight = I_2;
lastChange = "2022-08-23 06:31:59 +0000";
layers = (
{
layerId = m002;
shapes = (
{
closed = 1;
nodes = (
(390,7,l),
(407,232,o),
(411,515,o),
(396,755,c),
(284,734,l),
(315,475,o),
(315,259,o),
(307,-8,c)
);
},
{
closed = 1;
nodes = (
(687,7,l),
(699,160,o),
(703,380,o),
(700,555,c),
(601,535,l),
(610,370,o),
(609,173,o),
(604,-9,c)
);
},
{
closed = 1;
nodes = (
(700,766,l),
(45,750,l),
(49,694,l),
(699,690,l)
);
},
{
closed = 1;
nodes = (
(757,312,o),
(1029,309,o),
(1188,338,c),
(1157,424,l),
(1017,368,o),
(732,378,o),
(631,392,c),
(624,332,l)
);
},
{
closed = 1;
nodes = (
(1192,7,l),
(1209,232,o),
(1211,517,o),
(1196,757,c),
(1086,734,l),
(1116,472,o),
(1117,258,o),
(1109,-9,c)
);
}
);
width = 1301;
},
{
layerId = m003;
shapes = (
{
closed = 1;
nodes = (
(476,18,l),
(516,318,o),
(526,492,o),
(522,767,c),
(245,725,l),
(275,463,o),
(282,249,o),
(272,-18,c)
);
},
{
closed = 1;
nodes = (
(886,18,l),
(917,247,o),
(930,393,o),
(932,576,c),
(673,535,l),
(689,320,o),
(689,151,o),
(682,-18,c)
);
},
{
closed = 1;
nodes = (
(876,800,l),
(27,750,l),
(31,640,l),
(875,626,l)
);
},
{
closed = 1;
nodes = (
(887,284,o),
(1218,312,o),
(1370,335,c),
(1330,456,l),
(1171,393,o),
(882,387,o),
(714,412,c),
(704,341,l)
);
},
{
closed = 1;
nodes = (
(1367,30,l),
(1398,322,o),
(1404,465,o),
(1393,750,c),
(1117,700,l),
(1160,398,o),
(1164,304,o),
(1164,-12,c)
);
}
);
width = 1445;
},
{
layerId = "68C5B637-35C1-4638-A7C2-DD6A34998814";
shapes = (
{
closed = 1;
nodes = (
(412,10,l),
(434,254,o),
(440,509,o),
(428,758,c),
(274,732,l),
(305,472,o),
(307,257,o),
(298,-10,c)
);
},
{
closed = 1;
nodes = (
(737,10,l),
(754,182,o),
(760,383,o),
(758,560,c),
(619,535,l),
(630,358,o),
(629,168,o),
(624,-11,c)
);
},
{
closed = 1;
nodes = (
(744,775,l),
(41,750,l),
(45,681,l),
(743,674,l)
);
},
{
closed = 1;
nodes = (
(790,305,o),
(1076,310,o),
(1234,337,c),
(1200,432,l),
(1056,374,o),
(770,380,o),
(652,397,c),
(644,334,l)
);
},
{
closed = 1;
nodes = (
(1236,13,l),
(1256,255,o),
(1259,504,o),
(1245,755,c),
(1094,726,l),
(1127,454,o),
(1129,270,o),
(1123,-10,c)
);
}
);
width = 1337;
},
{
layerId = "267D1DB6-4F39-4280-86D9-F184EF0BD2F7";
shapes = (
{
closed = 1;
nodes = (
(433,13,l),
(461,275,o),
(469,503,o),
(459,761,c),
(264,730,l),
(295,469,o),
(299,254,o),
(289,-13,c)
);
},
{
closed = 1;
nodes = (
(787,13,l),
(808,204,o),
(817,386,o),
(816,565,c),
(637,535,l),
(650,345,o),
(649,162,o),
(643,-13,c)
);
},
{
closed = 1;
nodes = (
(788,783,l),
(36,750,l),
(40,667,l),
(787,658,l)
);
},
{
closed = 1;
nodes = (
(822,298,o),
(1123,311,o),
(1279,336,c),
(1243,440,l),
(1094,380,o),
(807,382,o),
(673,402,c),
(664,336,l)
);
},
{
closed = 1;
nodes = (
(1280,19,l),
(1303,277,o),
(1307,491,o),
(1294,753,c),
(1102,717,l),
(1138,435,o),
(1141,281,o),
(1137,-11,c)
);
}
);
width = 1373;
},
{
layerId = "34FE6C3C-97E7-412D-B228-A13225540168";
shapes = (
{
closed = 1;
nodes = (
(455,16,l),
(489,297,o),
(498,498,o),
(491,764,c),
(255,728,l),
(285,466,o),
(291,252,o),
(281,-15,c)
);
},
{
closed = 1;
nodes = (
(837,16,l),
(863,226,o),
(874,390,o),
(874,571,c),
(655,535,l),
(670,333,o),
(669,157,o),
(663,-15,c)
);
},
{
closed = 1;
nodes = (
(832,792,l),
(32,750,l),
(36,654,l),
(831,642,l)
);
},
{
closed = 1;
nodes = (
(855,291,o),
(1171,312,o),
(1325,336,c),
(1287,448,l),
(1133,387,o),
(845,385,o),
(694,407,c),
(684,339,l)
);
},
{
closed = 1;
nodes = (
(1324,25,l),
(1351,300,o),
(1356,478,o),
(1344,752,c),
(1110,709,l),
(1149,417,o),
(1153,293,o),
(1151,-11,c)
);
}
);
width = 1409;
}
);
metricLeft = T;
metricRight = H;
},
{
glyphname = T_T;
kernLeft = T_1;
kernRight = T_2;
lastChange = "2022-08-23 06:40:51 +0000";
layers = (
{
layerId = m002;
shapes = (
{
closed = 1;
nodes = (
(385,7,l),
(402,232,o),
(406,575,o),
(391,815,c),
(279,794,l),
(310,535,o),
(310,259,o),
(302,-8,c)
);
},
{
closed = 1;
nodes = (
(795,7,l),
(812,232,o),
(816,515,o),
(801,755,c),
(689,734,l),
(720,475,o),
(720,259,o),
(712,-8,c)
);
},
{
closed = 1;
nodes = (
(1045,766,l),
(45,750,l),
(46,694,l),
(1043,690,l)
);
}
);
width = 1090;
},
{
layerId = m003;
shapes = (
{
closed = 1;
nodes = (
(476,18,l),
(516,318,o),
(526,562,o),
(522,837,c),
(245,795,l),
(275,533,o),
(282,249,o),
(272,-18,c)
);
},
{
closed = 1;
nodes = (
(1015,18,l),
(1055,318,o),
(1065,492,o),
(1061,767,c),
(784,725,l),
(814,463,o),
(821,249,o),
(811,-18,c)
);
},
{
closed = 1;
nodes = (
(1266,800,l),
(27,750,l),
(31,640,l),
(1265,626,l)
);
}
);
width = 1293;
},
{
layerId = "68C5B637-35C1-4638-A7C2-DD6A34998814";
shapes = (
{
closed = 1;
nodes = (
(408,10,l),
(431,254,o),
(436,572,o),
(424,821,c),
(271,794,l),
(301,535,o),
(303,257,o),
(295,-10,c)
);
},
{
closed = 1;
nodes = (
(850,10,l),
(873,254,o),
(878,509,o),
(866,758,c),
(713,732,l),
(744,472,o),
(745,257,o),
(737,-10,c)
);
},
{
closed = 1;
nodes = (
(1100,775,l),
(41,750,l),
(42,681,l),
(1099,674,l)
);
}
);
width = 1140;
},
{
layerId = "267D1DB6-4F39-4280-86D9-F184EF0BD2F7";
shapes = (
{
closed = 1;
nodes = (
(431,13,l),
(459,275,o),
(466,569,o),
(457,826,c),
(262,794,l),
(292,534,o),
(296,254,o),
(287,-13,c)
);
},
{
closed = 1;
nodes = (
(905,13,l),
(934,275,o),
(940,503,o),
(931,761,c),
(737,730,l),
(767,469,o),
(770,254,o),
(762,-13,c)
);
},
{
closed = 1;
nodes = (
(1155,783,l),
(36,750,l),
(38,667,l),
(1154,658,l)
);
}
);
width = 1191;
},
{
layerId = "34FE6C3C-97E7-412D-B228-A13225540168";
shapes = (
{
closed = 1;
nodes = (
(454,16,l),
(488,297,o),
(496,566,o),
(490,832,c),
(254,795,l),
(284,534,o),
(289,252,o),
(280,-15,c)
);
},
{
closed = 1;
nodes = (
(960,16,l),
(995,297,o),
(1003,498,o),
(996,764,c),
(761,728,l),
(791,466,o),
(796,252,o),
(787,-15,c)
);
},
{
closed = 1;
nodes = (
(1211,792,l),
(32,750,l),
(35,654,l),
(1210,642,l)
);
}
);
width = 1242.25;
}
);
metricLeft = T;
metricRight = T;
},
{
glyphname = a;
kernLeft = o_1;
kernRight = idotless_2;
lastChange = "2022-08-23 06:41:09 +0000";
layers = (
{
anchors = (
{
name = bottom;
pos = (251,-36);
},
{
name = ogonek;
pos = (469,5);
},
{
name = top;
pos = (353,520);
}
);
layerId = m002;
name = Black;
shapes = (
{
closed = 1;
nodes = (
(316,-14,o),
(440,82,o),
(455,319,c),
(397,270,l),
(399,144,o),
(317,64,o),
(240,64,cs),
(183,64,o),
(154,115,o),
(154,172,cs),
(154,230,o),
(191,333,o),
(418,383,c),
(394,441,l),
(137,367,o),
(45,263,o),
(45,150,cs),
(45,48,o),
(121,-14,o),
(208,-14,cs)
);
},
{
closed = 1;
nodes = (
(498,8,l),
(487,156,o),
(486,294,o),
(506,453,c),
(394,441,l),
(392,417,o),
(392,128,o),
(417,-10,c)
);
}
);
width = 581;
},
{
anchors = (
{
name = bottom;
pos = (284,-36);
},
{
name = ogonek;
pos = (502,5);
},
{
name = top;
pos = (353,520);
}
);
layerId = m003;
name = Black;
shapes = (
{
closed = 1;
nodes = (
(284,-14,o),
(412,62,o),
(426,299,c),
(367,272,l),
(367,180,o),
(314,154,o),
(274,154,cs),
(246,154,o),
(220,179,o),
(220,215,cs),
(220,252,o),
(266,319,o),
(416,347,c),
(354,441,l),
(110,367,o),
(27,243,o),
(27,130,cs),
(27,28,o),
(99,-14,o),
(181,-14,cs)
);
},
{
closed = 1;
nodes = (
(559,17,l),
(555,125,o),
(561,261,o),
(580,463,c),
(354,441,l),
(351,417,o),
(371,117,o),
(401,-21,c)
);
}
);
width = 620;
},
{
anchors = (
{
name = bottom;
pos = (259,-36);
},
{
name = ogonek;
pos = (477,5);
},
{
name = top;
pos = (353,520);
}
);
layerId = "68C5B637-35C1-4638-A7C2-DD6A34998814";
name = Black;
shapes = (
{
closed = 1;
nodes = (
(308,-14,o),
(433,77,o),
(448,314,c),
(390,271,l),
(391,153,o),
(316,87,o),
(249,87,cs),
(199,87,o),
(171,131,o),
(171,183,cs),
(171,236,o),
(210,330,o),
(418,374,c),
(384,441,l),
(130,367,o),
(41,258,o),
(41,145,cs),
(41,43,o),
(116,-14,o),
(201,-14,cs)
);
},
{
closed = 1;
nodes = (
(513,10,l),
(504,148,o),
(505,286,o),
(525,456,c),
(384,441,l),
(382,417,o),
(387,125,o),
(413,-13,c)
);
}
);
width = 593;
},
{
anchors = (
{
name = bottom;
pos = (267,-36);
},
{
name = ogonek;
pos = (485,5);
},
{
name = top;
pos = (353,520);
}
);
layerId = "267D1DB6-4F39-4280-86D9-F184EF0BD2F7";
name = Black;
shapes = (
{
closed = 1;
nodes = (
(300,-14,o),
(426,72,o),
(441,309,c),
(382,271,l),
(383,162,o),
(315,109,o),
(257,109,cs),
(215,109,o),
(187,147,o),
(187,194,cs),
(187,241,o),
(229,326,o),
(417,365,c),
(374,441,l),
(123,367,o),
(36,253,o),
(36,140,cs),
(36,38,o),
(110,-14,o),
(194,-14,cs)
);
},
{
closed = 1;
nodes = (
(528,12,l),
(521,140,o),
(524,278,o),
(543,458,c),
(374,441,l),
(372,417,o),
(382,122,o),
(409,-16,c)
);
}
);
width = 602;
},
{
anchors = (
{
name = bottom;
pos = (276,-36);
},
{
name = ogonek;
pos = (494,5);
},
{
name = top;
pos = (353,520);
}
);
layerId = "34FE6C3C-97E7-412D-B228-A13225540168";
name = Black;
shapes = (
{
closed = 1;
nodes = (
(292,-14,o),
(419,67,o),
(434,304,c),
(375,272,l),
(375,171,o),
(315,132,o),
(266,132,cs),
(231,132,o),
(204,163,o),
(204,205,cs),
(204,247,o),
(248,323,o),
(417,356,c),
(364,441,l),
(117,367,o),
(32,248,o),
(32,135,cs),
(32,33,o),
(105,-14,o),
(188,-14,cs)
);
},
{
closed = 1;
nodes = (
(544,15,l),
(538,133,o),
(543,270,o),
(562,461,c),
(364,441,l),
(362,417,o),
(377,120,o),
(405,-18,c)
);
}
);
width = 612;
}
);
metricLeft = o;
metricRight = l;
unicode = 97;
},
{
glyphname = ae;
kernLeft = o_1;
kernRight = e_2;
lastChange = "2022-08-23 06:31:59 +0000";
layers = (
{
anchors = (
{
name = bottom;
pos = (295,-36);
},
{
name = ogonek;
pos = (515,21);
},
{
name = top;
pos = (344,560);
}
);
layerId = m002;
name = Black;
shapes = (
{
closed = 1;
nodes = (
(316,-14,o),
(440,82,o),
(455,319,c),
(397,270,l),
(399,144,o),
(317,64,o),
(240,64,cs),
(183,64,o),
(154,115,o),
(154,172,cs),
(154,230,o),
(191,333,o),
(418,383,c),
(394,441,l),
(137,367,o),
(45,263,o),
(45,150,cs),
(45,48,o),
(121,-14,o),
(208,-14,cs)
);
},
{
closed = 1;
nodes = (
(487,156,l),
(487,156,o),
(486,294,o),
(506,453,c),
(394,441,l),
(392,417,o),
(392,128,o),
(406,138,c)
);
},
{
alignment = -1;
pos = (351,0);
ref = e;
}
);
width = 888;
},
{
anchors = (
{
name = bottom;
pos = (251,-36);
},
{
name = ogonek;
pos = (471,21);
},
{
name = top;
pos = (300,560);
}
);
layerId = m003;
name = Black;
shapes = (
{
closed = 1;
nodes = (
(284,-34,o),
(402,62,o),
(416,299,c),
(357,272,l),
(357,180,o),
(290,145,o),
(237,145,cs),
(203,145,o),
(175,159,o),
(175,182,cs),
(175,219,o),
(225,279,o),
(406,330,c),
(344,461,l),
(100,387,o),
(27,243,o),
(27,130,cs),
(27,28,o),
(99,-34,o),
(181,-34,cs)
);
},
{
closed = 1;
nodes = (
(441,192,l),
(450,246,o),
(473,346,o),
(502,453,c),
(344,461,l),
(324,392,o),
(320,223,o),
(325,148,c)
);
},
{
alignment = -1;
pos = (296,0);
ref = e;
}
);
width = 877;
},
{
anchors = (
{
name = bottom;
pos = (284,-36);
},
{
name = ogonek;
pos = (504,21);
},
{
name = top;
pos = (333,560);
}
);
layerId = "68C5B637-35C1-4638-A7C2-DD6A34998814";
name = Black;
shapes = (
{
closed = 1;
nodes = (
(308,-19,o),
(431,77,o),
(445,314,c),
(387,271,l),
(389,153,o),
(310,84,o),
(239,84,cs),
(188,84,o),
(159,126,o),
(159,175,cs),
(159,227,o),
(200,320,o),
(415,370,c),
(382,446,l),
(128,372,o),
(41,258,o),
(41,145,cs),
(41,43,o),
(116,-19,o),
(201,-19,cs)
);
},
{
closed = 1;
nodes = (
(476,165,l),
(478,179,o),
(483,307,o),
(505,453,c),
(382,446,l),
(375,411,o),
(374,152,o),
(386,141,c)
);
},
{
alignment = -1;
pos = (337,0);
ref = e;
}
);
width = 885.25;
},
{
anchors = (
{
name = bottom;
pos = (273,-36);
},
{
name = ogonek;
pos = (493,21);
},
{
name = top;
pos = (322,560);
}
);
layerId = "267D1DB6-4F39-4280-86D9-F184EF0BD2F7";
name = Black;
shapes = (
{
closed = 1;
nodes = (
(300,-24,o),
(421,72,o),
(435,309,c),
(377,271,l),
(378,162,o),
(303,104,o),
(238,104,cs),
(193,104,o),
(164,137,o),
(164,177,cs),
(164,224,o),
(208,306,o),
(412,357,c),
(369,451,l),
(119,377,o),
(36,253,o),
(36,140,cs),
(36,38,o),
(110,-24,o),
(194,-24,cs)
);
},
{
closed = 1;
nodes = (
(464,174,l),
(469,201,o),
(480,320,o),
(504,453,c),
(369,451,l),
(358,405,o),
(356,176,o),
(366,143,c)
);
},
{
alignment = -1;
pos = (323,0);
ref = e;
}
);
width = 882.5;
},
{
anchors = (
{
name = bottom;
pos = (262,-36);
},
{
name = ogonek;
pos = (482,21);
},
{
name = top;
pos = (311,560);
}
);
layerId = "34FE6C3C-97E7-412D-B228-A13225540168";
name = Black;
shapes = (
{
closed = 1;
nodes = (
(292,-29,o),
(412,67,o),
(426,304,c),
(367,272,l),
(368,171,o),
(297,125,o),
(238,125,cs),
(198,125,o),
(170,148,o),
(170,180,cs),
(170,222,o),
(217,293,o),
(409,344,c),
(357,456,l),
(110,382,o),
(32,248,o),
(32,135,cs),
(32,33,o),
(105,-29,o),
(188,-29,cs)
);
},
{
closed = 1;
nodes = (
(453,183,l),
(460,224,o),
(477,333,o),
(503,453,c),
(357,456,l),
(341,399,o),
(338,200,o),
(346,146,c)
);
},
{
alignment = -1;
pos = (310,0);
ref = e;
}
);
width = 879.75;
}
);
metricLeft = a;
metricRight = e;
unicode = 230;
},
{
glyphname = b;
kernLeft = l_1;
kernRight = o_2;
lastChange = "2022-08-23 06:41:21 +0000";
layers = (
{
guides = (
{
pos = (65,404);
},
{
pos = (57,115);
}
);
layerId = m002;
name = Black;
shapes = (
{
closed = 1;
nodes = (
(475,-11,o),
(588,89,o),
(588,246,cs),
(588,392,o),
(500,459,o),
(405,459,cs),
(308,459,o),
(122,392,o),
(122,113,c),
(156,75,l),
(167,288,o),
(297,375,o),
(367,375,cs),
(455,375,o),
(479,278,o),
(479,228,cs),
(479,143,o),
(438,47,o),
(286,47,cs),
(249,47,o),
(154,70,o),
(112,89,c),
(161,15,l),
(199,5,o),
(291,-11,o),
(331,-11,cs)
);
},
{
closed = 1;
nodes = (
(189,292,o),
(189,549,o),
(179,800,c),
(75,782,l),
(93,542,o),
(95,286,o),
(81,28,c),
(161,15,l)
);
}
);
width = 633;
},
{
guides = (
{
pos = (109,404);
},
{
pos = (101,115);
}
);
layerId = m003;
name = Black;
shapes = (
{
closed = 1;
nodes = (
(531,-11,o),
(680,76,o),
(680,268,cs),
(680,414,o),
(579,459,o),
(479,459,cs),
(364,459,o),
(192,348,o),
(192,69,c),
(233,31,l),
(245,244,o),
(336,314,o),
(389,314,cs),
(425,314,o),
(455,278,o),
(455,228,cs),
(455,143,o),
(399,111,o),
(325,111,cs),
(281,111,o),
(229,123,o),
(180,142,c),
(238,4,l),
(282,-6,o),
(330,-11,o),
(378,-11,cs)
);
},
{
closed = 1;
nodes = (
(281,281,o),
(299,565,o),
(299,816,c),
(40,777,l),
(63,537,o),
(68,282,o),
(58,44,c),
(238,4,l)
);
}
);
width = 707;
},
{
layerId = "68C5B637-35C1-4638-A7C2-DD6A34998814";
name = Black;
shapes = (
{
closed = 1;
nodes = (
(489,-11,o),
(611,86,o),
(611,252,cs),
(611,398,o),
(520,459,o),
(424,459,cs),
(322,459,o),
(140,381,o),
(140,102,c),
(175,64,l),
(187,277,o),
(307,360,o),
(373,360,cs),
(448,360,o),
(473,278,o),
(473,228,cs),
(473,143,o),
(428,63,o),
(296,63,cs),
(257,63,o),
(173,83,o),
(129,102,c),
(180,12,l),
(220,2,o),
(301,-11,o),
(343,-11,cs)
);
},
{
closed = 1;
nodes = (
(212,289,o),
(217,553,o),
(209,804,c),
(66,781,l),
(86,541,o),
(88,285,o),
(75,32,c),
(180,12,l)
);
}
);
width = 651;
},
{
layerId = "267D1DB6-4F39-4280-86D9-F184EF0BD2F7";
name = Black;
shapes = (
{
closed = 1;
nodes = (
(503,-11,o),
(634,83,o),
(634,257,cs),
(634,403,o),
(540,459,o),
(442,459,cs),
(336,459,o),
(157,370,o),
(157,91,c),
(194,53,l),
(206,266,o),
(317,345,o),
(378,345,cs),
(440,345,o),
(467,278,o),
(467,228,cs),
(467,143,o),
(418,79,o),
(306,79,cs),
(265,79,o),
(192,96,o),
(146,115,c),
(199,9,l),
(241,-1,o),
(311,-11,o),
(355,-11,cs)
);
},
{
closed = 1;
nodes = (
(235,286,o),
(244,557,o),
(239,808,c),
(57,780,l),
(78,540,o),
(81,284,o),
(69,36,c),
(199,9,l)
);
}
);
width = 670;
},
{
layerId = "34FE6C3C-97E7-412D-B228-A13225540168";
name = Black;
shapes = (
{
closed = 1;
nodes = (
(517,-11,o),
(657,80,o),
(657,263,cs),
(657,409,o),
(560,459,o),
(461,459,cs),
(350,459,o),
(175,359,o),
(175,80,c),
(214,42,l),
(226,255,o),
(327,330,o),
(384,330,cs),
(433,330,o),
(461,278,o),
(461,228,cs),
(461,143,o),
(409,95,o),
(316,95,cs),
(273,95,o),
(211,110,o),
(163,129,c),
(219,7,l),
(262,-3,o),
(321,-11,o),
(367,-11,cs)
);
},
{
closed = 1;
nodes = (
(258,284,o),
(272,561,o),
(269,812,c),
(49,779,l),
(71,539,o),
(75,283,o),
(64,40,c),
(219,7,l)
);
}
);
width = 688;
}
);
metricLeft = l;
metricRight = o;
unicode = 98;
},
{
glyphname = c;
kernLeft = o_1;
kernRight = c_2;
lastChange = "2022-08-23 06:31:59 +0000";
layers = (
{
anchors = (
{
name = bottom;
pos = (224,-1);
},
{
name = cedilla;
pos = (341,20);
},
{
name = top;
pos = (323,520);
}
);
guides = (
{
pos = (519,385);
},
{
pos = (519,135);
}
);
layerId = m002;
name = Black;
shapes = (
{
closed = 1;
nodes = (
(344,-6,o),
(413,16,o),
(473,58,c),
(464,120,l),
(417,80,o),
(363,55,o),
(299,55,cs),
(208,55,o),
(156,117,o),
(156,194,cs),
(156,346,o),
(317,410,o),
(433,389,c),
(427,459,l),
(269,480,o),
(45,390,o),
(45,187,cs),
(45,55,o),
(154,-6,o),
(269,-6,cs)
);
}
);
width = 503;
},
{
anchors = (
{
name = bottom;
pos = (244,-1);
},
{
name = cedilla;
pos = (361,20);
},
{
name = top;
pos = (323,520);
}
);
guides = (
{
pos = (539,385);
},
{
pos = (539,135);
}
);
layerId = m003;
name = Black;
shapes = (
{
closed = 1;
nodes = (
(379,-6,o),
(470,19,o),
(531,68,c),
(519,166,l),
(479,134,o),
(417,112,o),
(366,112,cs),
(316,112,o),
(276,133,o),
(276,183,cs),
(276,277,o),
(341,334,o),
(489,334,c),
(477,459,l),
(292,480,o),
(27,391,o),
(27,187,cs),
(27,55,o),
(156,-6,o),
(291,-6,cs)
);
}
);
width = 551;
},
{
anchors = (
{
name = bottom;
pos = (229,-1);
},
{
name = cedilla;
pos = (346,20);
},
{
name = top;
pos = (323,520);
}
);
layerId = "68C5B637-35C1-4638-A7C2-DD6A34998814";
name = Black;
shapes = (
{
closed = 1;
nodes = (
(353,-6,o),
(427,17,o),
(488,61,c),
(478,132,l),
(433,94,o),
(377,69,o),
(316,69,cs),
(235,69,o),
(186,121,o),
(186,191,cs),
(186,329,o),
(323,391,o),
(447,375,c),
(440,459,l),
(275,480,o),
(41,390,o),
(41,187,cs),
(41,55,o),
(155,-6,o),
(275,-6,cs)
);
}
);
width = 515;
},
{
anchors = (
{
name = bottom;
pos = (234,-1);
},
{
name = cedilla;
pos = (351,20);
},
{
name = top;
pos = (323,520);
}
);
layerId = "267D1DB6-4F39-4280-86D9-F184EF0BD2F7";
name = Black;
shapes = (
{
closed = 1;
nodes = (
(362,-6,o),
(441,18,o),
(502,63,c),
(492,143,l),
(448,107,o),
(390,83,o),
(333,83,cs),
(262,83,o),
(216,125,o),
(216,188,cs),
(216,312,o),
(329,372,o),
(461,361,c),
(452,459,l),
(281,480,o),
(36,390,o),
(36,187,cs),
(36,55,o),
(155,-6,o),
(280,-6,cs)
);
}
);
width = 527;
},
{
anchors = (
{
name = bottom;
pos = (239,-1);
},
{
name = cedilla;
pos = (356,20);
},
{
name = top;
pos = (323,520);
}
);
layerId = "34FE6C3C-97E7-412D-B228-A13225540168";
name = Black;
shapes = (
{
closed = 1;
nodes = (
(371,-6,o),
(456,19,o),
(517,66,c),
(506,155,l),
(464,121,o),
(404,98,o),
(350,98,cs),
(289,98,o),
(246,129,o),
(246,186,cs),
(246,295,o),
(335,353,o),
(475,348,c),
(465,459,l),
(287,480,o),
(32,391,o),
(32,187,cs),
(32,55,o),
(156,-6,o),
(286,-6,cs)
);
}
);
width = 539;
}
);
metricLeft = o;
unicode = 99;
},
{
glyphname = d;
kernLeft = o_1;
kernRight = l_2;
lastChange = "2022-08-23 06:41:36 +0000";
layers = (
{
anchors = (
{
name = bottom;
pos = (93,0);
},
{
name = center;
pos = (208,260);
},
{
name = top;
pos = (429,800);
},
{
name = topright;
pos = (600,750);
}
);
guides = (
{
pos = (349,350);
},
{
pos = (341,98);
}
);
layerId = m002;
name = Black;
shapes = (
{
closed = 1;
nodes = (
(481,262,o),
(483,568,o),
(501,808,c),
(397,790,l),
(387,539,o),
(387,272,o),
(415,-5,c),
(495,4,l)
);
},
{
closed = 1;
nodes = (
(316,-14,o),
(440,82,o),
(455,319,c),
(397,270,l),
(399,144,o),
(317,74,o),
(240,74,cs),
(183,74,o),
(154,115,o),
(154,172,cs),
(154,230,o),
(191,373,o),
(418,423,c),
(394,481,l),
(137,407,o),
(45,263,o),
(45,150,cs),
(45,48,o),
(121,-14,o),
(208,-14,cs)
);
}
);
width = 576;
},
{
anchors = (
{
name = bottom;
pos = (126,0);
},
{
name = center;
pos = (241,260);
},
{
name = top;
pos = (462,800);
},
{
name = topright;
pos = (673,750);
}
);
guides = (
{
pos = (382,350);
},
{
pos = (374,98);
}
);
layerId = m003;
name = Black;
shapes = (
{
closed = 1;
nodes = (
(559,312,o),
(559,517,o),
(590,814,c),
(331,781,l),
(331,514,o),
(345,271,o),
(386,-10,c),
(570,4,l)
);
},
{
closed = 1;
nodes = (
(284,-14,o),
(402,62,o),
(416,299,c),
(357,272,l),
(357,180,o),
(314,154,o),
(274,154,cs),
(246,154,o),
(220,179,o),
(220,215,cs),
(220,252,o),
(266,339,o),
(416,367,c),
(354,461,l),
(110,387,o),
(27,243,o),
(27,130,cs),
(27,28,o),
(99,-14,o),
(181,-14,cs)
);
}
);
width = 630;
},
{
anchors = (
{
name = bottom;
pos = (101,0);
},
{
name = center;
pos = (216,260);
},
{
name = top;
pos = (437,800);
},
{
name = topright;
pos = (618,750);
}
);
layerId = "68C5B637-35C1-4638-A7C2-DD6A34998814";
name = Black;
shapes = (
{
closed = 1;
nodes = (
(501,275,o),
(502,555,o),
(523,810,c),
(381,788,l),
(373,533,o),
(377,272,o),
(408,-6,c),
(514,4,l)
);
},
{
closed = 1;
nodes = (
(308,-14,o),
(431,77,o),
(445,314,c),
(387,271,l),
(389,153,o),
(316,94,o),
(249,94,cs),
(199,94,o),
(171,131,o),
(171,183,cs),
(171,236,o),
(210,365,o),
(418,409,c),
(384,476,l),
(130,402,o),
(41,258,o),
(41,145,cs),
(41,43,o),
(116,-14,o),
(201,-14,cs)
);
}
);
width = 591;
},
{
anchors = (
{
name = bottom;
pos = (109,0);
},
{
name = center;
pos = (224,260);
},
{
name = top;
pos = (445,800);
},
{
name = topright;
pos = (636,750);
}
);
layerId = "267D1DB6-4F39-4280-86D9-F184EF0BD2F7";
name = Black;
shapes = (
{
closed = 1;
nodes = (
(520,287,o),
(521,542,o),
(545,811,c),
(364,786,l),
(359,527,o),
(366,272,o),
(401,-7,c),
(533,4,l)
);
},
{
closed = 1;
nodes = (
(300,-14,o),
(421,72,o),
(435,309,c),
(377,271,l),
(378,162,o),
(315,114,o),
(257,114,cs),
(215,114,o),
(187,147,o),
(187,194,cs),
(187,241,o),
(229,356,o),
(417,395,c),
(374,471,l),
(123,397,o),
(36,253,o),
(36,140,cs),
(36,38,o),
(110,-14,o),
(194,-14,cs)
);
}
);
width = 604;
},
{
anchors = (
{
name = bottom;
pos = (118,0);
},
{
name = center;
pos = (233,260);
},
{
name = top;
pos = (454,800);
},
{
name = topright;
pos = (655,750);
}
);
layerId = "34FE6C3C-97E7-412D-B228-A13225540168";
name = Black;
shapes = (
{
closed = 1;
nodes = (
(540,300,o),
(540,530,o),
(568,813,c),
(348,784,l),
(345,521,o),
(356,272,o),
(394,-8,c),
(552,4,l)
);
},
{
closed = 1;
nodes = (
(292,-14,o),
(412,67,o),
(426,304,c),
(367,272,l),
(368,171,o),
(315,134,o),
(266,134,cs),
(231,134,o),
(204,163,o),
(204,205,cs),
(204,247,o),
(248,348,o),
(417,381,c),
(364,466,l),
(117,392,o),
(32,248,o),
(32,135,cs),
(32,33,o),
(105,-14,o),
(188,-14,cs)
);
}
);
width = 618;
}
);
metricLeft = o;
metricRight = l;
unicode = 100;
},
{
glyphname = eth;
kernLeft = o_1;
kernRight = o_2;
lastChange = "2022-08-23 06:31:59 +0000";
layers = (
{
layerId = m002;
name = Black;
shapes = (
{
closed = 1;
nodes = (
(464,-10,o),
(549,107,o),
(549,247,cs),
(549,456,o),
(383,657,o),
(153,710,c),
(133,625,l),
(337,565,o),
(463,414,o),
(463,292,cs),
(463,193,o),
(415,71,o),
(257,71,cs),
(189,71,o),
(130,108,o),
(130,149,cs),
(130,194,o),
(178,247,o),
(277,247,cs),
(343,247,o),
(422,226,o),
(490,139,c),
(489,245,l),
(431,299,o),
(329,328,o),
(228,328,cs),
(101,328,o),
(45,249,o),
(45,174,cs),
(45,82,o),
(128,-10,o),
(264,-10,cs)
);
},
{
closed = 1;
nodes = (
(493,616,l),
(462,678,l),
(109,466,l),
(151,382,l)
);
}
);
width = 594;
},
{
layerId = m003;
name = Black;
shapes = (
{
closed = 1;
nodes = (
(492,-10,o),
(587,107,o),
(587,247,cs),
(587,436,o),
(414,667,o),
(147,710,c),
(100,534,l),
(288,527,o),
(418,387,o),
(418,277,cs),
(418,206,o),
(363,148,o),
(234,148,cs),
(178,148,o),
(146,166,o),
(146,185,cs),
(146,206,o),
(185,228,o),
(275,228,cs),
(334,228,o),
(401,221,o),
(451,160,c),
(463,245,l),
(410,299,o),
(320,328,o),
(230,328,cs),
(89,328,o),
(27,259,o),
(27,184,cs),
(27,92,o),
(119,-10,o),
(270,-10,cs)
);
},
{
closed = 1;
nodes = (
(538,596,l),
(492,675,l),
(99,467,l),
(160,358,l)
);
}
);
width = 614;
},
{
layerId = "68C5B637-35C1-4638-A7C2-DD6A34998814";
name = Black;
shapes = (
{
closed = 1;
nodes = (
(471,-10,o),
(559,107,o),
(559,247,cs),
(559,451,o),
(391,660,o),
(152,710,c),
(125,602,l),
(325,556,o),
(452,407,o),
(452,288,cs),
(452,196,o),
(402,90,o),
(251,90,cs),
(186,90,o),
(134,123,o),
(134,158,cs),
(134,197,o),
(180,242,o),
(277,242,cs),
(341,242,o),
(417,225,o),
(480,144,c),
(483,245,l),
(426,299,o),
(327,328,o),
(229,328,cs),
(98,328,o),
(41,252,o),
(41,177,cs),
(41,85,o),
(126,-10,o),
(266,-10,cs)
);
},
{
closed = 1;
nodes = (
(504,611,l),
(470,677,l),
(107,466,l),
(153,376,l)
);
}
);
width = 599;
},
{
layerId = "267D1DB6-4F39-4280-86D9-F184EF0BD2F7";
name = Black;
shapes = (
{
closed = 1;
nodes = (
(478,-10,o),
(568,107,o),
(568,247,cs),
(568,446,o),
(399,662,o),
(150,710,c),
(117,579,l),
(313,546,o),
(441,400,o),
(441,284,cs),
(441,199,o),
(389,109,o),
(245,109,cs),
(183,109,o),
(138,137,o),
(138,167,cs),
(138,200,o),
(182,237,o),
(276,237,cs),
(339,237,o),
(412,224,o),
(470,149,c),
(476,245,l),
(421,299,o),
(325,328,o),
(229,328,cs),
(95,328,o),
(36,254,o),
(36,179,cs),
(36,87,o),
(124,-10,o),
(267,-10,cs)
);
},
{
closed = 1;
nodes = (
(515,606,l),
(477,676,l),
(104,466,l),
(155,370,l)
);
}
);
width = 604;
},
{
layerId = "34FE6C3C-97E7-412D-B228-A13225540168";
name = Black;
shapes = (
{
closed = 1;
nodes = (
(485,-10,o),
(578,107,o),
(578,247,cs),
(578,441,o),
(407,665,o),
(149,710,c),
(109,557,l),
(301,537,o),
(430,394,o),
(430,281,cs),
(430,203,o),
(376,129,o),
(240,129,cs),
(181,129,o),
(142,152,o),
(142,176,cs),
(142,203,o),
(184,233,o),
(276,233,cs),
(337,233,o),
(407,223,o),
(461,155,c),
(470,245,l),
(416,299,o),
(323,328,o),
(230,328,cs),
(92,328,o),
(32,257,o),
(32,182,cs),
(32,90,o),
(122,-10,o),
(269,-10,cs)
);
},
{
closed = 1;
nodes = (
(527,601,l),
(485,676,l),
(102,467,l),
(158,364,l)
);
}
);
width = 609;
}
);
metricLeft = o;
metricRight = o;
unicode = 240;
},
{
glyphname = dcroat;
kernLeft = o_1;
lastChange = "2022-08-23 06:31:59 +0000";
layers = (
{
layerId = m002;
name = Black;
shapes = (
{
ref = d;
},
{
closed = 1;
nodes = (
(587,590,l),
(587,661,l),
(186,673,l),
(184,577,l)
);
}
);
width = 576;
},
{
layerId = m003;
name = Black;
shapes = (
{
ref = d;
},
{
closed = 1;
nodes = (
(609,579,l),
(609,672,l),
(164,688,l),
(162,562,l)
);
}
);
width = 630;
},
{
layerId = "68C5B637-35C1-4638-A7C2-DD6A34998814";
name = Black;
shapes = (
{
alignment = -1;
ref = d;
},
{
closed = 1;
nodes = (
(593,587,l),
(593,664,l),
(181,677,l),
(179,573,l)
);
}
);
width = 589.5;
},
{
layerId = "267D1DB6-4F39-4280-86D9-F184EF0BD2F7";
name = Black;
shapes = (
{
alignment = -1;
ref = d;
},
{
closed = 1;
nodes = (
(598,584,l),
(598,667,l),
(175,681,l),
(173,569,l)
);
}
);
width = 603;
},
{
layerId = "34FE6C3C-97E7-412D-B228-A13225540168";
name = Black;
shapes = (
{
alignment = -1;
ref = d;
},
{
closed = 1;
nodes = (
(604,582,l),
(604,670,l),
(170,685,l),
(168,566,l)
);
}
);
width = 616.5;
}
);
metricLeft = o;
unicode = 273;
},
{
glyphname = e;
kernLeft = o_1;
kernRight = e_2;
lastChange = "2022-08-23 06:31:59 +0000";
layers = (
{
anchors = (
{
name = bottom;
pos = (314,-29);
},
{
name = ogonek;
pos = (419,-2);
},
{
name = top;
pos = (323,520);
}
);
guides = (
{
pos = (600,385);
},
{
pos = (600,135);
}
);
layerId = m002;
name = Black;
shapes = (
{
closed = 1;
nodes = (
(430,57,l),
(287,24,o),
(152,69,o),
(152,232,cs),
(152,313,o),
(224,395,o),
(295,395,cs),
(372,395,o),
(393,343,o),
(393,306,cs),
(393,238,o),
(335,213,o),
(274,213,cs),
(207,213,o),
(163,230,o),
(138,246,c),
(114,207,l),
(159,172,o),
(279,150,o),
(335,150,cs),
(455,150,o),
(492,221,o),
(492,288,cs),
(494,367,o),
(424,455,o),
(290,455,cs),
(172,455,o),
(45,378,o),
(45,219,cs),
(45,20,o),
(238,-21,o),
(419,-2,c)
);
}
);
width = 537;
},
{
anchors = (
{
name = bottom;
pos = (314,-29);
},
{
name = ogonek;
pos = (468,-2);
},
{
name = top;
pos = (323,520);
}
);
guides = (
{
pos = (622,385);
},
{
pos = (622,135);
}
);
layerId = m003;
name = Black;
shapes = (
{
closed = 1;
nodes = (
(480,93,l),
(293,58,o),
(233,143,o),
(233,232,cs),
(233,293,o),
(287,355,o),
(338,355,cs),
(371,355,o),
(387,332,o),
(387,307,cs),
(387,272,o),
(361,243,o),
(312,243,cs),
(271,243,o),
(237,250,o),
(208,266,c),
(179,207,l),
(232,172,o),
(303,150,o),
(369,150,cs),
(510,150,o),
(553,221,o),
(554,288,cs),
(556,367,o),
(473,455,o),
(316,455,cs),
(177,455,o),
(27,378,o),
(27,219,cs),
(27,5,o),
(255,-21,o),
(468,-2,c)
);
}
);
width = 581;
},
{
anchors = (
{
name = bottom;
pos = (314,-29);
},
{
name = ogonek;
pos = (431,-2);
},
{
name = top;
pos = (323,520);
}
);
layerId = "68C5B637-35C1-4638-A7C2-DD6A34998814";
name = Black;
shapes = (
{
closed = 1;
nodes = (
(443,66,l),
(289,33,o),
(172,88,o),
(172,232,cs),
(172,308,o),
(240,385,o),
(306,385,cs),
(372,385,o),
(392,340,o),
(392,306,cs),
(392,247,o),
(342,221,o),
(284,221,cs),
(223,221,o),
(182,235,o),
(156,251,c),
(130,207,l),
(177,172,o),
(285,150,o),
(344,150,cs),
(469,150,o),
(507,221,o),
(508,288,cs),
(510,367,o),
(436,455,o),
(297,455,cs),
(173,455,o),
(41,378,o),
(41,219,cs),
(41,16,o),
(242,-21,o),
(431,-2,c)
);
}
);
width = 548;
},
{
anchors = (
{
name = bottom;
pos = (314,-29);
},
{
name = ogonek;
pos = (443,-2);
},
{
name = top;
pos = (323,520);
}
);
layerId = "267D1DB6-4F39-4280-86D9-F184EF0BD2F7";
name = Black;
shapes = (
{
closed = 1;
nodes = (
(455,75,l),
(290,41,o),
(192,106,o),
(192,232,cs),
(192,303,o),
(256,375,o),
(317,375,cs),
(372,375,o),
(390,337,o),
(390,306,cs),
(390,255,o),
(348,228,o),
(293,228,cs),
(239,228,o),
(200,240,o),
(173,256,c),
(146,207,l),
(195,172,o),
(291,150,o),
(352,150,cs),
(483,150,o),
(522,221,o),
(523,288,cs),
(525,367,o),
(448,455,o),
(303,455,cs),
(174,455,o),
(36,378,o),
(36,219,cs),
(36,12,o),
(246,-21,o),
(443,-2,c)
);
}
);
width = 559;
},
{
anchors = (
{
name = bottom;
pos = (314,-29);
},
{
name = ogonek;
pos = (456,-2);
},
{
name = top;
pos = (323,520);
}
);
layerId = "34FE6C3C-97E7-412D-B228-A13225540168";
name = Black;
shapes = (
{
closed = 1;
nodes = (
(468,84,l),
(292,50,o),
(213,125,o),
(213,232,cs),
(213,298,o),
(272,365,o),
(328,365,cs),
(372,365,o),
(389,335,o),
(389,307,cs),
(389,264,o),
(355,236,o),
(303,236,cs),
(255,236,o),
(219,245,o),
(191,261,c),
(163,207,l),
(214,172,o),
(297,150,o),
(361,150,cs),
(497,150,o),
(538,221,o),
(539,288,cs),
(541,367,o),
(461,455,o),
(310,455,cs),
(176,455,o),
(32,378,o),
(32,219,cs),
(32,9,o),
(251,-21,o),
(456,-2,c)
);
}
);
width = 570;
}
);
metricLeft = o;
metricRight = o;
unicode = 101;
},
{
glyphname = f;
kernLeft = f_1;
kernRight = f_2;
lastChange = "2022-08-23 06:31:59 +0000";
layers = (
{
guides = (
{
pos = (5,404);
}
);
layerId = m002;
name = Black;
shapes = (
{
closed = 1;
nodes = (
(170,156,o),
(162,349,o),
(155,435,cs),
(139,621,o),
(231,667,o),
(380,650,c),
(373,742,l),
(189,742,o),
(75,650,o),
(75,357,cs),
(75,262,o),
(79,133,o),
(81,0,c),
(184,-2,l)
);
},
{
closed = 1;
nodes = (
(312,451,l),
(216,463,o),
(136,460,o),
(28,452,c),
(35,401,l),
(136,408,o),
(210,404,o),
(300,386,c)
);
}
);
width = 427;
},
{
guides = (
{
pos = (-13,404);
}
);
layerId = m003;
name = Black;
shapes = (
{
closed = 1;
nodes = (
(272,156,o),
(232,364,o),
(221,450,cs),
(204,589,o),
(272,606,o),
(413,572,c),
(395,742,l),
(178,742,o),
(64,624,o),
(56,357,cs),
(53,262,o),
(49,133,o),
(51,0,c),
(307,-2,l)
);
},
{
closed = 1;
nodes = (
(352,445,l),
(239,468,o),
(133,470,o),
(5,456,c),
(21,380,l),
(140,386,o),
(232,377,o),
(338,344,c)
);
}
);
width = 432;
},
{
layerId = "68C5B637-35C1-4638-A7C2-DD6A34998814";
name = Black;
shapes = (
{
closed = 1;
nodes = (
(196,156,o),
(180,353,o),
(172,439,cs),
(155,613,o),
(241,652,o),
(388,631,c),
(379,742,l),
(186,742,o),
(72,644,o),
(70,357,cs),
(70,262,o),
(72,133,o),
(74,0,c),
(215,-2,l)
);
},
{
closed = 1;
nodes = (
(322,450,l),
(222,464,o),
(135,463,o),
(22,453,c),
(32,396,l),
(137,403,o),
(216,397,o),
(310,376,c)
);
}
);
width = 428.25;
},
{
layerId = "267D1DB6-4F39-4280-86D9-F184EF0BD2F7";
name = Black;
shapes = (
{
closed = 1;
nodes = (
(221,156,o),
(197,357,o),
(188,443,cs),
(171,605,o),
(251,637,o),
(396,611,c),
(384,742,l),
(183,742,o),
(69,637,o),
(65,357,cs),
(64,262,o),
(64,133,o),
(66,0,c),
(246,-2,l)
);
},
{
closed = 1;
nodes = (
(332,448,l),
(228,465,o),
(134,465,o),
(16,454,c),
(28,391,l),
(138,397,o),
(221,390,o),
(319,365,c)
);
}
);
width = 429.5;
},
{
layerId = "34FE6C3C-97E7-412D-B228-A13225540168";
name = Black;
shapes = (
{
closed = 1;
nodes = (
(247,156,o),
(215,361,o),
(205,447,cs),
(188,597,o),
(262,622,o),
(405,592,c),
(390,742,l),
(181,742,o),
(67,631,o),
(61,357,cs),
(59,262,o),
(57,133,o),
(59,0,c),
(277,-2,l)
);
},
{
closed = 1;
nodes = (
(342,447,l),
(234,467,o),
(134,468,o),
(11,455,c),
(25,386,l),
(139,392,o),
(227,384,o),
(329,355,c)
);
}
);
width = 430.75;
}
);
unicode = 102;
},
{
glyphname = g;
kernLeft = g_1;
kernRight = g_2;
lastChange = "2022-08-23 06:41:54 +0000";
layers = (
{
anchors = (
{
name = bottom;
pos = (281,-337);
},
{
name = top;
pos = (323,520);
}
);
guides = (
{
pos = (449,385);
},
{
pos = (449,135);
}
);
layerId = m002;
name = Black;
shapes = (
{
closed = 1;
nodes = (
(343,-311,o),
(499,-224,o),
(502,71,cs),
(503,208,o),
(500,371,o),
(496,465,c),
(392,461,l),
(417,227,o),
(422,103,o),
(427,-14,cs),
(433,-149,o),
(349,-249,o),
(99,-170,c),
(72,-260,l)
);
},
{
closed = 1;
nodes = (
(316,-14,o),
(455,82,o),
(470,319,c),
(412,270,l),
(414,144,o),
(317,74,o),
(240,74,cs),
(183,74,o),
(154,115,o),
(154,172,cs),
(154,230,o),
(189,353,o),
(416,403,c),
(392,461,l),
(135,387,o),
(45,263,o),
(45,150,cs),
(45,48,o),
(121,-14,o),
(208,-14,cs)
);
}
);
width = 577;
},
{
anchors = (
{
name = bottom;
pos = (314,-337);
},
{
name = top;
pos = (323,520);
}
);
guides = (
{
pos = (482,385);
},
{
pos = (482,135);
}
);
layerId = m003;
name = Black;
shapes = (
{
closed = 1;
nodes = (
(325,-356,o),
(542,-207,o),
(565,87,cs),
(573,198,o),
(574,371,o),
(570,465,c),
(344,461,l),
(373,227,o),
(386,135,o),
(394,18,cs),
(406,-155,o),
(290,-192,o),
(120,-71,c),
(47,-260,l)
);
},
{
closed = 1;
nodes = (
(284,-14,o),
(414,62,o),
(428,299,c),
(369,272,l),
(369,180,o),
(314,154,o),
(274,154,cs),
(246,154,o),
(220,179,o),
(220,215,cs),
(220,252,o),
(266,339,o),
(416,367,c),
(344,461,l),
(100,387,o),
(27,243,o),
(27,130,cs),
(27,28,o),
(99,-14,o),
(181,-14,cs)
);
}
);
width = 612;
},
{
anchors = (
{
name = bottom;
pos = (289,-337);
},
{
name = top;
pos = (323,520);
}
);
layerId = "68C5B637-35C1-4638-A7C2-DD6A34998814";
name = Black;
shapes = (
{
closed = 1;
nodes = (
(339,-322,o),
(510,-220,o),
(518,75,cs),
(521,206,o),
(519,371,o),
(515,465,c),
(380,461,l),
(406,227,o),
(413,111,o),
(419,-6,cs),
(426,-150,o),
(334,-235,o),
(104,-145,c),
(66,-260,l)
);
},
{
closed = 1;
nodes = (
(308,-14,o),
(445,77,o),
(460,314,c),
(401,271,l),
(403,153,o),
(316,94,o),
(249,94,cs),
(199,94,o),
(171,131,o),
(171,183,cs),
(171,236,o),
(208,350,o),
(416,394,c),
(380,461,l),
(126,387,o),
(41,258,o),
(41,145,cs),
(41,43,o),
(116,-14,o),
(201,-14,cs)
);
}
);
width = 587;
},
{
anchors = (
{
name = bottom;
pos = (297,-337);
},
{
name = top;
pos = (323,520);
}
);
layerId = "267D1DB6-4F39-4280-86D9-F184EF0BD2F7";
name = Black;
shapes = (
{
closed = 1;
nodes = (
(334,-333,o),
(521,-216,o),
(534,79,cs),
(538,203,o),
(537,371,o),
(533,465,c),
(368,461,l),
(395,227,o),
(404,119,o),
(411,2,cs),
(419,-152,o),
(319,-221,o),
(109,-120,c),
(60,-260,l)
);
},
{
closed = 1;
nodes = (
(300,-14,o),
(435,72,o),
(449,309,c),
(390,271,l),
(392,162,o),
(315,114,o),
(257,114,cs),
(215,114,o),
(187,147,o),
(187,194,cs),
(187,241,o),
(227,346,o),
(416,385,c),
(368,461,l),
(117,387,o),
(36,253,o),
(36,140,cs),
(36,38,o),
(110,-14,o),
(194,-14,cs)
);
}
);
width = 596;
},
{
anchors = (
{
name = bottom;
pos = (306,-337);
},
{
name = top;
pos = (323,520);
}
);
layerId = "34FE6C3C-97E7-412D-B228-A13225540168";
name = Black;
shapes = (
{
closed = 1;
nodes = (
(330,-344,o),
(532,-211,o),
(550,83,cs),
(556,201,o),
(556,371,o),
(552,465,c),
(356,461,l),
(384,227,o),
(395,127,o),
(403,10,cs),
(413,-153,o),
(305,-206,o),
(115,-95,c),
(54,-260,l)
);
},
{
closed = 1;
nodes = (
(292,-14,o),
(425,67,o),
(439,304,c),
(380,272,l),
(381,171,o),
(315,134,o),
(266,134,cs),
(231,134,o),
(204,163,o),
(204,205,cs),
(204,247,o),
(247,343,o),
(416,376,c),
(356,461,l),
(109,387,o),
(32,248,o),
(32,135,cs),
(32,33,o),
(105,-14,o),
(188,-14,cs)
);
}
);
width = 605;
}
);
metricRight = l;
unicode = 103;
},
{
glyphname = h;
kernLeft = l_1;
kernRight = n_2;
lastChange = "2022-08-23 06:31:59 +0000";
layers = (
{
guides = (
{
pos = (134,385);
},
{
pos = (134,135);
}
);
layerId = m002;
name = Black;
shapes = (
{
closed = 1;
nodes = (
(189,282,o),
(189,549,o),
(179,800,c),
(75,784,l),
(93,544,o),
(95,256,o),
(81,-2,c),
(161,5,l)
);
},
{
closed = 1;
nodes = (
(554,195,o),
(544,466,o),
(357,466,cs),
(194,466,o),
(110,249,o),
(99,125,c),
(161,5,l),
(174,222,o),
(241,411,o),
(335,411,cs),
(434,411,o),
(471,229,o),
(421,3,c),
(526,-8,l)
);
}
);
width = 603;
},
{
guides = (
{
pos = (174,385);
},
{
pos = (174,135);
}
);
layerId = m003;
name = Black;
shapes = (
{
closed = 1;
nodes = (
(281,281,o),
(299,565,o),
(299,816,c),
(40,777,l),
(63,537,o),
(68,225,o),
(58,-13,c),
(238,4,l)
);
},
{
closed = 1;
nodes = (
(647,152,o),
(635,465,o),
(443,465,cs),
(313,465,o),
(172,298,o),
(145,141,c),
(238,4,l),
(267,227,o),
(345,335,o),
(392,335,cs),
(481,335,o),
(412,72,o),
(378,-10,c),
(626,-22,l)
);
}
);
width = 667;
},
{
layerId = "68C5B637-35C1-4638-A7C2-DD6A34998814";
name = Black;
shapes = (
{
closed = 1;
nodes = (
(212,282,o),
(217,553,o),
(209,804,c),
(66,782,l),
(86,542,o),
(88,248,o),
(75,-5,c),
(180,5,l)
);
},
{
closed = 1;
nodes = (
(577,184,o),
(567,466,o),
(379,466,cs),
(224,466,o),
(126,261,o),
(111,129,c),
(180,5,l),
(197,223,o),
(267,392,o),
(349,392,cs),
(446,392,o),
(456,190,o),
(410,0,c),
(551,-11,l)
);
}
);
width = 619;
},
{
layerId = "267D1DB6-4F39-4280-86D9-F184EF0BD2F7";
name = Black;
shapes = (
{
closed = 1;
nodes = (
(235,282,o),
(244,557,o),
(239,808,c),
(57,780,l),
(78,540,o),
(81,240,o),
(69,-8,c),
(199,5,l)
);
},
{
closed = 1;
nodes = (
(600,173,o),
(590,466,o),
(400,466,cs),
(254,466,o),
(141,273,o),
(122,133,c),
(199,5,l),
(220,224,o),
(293,373,o),
(363,373,cs),
(458,373,o),
(441,151,o),
(399,-3,c),
(576,-15,l)
);
}
);
width = 635;
},
{
layerId = "34FE6C3C-97E7-412D-B228-A13225540168";
name = Black;
shapes = (
{
closed = 1;
nodes = (
(258,282,o),
(272,561,o),
(269,812,c),
(49,779,l),
(71,539,o),
(75,233,o),
(64,-10,c),
(219,5,l)
);
},
{
closed = 1;
nodes = (
(624,163,o),
(613,466,o),
(422,466,cs),
(284,466,o),
(157,286,o),
(134,137,c),
(219,5,l),
(244,226,o),
(319,354,o),
(378,354,cs),
(470,354,o),
(427,112,o),
(389,-6,c),
(601,-18,l)
);
}
);
width = 651;
}
);
metricLeft = l;
unicode = 104;
},
{
glyphname = hbar;
kernRight = n_2;
lastChange = "2022-08-23 06:31:59 +0000";
layers = (
{
layerId = m002;
name = Black;
shapes = (
{
ref = h;
},
{
closed = 1;
nodes = (
(417,590,l),
(417,661,l),
(16,673,l),
(14,577,l)
);
}
);
width = 603;
},
{
layerId = m003;
name = Black;
shapes = (
{
ref = h;
},
{
closed = 1;
nodes = (
(439,579,l),
(439,672,l),
(-6,688,l),
(-8,562,l)
);
}
);
width = 667;
},
{
layerId = "68C5B637-35C1-4638-A7C2-DD6A34998814";
name = Black;
shapes = (
{
alignment = -1;
ref = h;
},
{
closed = 1;
nodes = (
(423,587,l),
(423,664,l),
(11,677,l),
(9,573,l)
);
}
);
width = 619;
},
{
layerId = "267D1DB6-4F39-4280-86D9-F184EF0BD2F7";
name = Black;
shapes = (
{
alignment = -1;
ref = h;
},
{
closed = 1;
nodes = (
(428,584,l),
(428,667,l),
(5,681,l),
(3,569,l)
);
}
);
width = 635;
},
{
layerId = "34FE6C3C-97E7-412D-B228-A13225540168";
name = Black;
shapes = (
{
alignment = -1;
ref = h;
},
{
closed = 1;
nodes = (
(434,582,l),
(434,670,l),
(0,685,l),
(-2,566,l)
);
}
);
width = 651;
}
);
unicode = 295;
},
{
glyphname = i;
kernLeft = i_1;
kernRight = i_2;
lastChange = "2022-08-23 06:31:59 +0000";
layers = (
{
layerId = m002;
name = Black;
shapes = (
{
ref = idotless;
},
{
closed = 1;
nodes = (
(173,533,l),
(174,571,o),
(171,617,o),
(164,653,c),
(54,639,l),
(58,600,o),
(66,567,o),
(68,525,c)
);
}
);
width = 259;
},
{
layerId = m003;
name = Black;
shapes = (
{
ref = idotless;
},
{
closed = 1;
nodes = (
(268,533,l),
(271,597,o),
(257,687,o),
(238,752,c),
(32,717,l),
(45,652,o),
(56,588,o),
(56,517,c)
);
}
);
width = 333;
},
{
layerId = "68C5B637-35C1-4638-A7C2-DD6A34998814";
name = Black;
shapes = (
{
alignment = -1;
ref = idotless;
},
{
closed = 1;
nodes = (
(197,533,l),
(198,578,o),
(193,635,o),
(183,678,c),
(49,659,l),
(55,613,o),
(64,572,o),
(65,523,c)
);
}
);
width = 277.5;
},
{
layerId = "267D1DB6-4F39-4280-86D9-F184EF0BD2F7";
name = Black;
shapes = (
{
alignment = -1;
ref = idotless;
},
{
closed = 1;
nodes = (
(221,533,l),
(222,584,o),
(214,652,o),
(201,703,c),
(43,678,l),
(52,626,o),
(61,577,o),
(62,521,c)
);
}
);
width = 296;
},
{
layerId = "34FE6C3C-97E7-412D-B228-A13225540168";
name = Black;
shapes = (
{
alignment = -1;
ref = idotless;
},
{
closed = 1;
nodes = (
(245,533,l),
(247,591,o),
(236,670,o),
(220,728,c),
(38,698,l),
(49,639,o),
(59,583,o),
(59,519,c)
);
}
);
width = 314.5;
}
);
unicode = 105;
},
{
glyphname = idotless;
kernLeft = i_1;
kernRight = i_2;
lastChange = "2022-08-23 06:31:59 +0000";
layers = (
{
anchors = (
{
name = bottom;
pos = (123,-36);
},
{
name = ogonek;
pos = (159,5);
},
{
name = top;
pos = (123,520);
}
);
layerId = m002;
name = Black;
shapes = (
{
closed = 1;
nodes = (
(183,184,o),
(189,307,o),
(179,466,c),
(75,453,l),
(93,305,o),
(91,138,o),
(81,-2,c),
(159,5,l)
);
}
);
width = 259;
},
{
anchors = (
{
name = bottom;
pos = (142,0);
},
{
name = ogonek;
pos = (207,2);
},
{
name = top;
pos = (173,520);
}
);
layerId = m003;
name = Black;
shapes = (
{
closed = 1;
nodes = (
(280,181,o),
(286,307,o),
(286,473,c),
(47,448,l),
(70,288,o),
(79,149,o),
(75,-10,c),
(249,8,l)
);
}
);
width = 333;
},
{
anchors = (
{
name = bottom;
pos = (128,-27);
},
{
name = ogonek;
pos = (171,4);
},
{
name = top;
pos = (136,520);
}
);
layerId = "68C5B637-35C1-4638-A7C2-DD6A34998814";
name = Black;
shapes = (
{
closed = 1;
nodes = (
(207,183,o),
(213,307,o),
(206,468,c),
(68,452,l),
(87,301,o),
(88,141,o),
(80,-4,c),
(182,6,l)
);
}
);
width = 277.5;
},
{
anchors = (
{
name = bottom;
pos = (133,-18);
},
{
name = ogonek;
pos = (183,3);
},
{
name = top;
pos = (148,520);
}
);
layerId = "267D1DB6-4F39-4280-86D9-F184EF0BD2F7";
name = Black;
shapes = (
{
closed = 1;
nodes = (
(231,182,o),
(237,307,o),
(233,470,c),
(61,451,l),
(81,297,o),
(85,144,o),
(78,-6,c),
(204,7,l)
);
}
);
width = 296;
},
{
anchors = (
{
name = bottom;
pos = (138,-9);
},
{
name = ogonek;
pos = (195,3);
},
{
name = top;
pos = (161,520);
}
);
layerId = "34FE6C3C-97E7-412D-B228-A13225540168";
name = Black;
shapes = (
{
closed = 1;
nodes = (
(256,182,o),
(262,307,o),
(260,472,c),
(54,450,l),
(76,293,o),
(82,147,o),
(77,-8,c),
(227,8,l)
);
}
);
width = 314.5;
}
);
unicode = 305;
},
{
glyphname = j;
kernLeft = j_1;
kernRight = j_2;
lastChange = "2022-08-23 06:31:59 +0000";
layers = (
{
layerId = m002;
name = Black;
shapes = (
{
ref = jdotless;
},
{
closed = 1;
nodes = (
(173,533,l),
(174,571,o),
(171,617,o),
(164,653,c),
(54,639,l),
(58,600,o),
(66,567,o),
(68,525,c)
);
}
);
width = 284;
},
{
layerId = m003;
name = Black;
shapes = (
{
ref = jdotless;
},
{
closed = 1;
nodes = (
(268,533,l),
(271,597,o),
(257,687,o),
(238,752,c),
(32,717,l),
(45,652,o),
(56,588,o),
(56,517,c)
);
}
);
width = 341;
},
{
layerId = "68C5B637-35C1-4638-A7C2-DD6A34998814";
name = Black;
shapes = (
{
alignment = -1;
ref = jdotless;
},
{
closed = 1;
nodes = (
(197,533,l),
(198,578,o),
(193,635,o),
(183,678,c),
(49,659,l),
(55,613,o),
(64,572,o),
(65,523,c)
);
}
);
width = 298.25;
},
{
layerId = "267D1DB6-4F39-4280-86D9-F184EF0BD2F7";
name = Black;
shapes = (
{
alignment = -1;
ref = jdotless;
},
{
closed = 1;
nodes = (
(221,533,l),
(222,584,o),
(214,652,o),
(201,703,c),
(43,678,l),
(52,626,o),
(61,577,o),
(62,521,c)
);
}
);
width = 312.5;
},
{
layerId = "34FE6C3C-97E7-412D-B228-A13225540168";
name = Black;
shapes = (
{
alignment = -1;
ref = jdotless;
},
{
closed = 1;
nodes = (
(245,533,l),
(247,591,o),
(236,670,o),
(220,728,c),
(38,698,l),
(49,639,o),
(59,583,o),
(59,519,c)
);
}
);
width = 326.75;
}
);
unicode = 106;
},
{
glyphname = jdotless;
kernLeft = j_1;
kernRight = j_2;
lastChange = "2022-08-23 06:42:09 +0000";
layers = (
{
anchors = (
{
name = bottom;
pos = (85,-233);
},
{
name = top;
pos = (119,529);
}
);
layerId = m002;
name = Black;
shapes = (
{
closed = 1;
nodes = (
(165,-168,o),
(184,60,cs),
(194,179,o),
(192,290,o),
(185,468,c),
(75,451,l),
(98,234,o),
(100,127,o),
(96,22,cs),
(91,-105,o),
(56,-200,o),
(-116,-186,c),
(-107,-244,l),
(75,-260,o)
);
}
);
width = 256;
},
{
anchors = (
{
name = bottom;
pos = (176,-233);
},
{
name = top;
pos = (162,529);
}
);
layerId = m003;
name = Black;
shapes = (
{
closed = 1;
nodes = (
(279,-168,o),
(301,60,cs),
(313,179,o),
(311,296,o),
(303,474,c),
(41,436,l),
(74,236,o),
(98,127,o),
(98,22,cs),
(98,-105,o),
(70,-155,o),
(-59,-144,c),
(-41,-244,l),
(173,-260,o)
);
}
);
width = 342;
},
{
anchors = (
{
name = bottom;
pos = (108,-233);
},
{
name = top;
pos = (130,529);
}
);
layerId = "68C5B637-35C1-4638-A7C2-DD6A34998814";
name = Black;
shapes = (
{
closed = 1;
nodes = (
(194,-168,o),
(213,60,cs),
(224,179,o),
(222,292,o),
(215,470,c),
(67,447,l),
(92,235,o),
(100,127,o),
(97,22,cs),
(93,-105,o),
(60,-189,o),
(-102,-175,c),
(-90,-244,l),
(100,-260,o)
);
}
);
width = 277.5;
},
{
anchors = (
{
name = bottom;
pos = (131,-233);
},
{
name = top;
pos = (141,529);
}
);
layerId = "267D1DB6-4F39-4280-86D9-F184EF0BD2F7";
name = Black;
shapes = (
{
closed = 1;
nodes = (
(222,-168,o),
(242,60,cs),
(254,179,o),
(252,293,o),
(244,471,c),
(58,443,l),
(86,235,o),
(99,127,o),
(97,22,cs),
(95,-105,o),
(63,-178,o),
(-88,-165,c),
(-74,-244,l),
(124,-260,o)
);
}
);
width = 300;
},
{
anchors = (
{
name = bottom;
pos = (154,-233);
},
{
name = top;
pos = (152,529);
}
);
layerId = "34FE6C3C-97E7-412D-B228-A13225540168";
name = Black;
shapes = (
{
closed = 1;
nodes = (
(251,-168,o),
(272,60,cs),
(284,179,o),
(282,295,o),
(274,473,c),
(50,440,l),
(80,236,o),
(99,127,o),
(98,22,cs),
(97,-105,o),
(67,-166,o),
(-73,-154,c),
(-57,-244,l),
(149,-260,o)
);
}
);
width = 321;
}
);
metricRight = n;
unicode = 567;
},
{
glyphname = k;
kernLeft = l_1;
kernRight = k_2;
lastChange = "2022-08-23 06:31:59 +0000";
layers = (
{
anchors = (
{
name = bottom;
pos = (311,0);
},
{
name = top;
pos = (67,800);
}
);
layerId = m002;
name = Black;
shapes = (
{
closed = 1;
nodes = (
(523,25,l),
(470,157,o),
(368,260,o),
(240,292,c),
(196,233,l),
(299,194,o),
(375,122,o),
(411,-6,c)
);
},
{
closed = 1;
nodes = (
(181,192,o),
(281,364,o),
(470,400,c),
(470,491,l),
(307,447,o),
(183,313,o),
(154,157,c),
(161,5,l)
);
},
{
closed = 1;
nodes = (
(189,282,o),
(189,549,o),
(179,800,c),
(75,784,l),
(93,544,o),
(95,256,o),
(81,-2,c),
(161,5,l)
);
}
);
width = 553;
},
{
anchors = (
{
name = bottom;
pos = (311,0);
},
{
name = top;
pos = (107,800);
}
);
layerId = m003;
name = Black;
shapes = (
{
closed = 1;
nodes = (
(610,57,l),
(551,191,o),
(459,270,o),
(320,286,c),
(259,200,l),
(323,149,o),
(345,122,o),
(388,-10,c)
);
},
{
closed = 1;
nodes = (
(262,191,o),
(372,302,o),
(564,281,c),
(560,491,l),
(368,447,o),
(253,312,o),
(218,147,c),
(238,4,l)
);
},
{
closed = 1;
nodes = (
(281,281,o),
(299,565,o),
(299,816,c),
(40,777,l),
(63,537,o),
(68,225,o),
(58,-13,c),
(238,4,l)
);
}
);
width = 630;
},
{
anchors = (
{
name = bottom;
pos = (311,0);
},
{
name = top;
pos = (77,800);
}
);
layerId = "68C5B637-35C1-4638-A7C2-DD6A34998814";
name = Black;
shapes = (
{
closed = 1;
nodes = (
(545,33,l),
(490,166,o),
(391,263,o),
(260,291,c),
(212,225,l),
(305,183,o),
(368,122,o),
(405,-7,c)
);
},
{
closed = 1;
nodes = (
(201,192,o),
(304,349,o),
(494,370,c),
(493,491,l),
(322,447,o),
(201,313,o),
(170,155,c),
(180,5,l)
);
},
{
closed = 1;
nodes = (
(212,282,o),
(217,553,o),
(209,804,c),
(66,782,l),
(86,542,o),
(88,248,o),
(75,-5,c),
(180,5,l)
);
}
);
width = 572.25;
},
{
anchors = (
{
name = bottom;
pos = (311,0);
},
{
name = top;
pos = (87,800);
}
);
layerId = "267D1DB6-4F39-4280-86D9-F184EF0BD2F7";
name = Black;
shapes = (
{
closed = 1;
nodes = (
(567,41,l),
(510,174,o),
(414,265,o),
(280,289,c),
(228,217,l),
(311,172,o),
(360,122,o),
(399,-8,c)
);
},
{
closed = 1;
nodes = (
(221,192,o),
(327,333,o),
(517,340,c),
(515,491,l),
(337,447,o),
(218,313,o),
(186,152,c),
(199,5,l)
);
},
{
closed = 1;
nodes = (
(235,282,o),
(244,557,o),
(239,808,c),
(57,780,l),
(78,540,o),
(81,240,o),
(69,-8,c),
(199,5,l)
);
}
);
width = 591.5;
},
{
anchors = (
{
name = bottom;
pos = (311,0);
},
{
name = top;
pos = (97,800);
}
);
layerId = "34FE6C3C-97E7-412D-B228-A13225540168";
name = Black;
shapes = (
{
closed = 1;
nodes = (
(589,49,l),
(531,183,o),
(437,268,o),
(300,288,c),
(244,209,l),
(317,161,o),
(353,122,o),
(394,-9,c)
);
},
{
closed = 1;
nodes = (
(242,192,o),
(350,318,o),
(541,311,c),
(538,491,l),
(353,447,o),
(236,313,o),
(202,150,c),
(219,5,l)
);
},
{
closed = 1;
nodes = (
(258,282,o),
(272,561,o),
(269,812,c),
(49,779,l),
(71,539,o),
(75,233,o),
(64,-10,c),
(219,5,l)
);
}
);
width = 610.75;
}
);
metricLeft = l;
unicode = 107;
},
{
glyphname = l;
kernLeft = l_1;
kernRight = l_2;
lastChange = "2022-08-23 06:31:59 +0000";
layers = (
{
anchors = (
{
name = bottom;
pos = (117,-40);
},
{
name = top;
pos = (133,830);
},
{
name = topright;
pos = (268,760);
}
);
layerId = m002;
name = Black;
shapes = (
{
closed = 1;
nodes = (
(189,282,o),
(189,549,o),
(179,800,c),
(75,784,l),
(93,544,o),
(95,256,o),
(81,-2,c),
(161,5,l)
);
}
);
width = 260;
},
{
anchors = (
{
name = bottom;
pos = (147,-40);
},
{
name = top;
pos = (163,830);
},
{
name = topright;
pos = (378,760);
}
);
layerId = m003;
name = Black;
shapes = (
{
closed = 1;
nodes = (
(282,281,o),
(300,565,o),
(300,816,c),
(40,777,l),
(63,537,o),
(68,225,o),
(58,-13,c),
(239,4,l)
);
}
);
width = 340;
},
{
anchors = (
{
name = bottom;
pos = (125,-40);
},
{
name = top;
pos = (141,830);
},
{
name = topright;
pos = (296,760);
}
);
layerId = "68C5B637-35C1-4638-A7C2-DD6A34998814";
name = Black;
shapes = (
{
closed = 1;
nodes = (
(212,282,o),
(217,553,o),
(209,804,c),
(66,782,l),
(86,542,o),
(88,248,o),
(75,-5,c),
(181,5,l)
);
}
);
width = 280;
},
{
anchors = (
{
name = bottom;
pos = (132,-40);
},
{
name = top;
pos = (148,830);
},
{
name = topright;
pos = (323,760);
}
);
layerId = "267D1DB6-4F39-4280-86D9-F184EF0BD2F7";
name = Black;
shapes = (
{
closed = 1;
nodes = (
(235,282,o),
(245,557,o),
(239,808,c),
(57,780,l),
(78,540,o),
(81,240,o),
(69,-8,c),
(200,5,l)
);
}
);
width = 300;
},
{
anchors = (
{
name = bottom;
pos = (140,-40);
},
{
name = top;
pos = (156,830);
},
{
name = topright;
pos = (351,760);
}
);
layerId = "34FE6C3C-97E7-412D-B228-A13225540168";
name = Black;
shapes = (
{
closed = 1;
nodes = (
(259,282,o),
(273,561,o),
(270,812,c),
(49,779,l),
(71,539,o),
(75,233,o),
(64,-10,c),
(220,5,l)
);
}
);
width = 320;
}
);
unicode = 108;
},
{
glyphname = lslash;
lastChange = "2022-08-23 06:31:59 +0000";
layers = (
{
layerId = m002;
name = Black;
shapes = (
{
ref = l;
},
{
closed = 1;
nodes = (
(340,450,l),
(307,513,l),
(-39,290,l),
(2,212,l)
);
}
);
width = 260;
},
{
layerId = m003;
name = Black;
shapes = (
{
ref = l;
},
{
closed = 1;
nodes = (
(397,441,l),
(350,520,l),
(-43,312,l),
(18,203,l)
);
}
);
width = 340;
},
{
layerId = "68C5B637-35C1-4638-A7C2-DD6A34998814";
name = Black;
shapes = (
{
alignment = -1;
ref = l;
},
{
closed = 1;
nodes = (
(354,448,l),
(318,515,l),
(-40,296,l),
(6,210,l)
);
}
);
width = 280;
},
{
layerId = "267D1DB6-4F39-4280-86D9-F184EF0BD2F7";
name = Black;
shapes = (
{
alignment = -1;
ref = l;
},
{
closed = 1;
nodes = (
(368,446,l),
(329,517,l),
(-41,301,l),
(10,208,l)
);
}
);
width = 300;
},
{
layerId = "34FE6C3C-97E7-412D-B228-A13225540168";
name = Black;
shapes = (
{
alignment = -1;
ref = l;
},
{
closed = 1;
nodes = (
(383,444,l),
(340,519,l),
(-42,307,l),
(14,206,l)
);
}
);
width = 320;
}
);
unicode = 322;
},
{
glyphname = m;
kernLeft = idotless_1;
kernRight = n_2;
lastChange = "2022-08-23 06:31:59 +0000";
layers = (
{
guides = (
{
pos = (37,98);
},
{
pos = (69,414);
}
);
layerId = m002;
name = Black;
shapes = (
{
closed = 1;
nodes = (
(536,199,o),
(512,466,o),
(348,466,cs),
(196,466,o),
(127,259,o),
(117,135,c),
(180,0,l),
(195,217,o),
(231,411,o),
(329,411,cs),
(403,411,o),
(449,226,o),
(403,0,c),
(511,-4,l)
);
},
{
closed = 1;
nodes = (
(189,161,o),
(190,285,o),
(166,462,c),
(82,446,l),
(95,298,o),
(94,141,o),
(75,-10,c),
(180,0,l)
);
},
{
closed = 1;
nodes = (
(848,232,o),
(836,465,o),
(676,465,cs),
(560,465,o),
(483,361,o),
(465,254,c),
(517,82,l),
(523,244,o),
(564,410,o),
(641,410,cs),
(739,410,o),
(752,208,o),
(711,1,c),
(816,-6,l)
);
}
);
width = 895;
},
{
guides = (
{
pos = (85,98);
},
{
pos = (117,414);
}
);
layerId = m003;
name = Black;
shapes = (
{
closed = 1;
nodes = (
(644,194,o),
(628,466,o),
(414,466,cs),
(294,466,o),
(204,321,o),
(192,197,c),
(279,0,l),
(295,217,o),
(312,343,o),
(359,343,cs),
(432,343,o),
(408,133,o),
(370,5,c),
(602,-9,l)
);
},
{
closed = 1;
nodes = (
(290,161,o),
(278,292,o),
(249,469,c),
(61,431,l),
(77,283,o),
(64,141,o),
(40,-10,c),
(279,0,l)
);
},
{
closed = 1;
nodes = (
(978,175,o),
(956,465,o),
(755,465,cs),
(666,465,o),
(576,392,o),
(554,285,c),
(617,113,l),
(618,275,o),
(649,334,o),
(694,334,cs),
(764,334,o),
(743,149,o),
(693,6,c),
(955,-9,l)
);
}
);
width = 995;
},
{
layerId = "68C5B637-35C1-4638-A7C2-DD6A34998814";
name = Black;
shapes = (
{
closed = 1;
nodes = (
(563,198,o),
(541,466,o),
(365,466,cs),
(221,466,o),
(146,275,o),
(136,151,c),
(205,0,l),
(220,217,o),
(251,394,o),
(337,394,cs),
(410,394,o),
(439,203,o),
(395,1,c),
(534,-5,l)
);
},
{
closed = 1;
nodes = (
(214,161,o),
(212,287,o),
(187,464,c),
(77,442,l),
(91,294,o),
(87,141,o),
(66,-10,c),
(205,0,l)
);
},
{
closed = 1;
nodes = (
(881,218,o),
(866,465,o),
(696,465,cs),
(587,465,o),
(506,369,o),
(487,262,c),
(542,90,l),
(547,252,o),
(585,391,o),
(654,391,cs),
(745,391,o),
(750,193,o),
(707,2,c),
(851,-7,l)
);
}
);
width = 920;
},
{
layerId = "267D1DB6-4F39-4280-86D9-F184EF0BD2F7";
name = Black;
shapes = (
{
closed = 1;
nodes = (
(590,197,o),
(570,466,o),
(381,466,cs),
(245,466,o),
(165,290,o),
(155,166,c),
(230,0,l),
(245,217,o),
(271,377,o),
(344,377,cs),
(417,377,o),
(429,180,o),
(387,2,c),
(557,-6,l)
);
},
{
closed = 1;
nodes = (
(239,161,o),
(234,289,o),
(208,466,c),
(72,438,l),
(86,290,o),
(79,141,o),
(57,-10,c),
(230,0,l)
);
},
{
closed = 1;
nodes = (
(913,204,o),
(896,465,o),
(716,465,cs),
(613,465,o),
(529,377,o),
(509,270,c),
(567,98,l),
(571,260,o),
(606,372,o),
(667,372,cs),
(751,372,o),
(748,178,o),
(702,3,c),
(886,-8,l)
);
}
);
width = 945;
},
{
layerId = "34FE6C3C-97E7-412D-B228-A13225540168";
name = Black;
shapes = (
{
closed = 1;
nodes = (
(617,196,o),
(599,466,o),
(398,466,cs),
(270,466,o),
(185,306,o),
(174,182,c),
(255,0,l),
(270,217,o),
(292,360,o),
(352,360,cs),
(425,360,o),
(419,157,o),
(379,4,c),
(580,-7,l)
);
},
{
closed = 1;
nodes = (
(265,161,o),
(256,291,o),
(229,468,c),
(67,435,l),
(82,287,o),
(72,141,o),
(49,-10,c),
(255,0,l)
);
},
{
closed = 1;
nodes = (
(946,190,o),
(926,465,o),
(736,465,cs),
(640,465,o),
(553,385,o),
(532,278,c),
(592,106,l),
(595,268,o),
(628,353,o),
(681,353,cs),
(758,353,o),
(746,164,o),
(698,5,c),
(921,-8,l)
);
}
);
width = 970;
}
);
metricLeft = l;
unicode = 109;
},
{
glyphname = n;
kernLeft = idotless_1;
kernRight = n_2;
lastChange = "2022-08-23 06:31:59 +0000";
layers = (
{
anchors = (
{
name = bottom;
pos = (320,0);
},
{
name = top;
pos = (372,520);
}
);
guides = (
{
pos = (165,229);
showMeasurement = 1;
}
);
layerId = m002;
name = Black;
shapes = (
{
closed = 1;
nodes = (
(575,195,o),
(565,466,o),
(378,466,cs),
(215,466,o),
(131,249,o),
(120,125,c),
(180,0,l),
(193,217,o),
(262,411,o),
(356,411,cs),
(455,411,o),
(492,229,o),
(442,3,c),
(547,-8,l)
);
},
{
closed = 1;
nodes = (
(188,161,o),
(189,285,o),
(163,462,c),
(81,446,l),
(96,298,o),
(95,141,o),
(75,-10,c),
(180,0,l)
);
}
);
width = 624;
},
{
anchors = (
{
name = bottom;
pos = (333,0);
},
{
name = top;
pos = (353,520);
}
);
guides = (
{
pos = (198,229);
showMeasurement = 1;
}
);
layerId = m003;
name = Black;
shapes = (
{
closed = 1;
nodes = (
(661,162,o),
(649,465,o),
(457,465,cs),
(343,465,o),
(222,315,o),
(222,141,c),
(259,1,l),
(288,224,o),
(359,335,o),
(406,335,cs),
(495,335,o),
(426,82,o),
(392,0,c),
(640,-12,l)
);
},
{
closed = 1;
nodes = (
(270,185,o),
(259,287,o),
(229,469,c),
(61,431,l),
(76,285,o),
(66,153,o),
(40,-15,c),
(259,1,l)
);
}
);
width = 681;
},
{
anchors = (
{
name = bottom;
pos = (323,0);
},
{
name = top;
pos = (367,520);
}
);
layerId = "68C5B637-35C1-4638-A7C2-DD6A34998814";
name = Black;
shapes = (
{
closed = 1;
nodes = (
(597,187,o),
(586,466,o),
(398,466,cs),
(247,466,o),
(154,266,o),
(146,129,c),
(200,0,l),
(217,219,o),
(286,392,o),
(369,392,cs),
(465,392,o),
(476,192,o),
(430,2,c),
(570,-9,l)
);
},
{
closed = 1;
nodes = (
(209,167,o),
(207,286,o),
(180,464,c),
(76,442,l),
(91,295,o),
(88,144,o),
(66,-11,c),
(200,0,l)
);
}
);
width = 638.25;
},
{
anchors = (
{
name = bottom;
pos = (326,0);
},
{
name = top;
pos = (362,520);
}
);
layerId = "267D1DB6-4F39-4280-86D9-F184EF0BD2F7";
name = Black;
shapes = (
{
closed = 1;
nodes = (
(618,179,o),
(607,466,o),
(418,466,cs),
(279,466,o),
(177,282,o),
(171,133,c),
(220,0,l),
(241,221,o),
(310,373,o),
(381,373,cs),
(475,373,o),
(459,155,o),
(417,1,c),
(593,-10,l)
);
},
{
closed = 1;
nodes = (
(229,173,o),
(224,286,o),
(196,466,c),
(71,438,l),
(86,292,o),
(81,147,o),
(57,-12,c),
(220,0,l)
);
}
);
width = 652.5;
},
{
anchors = (
{
name = bottom;
pos = (330,0);
},
{
name = top;
pos = (358,520);
}
);
layerId = "34FE6C3C-97E7-412D-B228-A13225540168";
name = Black;
shapes = (
{
closed = 1;
nodes = (
(640,171,o),
(628,466,o),
(438,466,cs),
(311,466,o),
(200,299,o),
(197,137,c),
(240,1,l),
(265,223,o),
(335,354,o),
(394,354,cs),
(485,354,o),
(443,119,o),
(405,1,c),
(617,-11,l)
);
},
{
closed = 1;
nodes = (
(250,179,o),
(242,287,o),
(213,468,c),
(66,435,l),
(81,289,o),
(74,150,o),
(49,-13,c),
(240,1,l)
);
}
);
width = 666.75;
}
);
metricLeft = l;
unicode = 110;
},
{
glyphname = o;
kernLeft = o_1;
kernRight = o_2;
lastChange = "2022-08-23 06:31:59 +0000";
layers = (
{
anchors = (
{
name = bottom;
pos = (269,-42);
},
{
name = top;
pos = (267,520);
}
);
guides = (
{
pos = (513,385);
},
{
pos = (513,135);
}
);
layerId = m002;
name = Black;
shapes = (
{
closed = 1;
nodes = (
(424,-12,o),
(502,107,o),
(502,226,cs),
(502,345,o),
(424,463,o),
(268,463,cs),
(121,463,o),
(45,343,o),
(45,223,cs),
(45,105,o),
(119,-12,o),
(270,-12,cs)
);
},
{
closed = 1;
nodes = (
(199,43,o),
(140,121,o),
(140,218,cs),
(140,298,o),
(190,376,o),
(275,376,cs),
(362,376,o),
(411,299,o),
(411,220,cs),
(411,132,o),
(375,43,o),
(279,43,cs)
);
}
);
width = 547;
},
{
anchors = (
{
name = bottom;
pos = (291,-42);
},
{
name = top;
pos = (267,520);
}
);
guides = (
{
pos = (535,385);
},
{
pos = (535,135);
}
);
layerId = m003;
name = Black;
shapes = (
{
closed = 1;
nodes = (
(472,-12,o),
(564,107,o),
(564,226,cs),
(564,345,o),
(473,463,o),
(289,463,cs),
(116,463,o),
(27,343,o),
(27,223,cs),
(27,105,o),
(114,-12,o),
(291,-12,cs)
);
},
{
closed = 1;
nodes = (
(239,78,o),
(218,133,o),
(218,186,cs),
(218,235,o),
(236,283,o),
(277,283,cs),
(317,283,o),
(335,236,o),
(335,187,cs),
(335,134,o),
(313,78,o),
(273,78,cs)
);
}
);
width = 591;
},
{
anchors = (
{
name = bottom;
pos = (275,-42);
},
{
name = top;
pos = (267,520);
}
);
layerId = "68C5B637-35C1-4638-A7C2-DD6A34998814";
name = Black;
shapes = (
{
closed = 1;
nodes = (
(436,-12,o),
(518,107,o),
(518,226,cs),
(518,345,o),
(436,463,o),
(273,463,cs),
(120,463,o),
(41,343,o),
(41,223,cs),
(41,105,o),
(118,-12,o),
(275,-12,cs)
);
},
{
closed = 1;
nodes = (
(209,52,o),
(160,124,o),
(160,210,cs),
(160,282,o),
(202,353,o),
(276,353,cs),
(351,353,o),
(392,283,o),
(392,212,cs),
(392,133,o),
(360,52,o),
(278,52,cs)
);
}
);
width = 558;
},
{
anchors = (
{
name = bottom;
pos = (280,-42);
},
{
name = top;
pos = (267,520);
}
);
layerId = "267D1DB6-4F39-4280-86D9-F184EF0BD2F7";
name = Black;
shapes = (
{
closed = 1;
nodes = (
(448,-12,o),
(533,107,o),
(533,226,cs),
(533,345,o),
(448,463,o),
(278,463,cs),
(119,463,o),
(36,343,o),
(36,223,cs),
(36,105,o),
(117,-12,o),
(280,-12,cs)
);
},
{
closed = 1;
nodes = (
(219,61,o),
(179,127,o),
(179,202,cs),
(179,266,o),
(213,330,o),
(276,330,cs),
(340,330,o),
(373,267,o),
(373,204,cs),
(373,133,o),
(344,61,o),
(276,61,cs)
);
}
);
width = 569;
},
{
anchors = (
{
name = bottom;
pos = (286,-42);
},
{
name = top;
pos = (267,520);
}
);
layerId = "34FE6C3C-97E7-412D-B228-A13225540168";
name = Black;
shapes = (
{
closed = 1;
nodes = (
(460,-12,o),
(549,107,o),
(549,226,cs),
(549,345,o),
(461,463,o),
(284,463,cs),
(118,463,o),
(32,343,o),
(32,223,cs),
(32,105,o),
(116,-12,o),
(286,-12,cs)
);
},
{
closed = 1;
nodes = (
(229,70,o),
(199,130,o),
(199,194,cs),
(199,251,o),
(225,307,o),
(277,307,cs),
(329,307,o),
(354,252,o),
(354,196,cs),
(354,134,o),
(329,70,o),
(275,70,cs)
);
}
);
width = 580;
}
);
unicode = 111;
},
{
glyphname = oslash;
kernLeft = o_1;
kernRight = o_2;
lastChange = "2022-08-23 06:31:59 +0000";
layers = (
{
anchors = (
{
name = bottom;
pos = (269,-42);
},
{
name = top;
pos = (267,520);
}
);
layerId = m002;
name = Black;
shapes = (
{
closed = 1;
nodes = (
(475,488,l),
(385,512,l),
(108,-40,l),
(175,-62,l)
);
},
{
closed = 1;
nodes = (
(424,-12,o),
(502,107,o),
(502,226,cs),
(502,345,o),
(424,463,o),
(268,463,cs),
(121,463,o),
(45,343,o),
(45,223,cs),
(45,105,o),
(119,-12,o),
(270,-12,cs)
);
},
{
closed = 1;
nodes = (
(199,43,o),
(140,121,o),
(140,218,cs),
(140,298,o),
(190,376,o),
(275,376,cs),
(362,376,o),
(411,299,o),
(411,220,cs),
(411,132,o),
(375,43,o),
(279,43,cs)
);
}
);
width = 591;
},
{
anchors = (
{
name = bottom;
pos = (291,-42);
},
{
name = top;
pos = (267,520);
}
);
layerId = m003;
name = Black;
shapes = (
{
closed = 1;
nodes = (
(474,488,l),
(366,516,l),
(108,-39,l),
(197,-68,l)
);
},
{
closed = 1;
nodes = (
(472,-12,o),
(564,107,o),
(564,226,cs),
(564,345,o),
(473,463,o),
(289,463,cs),
(116,463,o),
(27,343,o),
(27,223,cs),
(27,105,o),
(114,-12,o),
(291,-12,cs)
);
},
{
closed = 1;
nodes = (
(196,36,o),
(156,113,o),
(156,188,cs),
(156,257,o),
(190,325,o),
(257,325,cs),
(343,325,o),
(377,259,o),
(377,190,cs),
(377,115,o),
(335,36,o),
(270,36,cs)
);
}
);
width = 591;
},
{
anchors = (
{
name = bottom;
pos = (275,-42);
},
{
name = top;
pos = (267,520);
}
);
layerId = "68C5B637-35C1-4638-A7C2-DD6A34998814";
name = Black;
shapes = (
{
closed = 1;
nodes = (
(475,488,l),
(380,513,l),
(108,-40,l),
(181,-63,l)
);
},
{
closed = 1;
nodes = (
(436,-12,o),
(518,107,o),
(518,226,cs),
(518,345,o),
(436,463,o),
(273,463,cs),
(120,463,o),
(41,343,o),
(41,223,cs),
(41,105,o),
(118,-12,o),
(275,-12,cs)
);
},
{
closed = 1;
nodes = (
(198,41,o),
(144,119,o),
(144,211,cs),
(144,288,o),
(190,363,o),
(271,363,cs),
(357,363,o),
(403,289,o),
(403,213,cs),
(403,128,o),
(365,41,o),
(277,41,cs)
);
}
);
width = 591;
},
{
anchors = (
{
name = bottom;
pos = (280,-42);
},
{
name = top;
pos = (267,520);
}
);
layerId = "267D1DB6-4F39-4280-86D9-F184EF0BD2F7";
name = Black;
shapes = (
{
closed = 1;
nodes = (
(475,488,l),
(375,514,l),
(108,-40,l),
(186,-65,l)
);
},
{
closed = 1;
nodes = (
(448,-12,o),
(533,107,o),
(533,226,cs),
(533,345,o),
(448,463,o),
(278,463,cs),
(119,463,o),
(36,343,o),
(36,223,cs),
(36,105,o),
(117,-12,o),
(280,-12,cs)
);
},
{
closed = 1;
nodes = (
(197,39,o),
(148,117,o),
(148,203,cs),
(148,278,o),
(190,350,o),
(266,350,cs),
(352,350,o),
(394,279,o),
(394,205,cs),
(394,124,o),
(355,39,o),
(275,39,cs)
);
}
);
width = 591;
},
{
anchors = (
{
name = bottom;
pos = (286,-42);
},
{
name = top;
pos = (267,520);
}
);
layerId = "34FE6C3C-97E7-412D-B228-A13225540168";
name = Black;
shapes = (
{
closed = 1;
nodes = (
(475,488,l),
(371,515,l),
(108,-39,l),
(192,-66,l)
);
},
{
closed = 1;
nodes = (
(460,-12,o),
(549,107,o),
(549,226,cs),
(549,345,o),
(461,463,o),
(284,463,cs),
(118,463,o),
(32,343,o),
(32,223,cs),
(32,105,o),
(116,-12,o),
(286,-12,cs)
);
},
{
closed = 1;
nodes = (
(197,38,o),
(152,115,o),
(152,196,cs),
(152,268,o),
(190,338,o),
(262,338,cs),
(348,338,o),
(386,269,o),
(386,198,cs),
(386,120,o),
(345,38,o),
(273,38,cs)
);
}
);
width = 591;
}
);
unicode = 248;
},
{
glyphname = p;
kernLeft = idotless_1;
kernRight = o_2;
lastChange = "2022-08-23 06:42:28 +0000";
layers = (
{
guides = (
{
pos = (314,405);
},
{
pos = (314,115);
}
);
layerId = m002;
name = Black;
shapes = (
{
closed = 1;
nodes = (
(179,-288,l),
(189,-37,o),
(189,180,o),
(161,457,c),
(81,444,l),
(95,186,o),
(93,-62,o),
(75,-302,c)
);
},
{
closed = 1;
nodes = (
(468,38,o),
(549,182,o),
(549,295,cs),
(549,397,o),
(469,459,o),
(378,459,cs),
(264,459,o),
(135,363,o),
(119,126,c),
(181,157,l),
(181,286,o),
(264,376,o),
(355,376,cs),
(408,376,o),
(444,340,o),
(444,288,cs),
(444,186,o),
(352,72,o),
(142,19,c),
(160,-34,l)
);
}
);
width = 594;
},
{
guides = (
{
pos = (332,405);
},
{
pos = (332,115);
}
);
layerId = m003;
name = Black;
shapes = (
{
closed = 1;
nodes = (
(299,-285,l),
(299,-16,o),
(288,156,o),
(244,459,c),
(60,432,l),
(71,124,o),
(71,-11,o),
(40,-308,c)
);
},
{
closed = 1;
nodes = (
(537,38,o),
(610,182,o),
(610,295,cs),
(610,397,o),
(538,459,o),
(456,459,cs),
(353,459,o),
(235,363,o),
(221,126,c),
(280,153,l),
(280,245,o),
(340,286,o),
(393,286,cs),
(427,286,o),
(442,257,o),
(442,229,cs),
(442,192,o),
(419,138,o),
(231,85,c),
(260,-34,l)
);
}
);
width = 637;
},
{
layerId = "68C5B637-35C1-4638-A7C2-DD6A34998814";
name = Black;
shapes = (
{
closed = 1;
nodes = (
(209,-287,l),
(217,-32,o),
(214,174,o),
(182,458,c),
(76,441,l),
(89,171,o),
(88,-49,o),
(66,-303,c)
);
},
{
closed = 1;
nodes = (
(485,38,o),
(564,182,o),
(564,295,cs),
(564,397,o),
(486,459,o),
(398,459,cs),
(286,459,o),
(160,363,o),
(145,126,c),
(206,156,l),
(206,276,o),
(283,354,o),
(365,354,cs),
(413,354,o),
(444,319,o),
(444,273,cs),
(444,188,o),
(369,89,o),
(164,36,c),
(185,-34,l)
);
}
);
width = 604;
},
{
layerId = "267D1DB6-4F39-4280-86D9-F184EF0BD2F7";
name = Black;
shapes = (
{
closed = 1;
nodes = (
(239,-286,l),
(244,-27,o),
(239,168,o),
(203,458,c),
(71,438,l),
(83,155,o),
(82,-36,o),
(57,-305,c)
);
},
{
closed = 1;
nodes = (
(502,38,o),
(579,182,o),
(579,295,cs),
(579,397,o),
(503,459,o),
(417,459,cs),
(308,459,o),
(185,363,o),
(170,126,c),
(231,155,l),
(231,266,o),
(302,331,o),
(374,331,cs),
(418,331,o),
(443,298,o),
(443,258,cs),
(443,189,o),
(386,105,o),
(186,52,c),
(210,-34,l)
);
}
);
width = 615;
},
{
layerId = "34FE6C3C-97E7-412D-B228-A13225540168";
name = Black;
shapes = (
{
closed = 1;
nodes = (
(269,-285,l),
(272,-21,o),
(264,162,o),
(224,459,c),
(66,435,l),
(77,140,o),
(77,-23,o),
(49,-306,c)
);
},
{
closed = 1;
nodes = (
(520,38,o),
(595,182,o),
(595,295,cs),
(595,397,o),
(521,459,o),
(437,459,cs),
(331,459,o),
(210,363,o),
(196,126,c),
(256,154,l),
(256,256,o),
(321,309,o),
(384,309,cs),
(423,309,o),
(443,278,o),
(443,244,cs),
(443,191,o),
(403,122,o),
(209,69,c),
(235,-34,l)
);
}
);
width = 626.25;
}
);
metricLeft = l;
metricRight = o;
unicode = 112;
},
{
glyphname = thorn;
kernLeft = idotless_1;
kernRight = o_2;
lastChange = "2022-08-23 06:31:59 +0000";
layers = (
{
layerId = m002;
name = Black;
shapes = (
{
closed = 1;
nodes = (
(179,-168,l),
(189,83,o),
(189,320,o),
(161,597,c),
(81,584,l),
(95,326,o),
(93,58,o),
(75,-182,c)
);
},
{
closed = 1;
nodes = (
(468,38,o),
(549,182,o),
(549,295,cs),
(549,397,o),
(469,459,o),
(378,459,cs),
(264,459,o),
(135,363,o),
(119,126,c),
(181,157,l),
(181,286,o),
(264,376,o),
(355,376,cs),
(408,376,o),
(444,340,o),
(444,288,cs),
(444,186,o),
(352,72,o),
(142,19,c),
(160,-34,l)
);
}
);
width = 594;
},
{
layerId = m003;
name = Black;
shapes = (
{
closed = 1;
nodes = (
(296,-165,l),
(296,104,o),
(285,306,o),
(241,609,c),
(57,582,l),
(68,274,o),
(68,109,o),
(37,-188,c)
);
},
{
closed = 1;
nodes = (
(534,38,o),
(607,182,o),
(607,295,cs),
(607,397,o),
(535,459,o),
(453,459,cs),
(350,459,o),
(232,363,o),
(218,126,c),
(277,153,l),
(277,245,o),
(337,286,o),
(390,286,cs),
(424,286,o),
(439,257,o),
(439,229,cs),
(439,192,o),
(416,138,o),
(228,85,c),
(257,-34,l)
);
}
);
width = 634;
},
{
layerId = "68C5B637-35C1-4638-A7C2-DD6A34998814";
name = Black;
shapes = (
{
closed = 1;
nodes = (
(208,-167,l),
(216,88,o),
(213,317,o),
(181,600,c),
(75,584,l),
(88,313,o),
(87,71,o),
(66,-183,c)
);
},
{
closed = 1;
nodes = (
(485,38,o),
(564,182,o),
(564,295,cs),
(564,397,o),
(486,459,o),
(397,459,cs),
(286,459,o),
(159,363,o),
(144,126,c),
(205,156,l),
(205,276,o),
(282,354,o),
(364,354,cs),
(412,354,o),
(443,319,o),
(443,273,cs),
(443,188,o),
(368,89,o),
(164,36,c),
(184,-34,l)
);
}
);
width = 604;
},
{
layerId = "267D1DB6-4F39-4280-86D9-F184EF0BD2F7";
name = Black;
shapes = (
{
closed = 1;
nodes = (
(237,-166,l),
(243,93,o),
(237,313,o),
(201,603,c),
(69,583,l),
(81,300,o),
(81,84,o),
(56,-185,c)
);
},
{
closed = 1;
nodes = (
(501,38,o),
(578,182,o),
(578,295,cs),
(578,397,o),
(502,459,o),
(416,459,cs),
(307,459,o),
(183,363,o),
(169,126,c),
(229,155,l),
(229,266,o),
(300,331,o),
(373,331,cs),
(416,331,o),
(442,298,o),
(442,258,cs),
(442,189,o),
(384,105,o),
(185,52,c),
(208,-34,l)
);
}
);
width = 614;
},
{
layerId = "34FE6C3C-97E7-412D-B228-A13225540168";
name = Black;
shapes = (
{
closed = 1;
nodes = (
(267,-165,l),
(270,99,o),
(261,310,o),
(221,606,c),
(63,583,l),
(75,287,o),
(75,97,o),
(47,-186,c)
);
},
{
closed = 1;
nodes = (
(518,38,o),
(593,182,o),
(593,295,cs),
(593,397,o),
(519,459,o),
(435,459,cs),
(329,459,o),
(208,363,o),
(194,126,c),
(253,154,l),
(253,256,o),
(319,309,o),
(382,309,cs),
(420,309,o),
(441,278,o),
(441,244,cs),
(441,191,o),
(400,122,o),
(207,69,c),
(233,-34,l)
);
}
);
width = 624;
}
);
metricRight = o;
unicode = 254;
},
{
glyphname = q;
kernLeft = o_1;
lastChange = "2022-08-23 06:42:43 +0000";
layers = (
{
guides = (
{
pos = (555,350);
},
{
pos = (547,98);
}
);
layerId = m002;
name = Black;
shapes = (
{
closed = 1;
nodes = (
(316,-9,o),
(427,82,o),
(442,319,c),
(384,270,l),
(378,144,o),
(317,69,o),
(240,69,cs),
(183,69,o),
(154,115,o),
(154,172,cs),
(154,230,o),
(195,339,o),
(422,389,c),
(398,447,l),
(141,373,o),
(45,263,o),
(45,150,cs),
(45,48,o),
(121,-9,o),
(208,-9,cs)
);
},
{
closed = 1;
nodes = (
(484,-284,l),
(457,-44,o),
(464,196,o),
(478,454,c),
(398,447,l),
(370,170,o),
(361,-54,o),
(380,-305,c)
);
}
);
width = 559;
},
{
guides = (
{
pos = (578,350);
},
{
pos = (570,98);
}
);
layerId = m003;
name = Black;
shapes = (
{
closed = 1;
nodes = (
(284,-14,o),
(398,62,o),
(412,299,c),
(356,268,l),
(341,176,o),
(308,154,o),
(274,154,cs),
(246,154,o),
(217,172,o),
(217,211,cs),
(217,268,o),
(292,328,o),
(442,347,c),
(380,441,l),
(136,367,o),
(27,243,o),
(27,130,cs),
(27,28,o),
(99,-14,o),
(181,-14,cs)
);
},
{
closed = 1;
nodes = (
(578,-272,l),
(555,-32,o),
(550,220,o),
(560,458,c),
(380,441,l),
(337,164,o),
(319,-60,o),
(319,-311,c)
);
}
);
width = 618;
},
{
layerId = "68C5B637-35C1-4638-A7C2-DD6A34998814";
name = Black;
shapes = (
{
closed = 1;
nodes = (
(308,-10,o),
(420,77,o),
(435,314,c),
(377,270,l),
(369,152,o),
(315,90,o),
(249,90,cs),
(199,90,o),
(170,129,o),
(170,182,cs),
(170,240,o),
(219,336,o),
(427,379,c),
(394,446,l),
(140,372,o),
(41,258,o),
(41,145,cs),
(41,43,o),
(116,-10,o),
(201,-10,cs)
);
},
{
closed = 1;
nodes = (
(508,-281,l),
(482,-41,o),
(486,202,o),
(499,455,c),
(394,446,l),
(362,169,o),
(351,-55,o),
(365,-306,c)
);
}
);
width = 576;
},
{
layerId = "267D1DB6-4F39-4280-86D9-F184EF0BD2F7";
name = Black;
shapes = (
{
closed = 1;
nodes = (
(300,-11,o),
(413,72,o),
(427,309,c),
(370,269,l),
(360,160,o),
(313,111,o),
(257,111,cs),
(215,111,o),
(186,143,o),
(186,192,cs),
(186,249,o),
(243,333,o),
(432,368,c),
(389,444,l),
(139,370,o),
(36,253,o),
(36,140,cs),
(36,38,o),
(110,-11,o),
(194,-11,cs)
);
},
{
closed = 1;
nodes = (
(531,-278,l),
(506,-38,o),
(507,208,o),
(519,456,c),
(389,444,l),
(354,167,o),
(340,-57,o),
(350,-308,c)
);
}
);
width = 590;
},
{
layerId = "34FE6C3C-97E7-412D-B228-A13225540168";
name = Black;
shapes = (
{
closed = 1;
nodes = (
(292,-12,o),
(406,67,o),
(420,304,c),
(363,269,l),
(351,168,o),
(311,133,o),
(266,133,cs),
(231,133,o),
(202,158,o),
(202,202,cs),
(202,259,o),
(268,331,o),
(437,358,c),
(385,443,l),
(138,369,o),
(32,248,o),
(32,135,cs),
(32,33,o),
(105,-12,o),
(188,-12,cs)
);
},
{
closed = 1;
nodes = (
(555,-275,l),
(531,-35,o),
(529,214,o),
(540,457,c),
(385,443,l),
(346,166,o),
(330,-58,o),
(335,-309,c)
);
}
);
width = 605;
}
);
metricLeft = o;
metricRight = l;
unicode = 113;
},
{
glyphname = r;
kernLeft = idotless_1;
kernRight = r_2;
lastChange = "2022-08-23 06:31:59 +0000";
layers = (
{
anchors = (
{
name = bottom;
pos = (143,-30);
},
{
name = top;
pos = (341,520);
}
);
layerId = m002;
name = Black;
shapes = (
{
closed = 1;
nodes = (
(200,289,o),
(255,423,o),
(424,348,c),
(445,449,l),
(294,517,o),
(145,339,o),
(138,110,c),
(180,-3,l)
);
},
{
closed = 1;
nodes = (
(188,158,o),
(189,282,o),
(163,459,c),
(81,443,l),
(96,295,o),
(95,138,o),
(75,-13,c),
(180,-3,l)
);
}
);
width = 475;
},
{
anchors = (
{
name = bottom;
pos = (156,-30);
},
{
name = top;
pos = (341,520);
}
);
layerId = m003;
name = Black;
shapes = (
{
closed = 1;
nodes = (
(281,228,o),
(316,317,o),
(500,218,c),
(528,449,l),
(374,528,o),
(253,400,o),
(243,171,c),
(260,-15,l)
);
},
{
closed = 1;
nodes = (
(271,169,o),
(269,287,o),
(239,469,c),
(61,431,l),
(76,285,o),
(66,183,o),
(40,15,c),
(260,-15,l)
);
}
);
width = 573;
},
{
anchors = (
{
name = bottom;
pos = (146,-30);
},
{
name = top;
pos = (341,520);
}
);
layerId = "68C5B637-35C1-4638-A7C2-DD6A34998814";
name = Black;
shapes = (
{
closed = 1;
nodes = (
(220,274,o),
(270,397,o),
(443,316,c),
(466,449,l),
(314,520,o),
(172,354,o),
(164,125,c),
(200,-6,l)
);
},
{
closed = 1;
nodes = (
(209,161,o),
(209,283,o),
(182,462,c),
(76,440,l),
(91,293,o),
(88,149,o),
(66,-6,c),
(200,-6,l)
);
}
);
width = 499.5;
},
{
anchors = (
{
name = bottom;
pos = (149,-30);
},
{
name = top;
pos = (341,520);
}
);
layerId = "267D1DB6-4F39-4280-86D9-F184EF0BD2F7";
name = Black;
shapes = (
{
closed = 1;
nodes = (
(240,259,o),
(285,370,o),
(462,283,c),
(487,449,l),
(334,523,o),
(199,369,o),
(190,140,c),
(220,-9,l)
);
},
{
closed = 1;
nodes = (
(230,164,o),
(229,284,o),
(201,464,c),
(71,437,l),
(86,290,o),
(81,160,o),
(57,1,c),
(220,-9,l)
);
}
);
width = 524;
},
{
anchors = (
{
name = bottom;
pos = (153,-30);
},
{
name = top;
pos = (341,520);
}
);
layerId = "34FE6C3C-97E7-412D-B228-A13225540168";
name = Black;
shapes = (
{
closed = 1;
nodes = (
(261,244,o),
(301,344,o),
(481,251,c),
(508,449,l),
(354,526,o),
(226,385,o),
(217,156,c),
(240,-12,l)
);
},
{
closed = 1;
nodes = (
(251,167,o),
(249,286,o),
(220,467,c),
(66,434,l),
(81,288,o),
(74,172,o),
(49,8,c),
(240,-12,l)
);
}
);
width = 548.5;
}
);
metricLeft = l;
unicode = 114;
},
{
glyphname = s;
kernLeft = s_1;
kernRight = s_2;
lastChange = "2022-08-23 06:31:59 +0000";
layers = (
{
anchors = (
{
name = bottom;
pos = (214,-19);
},
{
name = cedilla;
pos = (223,17);
},
{
name = top;
pos = (227,520);
}
);
guides = (
{
pos = (-41,385);
},
{
pos = (-41,135);
}
);
layerId = m002;
name = Black;
shapes = (
{
closed = 1;
nodes = (
(325,-21,o),
(413,10,o),
(413,108,cs),
(413,258,o),
(174,231,o),
(174,345,cs),
(174,377,o),
(195,402,o),
(234,402,cs),
(274,402,o),
(329,387,o),
(366,347,c),
(399,400,l),
(350,447,o),
(278,474,o),
(215,474,cs),
(137,474,o),
(71,434,o),
(71,359,cs),
(71,204,o),
(307,198,o),
(307,108,cs),
(307,81,o),
(284,39,o),
(216,39,cs),
(149,39,o),
(98,54,o),
(51,71,c),
(45,7,l),
(97,-9,o),
(164,-21,o),
(226,-21,cs)
);
}
);
width = 458;
},
{
anchors = (
{
name = bottom;
pos = (228,-19);
},
{
name = cedilla;
pos = (237,17);
},
{
name = top;
pos = (212,520);
}
);
guides = (
{
pos = (-27,385);
},
{
pos = (-27,135);
}
);
layerId = m003;
name = Black;
shapes = (
{
closed = 1;
nodes = (
(356,-21,o),
(459,10,o),
(459,108,cs),
(459,244,o),
(242,214,o),
(242,301,cs),
(242,323,o),
(266,337,o),
(288,337,cs),
(312,337,o),
(342,324,o),
(381,284,c),
(443,400,l),
(385,447,o),
(301,474,o),
(226,474,cs),
(135,474,o),
(57,434,o),
(57,343,cs),
(57,192,o),
(235,225,o),
(235,149,cs),
(235,122,o),
(216,112,o),
(189,112,cs),
(150,112,o),
(81,139,o),
(42,160,c),
(27,7,l),
(88,-9,o),
(167,-21,o),
(239,-21,cs)
);
}
);
width = 486;
},
{
anchors = (
{
name = bottom;
pos = (218,-19);
},
{
name = cedilla;
pos = (227,17);
},
{
name = top;
pos = (223,520);
}
);
layerId = "68C5B637-35C1-4638-A7C2-DD6A34998814";
name = Black;
shapes = (
{
closed = 1;
nodes = (
(333,-21,o),
(425,10,o),
(425,108,cs),
(425,255,o),
(191,227,o),
(191,334,cs),
(191,364,o),
(213,386,o),
(248,386,cs),
(284,386,o),
(332,371,o),
(370,331,c),
(410,400,l),
(359,447,o),
(284,474,o),
(218,474,cs),
(137,474,o),
(68,434,o),
(68,355,cs),
(68,201,o),
(289,205,o),
(289,118,cs),
(289,91,o),
(267,57,o),
(209,57,cs),
(149,57,o),
(94,75,o),
(49,93,c),
(41,7,l),
(95,-9,o),
(165,-21,o),
(229,-21,cs)
);
}
);
width = 465;
},
{
anchors = (
{
name = bottom;
pos = (221,-19);
},
{
name = cedilla;
pos = (230,17);
},
{
name = top;
pos = (219,520);
}
);
layerId = "267D1DB6-4F39-4280-86D9-F184EF0BD2F7";
name = Black;
shapes = (
{
closed = 1;
nodes = (
(341,-21,o),
(436,10,o),
(436,108,cs),
(436,251,o),
(208,223,o),
(208,323,cs),
(208,350,o),
(231,370,o),
(261,370,cs),
(293,370,o),
(335,355,o),
(374,315,c),
(421,400,l),
(368,447,o),
(290,474,o),
(221,474,cs),
(136,474,o),
(64,434,o),
(64,351,cs),
(64,198,o),
(271,212,o),
(271,128,cs),
(271,101,o),
(250,75,o),
(202,75,cs),
(149,75,o),
(90,96,o),
(47,115,c),
(36,7,l),
(93,-9,o),
(166,-21,o),
(232,-21,cs)
);
}
);
width = 472;
},
{
anchors = (
{
name = bottom;
pos = (225,-19);
},
{
name = cedilla;
pos = (234,17);
},
{
name = top;
pos = (216,520);
}
);
layerId = "34FE6C3C-97E7-412D-B228-A13225540168";
name = Black;
shapes = (
{
closed = 1;
nodes = (
(349,-21,o),
(448,10,o),
(448,108,cs),
(448,248,o),
(225,219,o),
(225,312,cs),
(225,337,o),
(249,354,o),
(275,354,cs),
(303,354,o),
(339,340,o),
(378,300,c),
(432,400,l),
(377,447,o),
(296,474,o),
(224,474,cs),
(136,474,o),
(61,434,o),
(61,347,cs),
(61,195,o),
(253,219,o),
(253,139,cs),
(253,112,o),
(233,94,o),
(196,94,cs),
(150,94,o),
(86,118,o),
(45,138,c),
(32,7,l),
(91,-9,o),
(167,-21,o),
(236,-21,cs)
);
}
);
width = 479;
}
);
unicode = 115;
},
{
glyphname = germandbls;
kernRight = s_2;
lastChange = "2022-08-23 06:31:59 +0000";
layers = (
{
layerId = m002;
name = Black;
shapes = (
{
closed = 1;
nodes = (
(212,2,l),
(209,153,o),
(210,344,o),
(217,500,cs),
(224,671,o),
(304,745,o),
(377,745,cs),
(445,745,o),
(487,692,o),
(487,606,cs),
(487,512,o),
(420,453,o),
(305,436,c),
(312,379,l),
(470,392,o),
(592,484,o),
(592,606,cs),
(592,741,o),
(487,796,o),
(371,796,cs),
(234,796,o),
(113,692,o),
(113,465,cs),
(113,356,o),
(121,201,o),
(131,-13,c)
);
},
{
closed = 1;
nodes = (
(478,9,o),
(608,116,o),
(608,259,cs),
(608,439,o),
(423,439,o),
(318,417,c),
(312,379,l),
(360,383,o),
(508,381,o),
(508,240,cs),
(508,157,o),
(437,72,o),
(324,62,c),
(332,9,l)
);
}
);
width = 681;
},
{
layerId = m003;
name = Black;
shapes = (
{
closed = 1;
nodes = (
(262,2,l),
(259,153,o),
(257,344,o),
(265,500,cs),
(273,671,o),
(316,735,o),
(369,735,cs),
(404,735,o),
(435,701,o),
(435,639,cs),
(435,578,o),
(392,496,o),
(297,452,c),
(306,376,l),
(492,376,o),
(636,484,o),
(636,606,cs),
(636,741,o),
(512,796,o),
(376,796,cs),
(214,796,o),
(37,692,o),
(37,465,cs),
(37,356,o),
(46,201,o),
(58,-13,c)
);
},
{
closed = 1;
nodes = (
(514,9,o),
(654,116,o),
(654,259,cs),
(654,450,o),
(436,439,o),
(313,417,c),
(306,376,l),
(363,381,o),
(462,337,o),
(462,261,cs),
(462,195,o),
(434,151,o),
(310,122,c),
(330,9,l)
);
}
);
width = 681;
},
{
layerId = "68C5B637-35C1-4638-A7C2-DD6A34998814";
name = Black;
shapes = (
{
closed = 1;
nodes = (
(225,2,l),
(222,153,o),
(222,344,o),
(229,500,cs),
(236,671,o),
(307,743,o),
(375,743,cs),
(435,743,o),
(474,694,o),
(474,614,cs),
(474,529,o),
(413,464,o),
(303,440,c),
(311,378,l),
(476,388,o),
(603,484,o),
(603,606,cs),
(603,741,o),
(493,796,o),
(372,796,cs),
(229,796,o),
(94,692,o),
(94,465,cs),
(94,356,o),
(102,201,o),
(113,-13,c)
);
},
{
closed = 1;
nodes = (
(487,9,o),
(620,116,o),
(620,259,cs),
(620,442,o),
(426,439,o),
(317,417,c),
(311,378,l),
(361,383,o),
(497,370,o),
(497,245,cs),
(497,167,o),
(436,92,o),
(321,77,c),
(332,9,l)
);
}
);
width = 681;
},
{
layerId = "267D1DB6-4F39-4280-86D9-F184EF0BD2F7";
name = Black;
shapes = (
{
closed = 1;
nodes = (
(237,2,l),
(234,153,o),
(234,344,o),
(241,500,cs),
(248,671,o),
(310,740,o),
(373,740,cs),
(425,740,o),
(461,696,o),
(461,622,cs),
(461,545,o),
(406,475,o),
(301,444,c),
(309,377,l),
(481,384,o),
(614,484,o),
(614,606,cs),
(614,741,o),
(499,796,o),
(373,796,cs),
(224,796,o),
(75,692,o),
(75,465,cs),
(75,356,o),
(83,201,o),
(95,-13,c)
);
},
{
closed = 1;
nodes = (
(496,9,o),
(631,116,o),
(631,259,cs),
(631,445,o),
(429,439,o),
(316,417,c),
(309,377,l),
(362,382,o),
(485,359,o),
(485,250,cs),
(485,176,o),
(435,112,o),
(317,92,c),
(331,9,l)
);
}
);
width = 681;
},
{
layerId = "34FE6C3C-97E7-412D-B228-A13225540168";
name = Black;
shapes = (
{
closed = 1;
nodes = (
(250,2,l),
(247,153,o),
(246,344,o),
(253,500,cs),
(261,671,o),
(313,738,o),
(371,738,cs),
(415,738,o),
(448,699,o),
(448,631,cs),
(448,562,o),
(399,486,o),
(299,448,c),
(308,377,l),
(487,380,o),
(625,484,o),
(625,606,cs),
(625,741,o),
(506,796,o),
(375,796,cs),
(219,796,o),
(56,692,o),
(56,465,cs),
(56,356,o),
(65,201,o),
(77,-13,c)
);
},
{
closed = 1;
nodes = (
(505,9,o),
(643,116,o),
(643,259,cs),
(643,448,o),
(433,439,o),
(315,417,c),
(308,377,l),
(363,382,o),
(474,348,o),
(474,256,cs),
(474,186,o),
(435,132,o),
(314,107,c),
(331,9,l)
);
}
);
width = 681;
}
);
unicode = 223;
},
{
glyphname = t;
kernLeft = t_1;
kernRight = t_2;
lastChange = "2022-08-23 06:31:59 +0000";
layers = (
{
anchors = (
{
name = bottom;
pos = (277,-9);
},
{
name = cedilla;
pos = (289,20);
},
{
name = top;
pos = (172,787);
},
{
name = topright;
pos = (314,707);
}
);
guides = (
{
pos = (126,385);
},
{
pos = (126,135);
}
);
layerId = m002;
name = Black;
shapes = (
{
closed = 1;
nodes = (
(375,105,l),
(251,93,o),
(155,118,o),
(156,264,cs),
(157,412,o),
(171,548,o),
(191,733,c),
(76,717,l),
(74,589,o),
(73,479,o),
(81,309,cs),
(90,108,o),
(148,-16,o),
(369,-1,c)
);
},
{
closed = 1;
nodes = (
(356,457,l),
(253,469,o),
(124,463,o),
(10,436,c),
(22,376,l),
(129,394,o),
(244,399,o),
(343,377,c)
);
}
);
width = 405;
},
{
anchors = (
{
name = bottom;
pos = (297,-9);
},
{
name = cedilla;
pos = (309,20);
},
{
name = top;
pos = (192,787);
},
{
name = topright;
pos = (394,707);
}
);
guides = (
{
pos = (146,385);
},
{
pos = (146,135);
}
);
layerId = m003;
name = Black;
shapes = (
{
closed = 1;
nodes = (
(428,219,l),
(281,207,o),
(251,255,o),
(255,327,cs),
(261,441,o),
(287,588,o),
(312,743,c),
(76,717,l),
(74,589,o),
(78,432,o),
(78,339,cs),
(78,109,o),
(161,-16,o),
(420,-1,c)
);
},
{
closed = 1;
nodes = (
(404,457,l),
(283,469,o),
(132,463,o),
(-3,436,c),
(12,354,l),
(138,372,o),
(273,369,o),
(389,347,c)
);
}
);
width = 458;
},
{
anchors = (
{
name = bottom;
pos = (282,-9);
},
{
name = cedilla;
pos = (294,20);
},
{
name = top;
pos = (177,787);
},
{
name = topright;
pos = (334,707);
}
);
layerId = "68C5B637-35C1-4638-A7C2-DD6A34998814";
name = Black;
shapes = (
{
closed = 1;
nodes = (
(388,134,l),
(259,122,o),
(179,152,o),
(181,280,cs),
(183,419,o),
(200,558,o),
(221,736,c),
(76,717,l),
(74,589,o),
(74,467,o),
(80,317,cs),
(87,108,o),
(151,-16,o),
(382,-1,c)
);
},
{
closed = 1;
nodes = (
(368,457,l),
(261,469,o),
(126,463,o),
(7,436,c),
(20,371,l),
(131,389,o),
(251,392,o),
(355,370,c)
);
}
);
width = 418.25;
},
{
anchors = (
{
name = bottom;
pos = (287,-9);
},
{
name = cedilla;
pos = (299,20);
},
{
name = top;
pos = (182,787);
},
{
name = topright;
pos = (354,707);
}
);
layerId = "267D1DB6-4F39-4280-86D9-F184EF0BD2F7";
name = Black;
shapes = (
{
closed = 1;
nodes = (
(401,162,l),
(266,150,o),
(203,186,o),
(206,296,cs),
(209,426,o),
(229,568,o),
(251,738,c),
(76,717,l),
(74,589,o),
(75,455,o),
(79,324,cs),
(84,108,o),
(154,-16,o),
(395,-1,c)
);
},
{
closed = 1;
nodes = (
(380,457,l),
(268,469,o),
(128,463,o),
(4,436,c),
(17,365,l),
(133,383,o),
(258,384,o),
(366,362,c)
);
}
);
width = 431.5;
},
{
anchors = (
{
name = bottom;
pos = (292,-9);
},
{
name = cedilla;
pos = (304,20);
},
{
name = top;
pos = (187,787);
},
{
name = topright;
pos = (374,707);
}
);
layerId = "34FE6C3C-97E7-412D-B228-A13225540168";
name = Black;
shapes = (
{
closed = 1;
nodes = (
(415,191,l),
(274,179,o),
(227,221,o),
(231,312,cs),
(235,434,o),
(258,578,o),
(282,741,c),
(76,717,l),
(74,589,o),
(77,444,o),
(79,332,cs),
(81,109,o),
(158,-16,o),
(408,-1,c)
);
},
{
closed = 1;
nodes = (
(392,457,l),
(276,469,o),
(130,463,o),
(1,436,c),
(15,360,l),
(136,378,o),
(266,377,o),
(378,355,c)
);
}
);
width = 444.75;
}
);
unicode = 116;
},
{
glyphname = u;
kernLeft = u_1;
kernRight = i_2;
lastChange = "2022-08-23 06:42:58 +0000";
layers = (
{
anchors = (
{
name = bottom;
pos = (321,-50);
},
{
name = ogonek;
pos = (543,10);
},
{
name = top;
pos = (321,520);
}
);
guides = (
{
pos = (12,385);
},
{
pos = (12,135);
}
);
layerId = m002;
name = Black;
shapes = (
{
closed = 1;
nodes = (
(409,-10,o),
(493,207,o),
(504,331,c),
(444,456,l),
(431,239,o),
(362,45,o),
(268,45,cs),
(169,45,o),
(132,237,o),
(182,463,c),
(77,454,l),
(49,251,o),
(59,-10,o),
(246,-10,cs)
);
},
{
closed = 1;
nodes = (
(543,10,l),
(528,158,o),
(529,315,o),
(549,466,c),
(444,456,l),
(436,295,o),
(435,171,o),
(461,-6,c)
);
}
);
width = 624;
},
{
anchors = (
{
name = bottom;
pos = (341,-50);
},
{
name = ogonek;
pos = (620,16);
},
{
name = top;
pos = (341,520);
}
);
guides = (
{
pos = (48,385);
},
{
pos = (48,135);
}
);
layerId = m003;
name = Black;
shapes = (
{
closed = 1;
nodes = (
(338,-18,o),
(459,102,o),
(459,276,c),
(422,448,l),
(393,225,o),
(322,112,o),
(275,112,cs),
(186,112,o),
(255,375,o),
(289,457,c),
(41,439,l),
(20,265,o),
(32,-18,o),
(224,-18,cs)
);
},
{
closed = 1;
nodes = (
(620,16,l),
(605,162,o),
(615,296,o),
(641,464,c),
(422,448,l),
(411,264,o),
(422,160,o),
(452,-22,c)
);
}
);
width = 681;
},
{
anchors = (
{
name = bottom;
pos = (326,-50);
},
{
name = ogonek;
pos = (562,12);
},
{
name = top;
pos = (326,520);
}
);
layerId = "68C5B637-35C1-4638-A7C2-DD6A34998814";
name = Black;
shapes = (
{
closed = 1;
nodes = (
(391,-12,o),
(485,181,o),
(493,317,c),
(439,454,l),
(422,236,o),
(352,62,o),
(270,62,cs),
(173,62,o),
(163,272,o),
(209,462,c),
(68,450,l),
(42,255,o),
(52,-12,o),
(241,-12,cs)
);
},
{
closed = 1;
nodes = (
(562,12,l),
(547,159,o),
(551,310,o),
(572,466,c),
(439,454,l),
(430,287,o),
(432,168,o),
(459,-10,c)
);
}
);
width = 640;
},
{
anchors = (
{
name = bottom;
pos = (331,-50);
},
{
name = ogonek;
pos = (581,13);
},
{
name = top;
pos = (331,520);
}
);
layerId = "267D1DB6-4F39-4280-86D9-F184EF0BD2F7";
name = Black;
shapes = (
{
closed = 1;
nodes = (
(373,-14,o),
(476,155,o),
(482,303,c),
(433,452,l),
(412,232,o),
(342,79,o),
(272,79,cs),
(177,79,o),
(194,306,o),
(236,460,c),
(59,446,l),
(35,258,o),
(45,-14,o),
(235,-14,cs)
);
},
{
closed = 1;
nodes = (
(581,13,l),
(566,160,o),
(572,305,o),
(595,465,c),
(433,452,l),
(424,279,o),
(429,165,o),
(457,-14,c)
);
}
);
width = 654;
},
{
anchors = (
{
name = bottom;
pos = (336,-50);
},
{
name = ogonek;
pos = (601,15);
},
{
name = top;
pos = (336,520);
}
);
layerId = "34FE6C3C-97E7-412D-B228-A13225540168";
name = Black;
shapes = (
{
closed = 1;
nodes = (
(356,-16,o),
(468,129,o),
(471,290,c),
(428,450,l),
(403,229,o),
(332,96,o),
(274,96,cs),
(182,96,o),
(225,341,o),
(263,459,c),
(50,443,l),
(28,262,o),
(39,-16,o),
(230,-16,cs)
);
},
{
closed = 1;
nodes = (
(601,15,l),
(586,161,o),
(594,301,o),
(618,465,c),
(428,450,l),
(418,272,o),
(426,163,o),
(455,-18,c)
);
}
);
width = 668;
}
);
metricRight = l;
unicode = 117;
},
{
glyphname = v;
kernLeft = v_1;
kernRight = v_2;
lastChange = "2022-08-23 06:31:59 +0000";
layers = (
{
layerId = m002;
name = Black;
shapes = (
{
closed = 1;
nodes = (
(345,0,l),
(326,36,l),
(289,163,o),
(191,337,o),
(121,465,c),
(30,451,l),
(146,278,o),
(226,147,o),
(290,-9,c)
);
},
{
closed = 1;
nodes = (
(396,141,o),
(490,320,o),
(566,456,c),
(455,471,l),
(400,353,o),
(327,178,o),
(288,37,c),
(345,0,l)
);
}
);
width = 596;
},
{
layerId = m003;
name = Black;
shapes = (
{
closed = 1;
nodes = (
(410,0,l),
(353,95,l),
(310,222,o),
(253,344,o),
(177,472,c),
(20,451,l),
(156,278,o),
(210,147,o),
(286,-9,c)
);
},
{
closed = 1;
nodes = (
(470,141,o),
(568,320,o),
(650,456,c),
(397,471,l),
(353,349,o),
(325,259,o),
(286,83,c),
(410,0,l)
);
}
);
width = 670;
},
{
layerId = "68C5B637-35C1-4638-A7C2-DD6A34998814";
name = Black;
shapes = (
{
closed = 1;
nodes = (
(361,0,l),
(333,51,l),
(294,178,o),
(207,339,o),
(135,467,c),
(28,451,l),
(149,278,o),
(222,147,o),
(289,-9,c)
);
},
{
closed = 1;
nodes = (
(415,141,o),
(510,320,o),
(587,456,c),
(441,471,l),
(388,352,o),
(327,198,o),
(288,49,c),
(361,0,l)
);
}
);
width = 614.5;
},
{
layerId = "267D1DB6-4F39-4280-86D9-F184EF0BD2F7";
name = Black;
shapes = (
{
closed = 1;
nodes = (
(377,0,l),
(340,66,l),
(299,193,o),
(222,341,o),
(149,469,c),
(25,451,l),
(151,278,o),
(218,147,o),
(288,-9,c)
);
},
{
closed = 1;
nodes = (
(433,141,o),
(529,320,o),
(608,456,c),
(426,471,l),
(376,351,o),
(326,218,o),
(287,60,c),
(377,0,l)
);
}
);
width = 633;
},
{
layerId = "34FE6C3C-97E7-412D-B228-A13225540168";
name = Black;
shapes = (
{
closed = 1;
nodes = (
(394,0,l),
(347,81,l),
(305,208,o),
(238,343,o),
(163,471,c),
(23,451,l),
(154,278,o),
(214,147,o),
(287,-9,c)
);
},
{
closed = 1;
nodes = (
(452,141,o),
(549,320,o),
(629,456,c),
(412,471,l),
(365,350,o),
(326,239,o),
(287,72,c),
(394,0,l)
);
}
);
width = 651.5;
}
);
unicode = 118;
},
